<?xml version="1.0" encoding="UTF-8" standalone="no"?>
<!-- Created with Inkscape (http://www.inkscape.org/) -->
<svg
   xmlns:dc="http://purl.org/dc/elements/1.1/"
   xmlns:cc="http://creativecommons.org/ns#"
   xmlns:rdf="http://www.w3.org/1999/02/22-rdf-syntax-ns#"
   xmlns:svg="http://www.w3.org/2000/svg"
   xmlns="http://www.w3.org/2000/svg"
   xmlns:xlink="http://www.w3.org/1999/xlink"
   xmlns:sodipodi="http://sodipodi.sourceforge.net/DTD/sodipodi-0.dtd"
   xmlns:inkscape="http://www.inkscape.org/namespaces/inkscape"
   width="64px"
   height="64px"
   id="svg2383"
   sodipodi:version="0.32"
   inkscape:version="0.46"
   inkscape:export-filename="/home/v00d00/build/sabayon/artwork/wip/menu/sabayon-weblink-20.png"
   inkscape:export-xdpi="28.125"
   inkscape:export-ydpi="28.125"
   sodipodi:docname="icon.svg"
   inkscape:output_extension="org.inkscape.output.svg.inkscape">
  <defs
     id="defs2385"><linearGradient
   inkscape:collect="always"
   xlink:href="#linearGradient4808"
   id="linearGradient5032"
   gradientUnits="userSpaceOnUse"
   x1="46.915581"
   y1="45.730022"
   x2="150.70486"
   y2="106.60844"
   gradientTransform="matrix(0.5189686,0,0,0.5366276,-20.24017,-20.380893)" />
<linearGradient
   gradientTransform="matrix(0.315,0,0,-0.315,-250.166,-358.406)"
   y2="-1269.558"
   x2="868.99609"
   y1="-1149.4053"
   x1="868.99609"
   gradientUnits="userSpaceOnUse"
   id="SVGID_6_">
		<stop
   id="stop4230"
   style="stop-color: rgb(0, 106, 0);"
   offset="0" />

		<stop
   id="stop4232"
   style="stop-color: rgb(0, 64, 0);"
   offset="0.2" />

		<stop
   id="stop4234"
   style="stop-color: rgb(0, 189, 0);"
   offset="1" />

	</linearGradient>
<clipPath
   id="SVGID_4_">
		<use
   id="use4218"
   overflow="visible"
   xlink:href="#SVGID_3_"
   style="overflow:visible"
   x="0"
   y="0"
   width="200"
   height="200" />

	</clipPath>
<radialGradient
   gradientUnits="userSpaceOnUse"
   gradientTransform="matrix(0.315,0,0,0.315,-193.939,-303.123)"
   r="96.022903"
   cy="995.40723"
   cx="685.64941"
   id="SVGID_5_">
		<stop
   id="stop4221"
   style="stop-color:#2a2a2a;stop-opacity:1;"
   offset="0" />

		<stop
   id="stop4223"
   style="stop-color:#000000;stop-opacity:1;"
   offset="0.59549999" />

		<stop
   id="stop4225"
   style="stop-color:#333333;stop-opacity:1;"
   offset="0.99440002" />

	</radialGradient>
<inkscape:perspective
   sodipodi:type="inkscape:persp3d"
   inkscape:vp_x="0 : 32 : 1"
   inkscape:vp_y="0 : 1000 : 0"
   inkscape:vp_z="64 : 32 : 1"
   inkscape:persp3d-origin="32 : 21.333333 : 1"
   id="perspective2391" />
<linearGradient
   gradientUnits="userSpaceOnUse"
   xlink:href="#linearGradient4808"
   id="linearGradient4825"
   y2="106.60844"
   x2="150.70486"
   y1="45.730022"
   x1="46.915581" />
<linearGradient
   gradientTransform="matrix(1.05595,-9.26276e-5,-5.88156e-5,1.05982,-4.56539,-5.676)"
   gradientUnits="userSpaceOnUse"
   xlink:href="#linearGradient4785"
   id="linearGradient4795"
   y2="98.118896"
   x2="141.3333"
   y1="95.007561"
   x1="11.258976" />
<radialGradient
   gradientTransform="matrix(0.89376,3.08058e-2,-2.29461e-2,1.00437,10.8593,-2.93184)"
   gradientUnits="userSpaceOnUse"
   xlink:href="#linearGradient3163"
   id="radialGradient3169"
   fy="95.007561"
   fx="81.694405"
   r="71.40696"
   cy="95.007561"
   cx="81.694405" />
<linearGradient
   id="linearGradient3163">
  <stop
     offset="0"
     style="stop-color: rgb(0, 176, 255); stop-opacity: 1;"
     id="stop3165" />
  <stop
     offset="1"
     style="stop-color: rgb(0, 176, 255); stop-opacity: 0;"
     id="stop3167" />
</linearGradient>
<linearGradient
   id="linearGradient3173">
  <stop
     offset="0"
     style="stop-color: rgb(33, 0, 115); stop-opacity: 1;"
     id="stop3175" />
  <stop
     offset="1"
     style="stop-color: rgb(33, 0, 115); stop-opacity: 0;"
     id="stop3177" />
</linearGradient>
<linearGradient
   id="linearGradient3189">
  <stop
     offset="0"
     style="stop-color: rgb(0, 46, 67); stop-opacity: 0;"
     id="stop3191" />
  <stop
     offset="1"
     style="stop-color: rgb(0, 46, 67); stop-opacity: 1;"
     id="stop3193" />
</linearGradient>
<linearGradient
   id="linearGradient4785">
  <stop
     offset="0"
     style="stop-color: rgb(0, 176, 255); stop-opacity: 1;"
     id="stop4787" />
  <stop
     offset="1"
     style="stop-color:#00b0ff;stop-opacity:0.19;"
     id="stop4789" />
</linearGradient>
<linearGradient
   id="linearGradient4808">
  <stop
     offset="0"
     style="stop-color: rgb(255, 255, 255); stop-opacity: 0.72449;"
     id="stop4810" />
  <stop
     offset="1"
     style="stop-color: rgb(255, 255, 255); stop-opacity: 0.0408163;"
     id="stop4812" />
</linearGradient>
<linearGradient
   id="linearGradient4849">
  <stop
     offset="0"
     style="stop-color: rgb(16, 16, 16); stop-opacity: 1;"
     id="stop4851" />
  <stop
     offset="1"
     style="stop-color: rgb(0, 0, 0); stop-opacity: 1;"
     id="stop4853" />
</linearGradient>
<inkscape:perspective
   id="perspective2550"
   inkscape:persp3d-origin="100 : 66.666667 : 1"
   inkscape:vp_z="200 : 100 : 1"
   inkscape:vp_y="0 : 1000 : 0"
   inkscape:vp_x="0 : 100 : 1"
   sodipodi:type="inkscape:persp3d" />
<linearGradient
   gradientUnits="userSpaceOnUse"
   xlink:href="#linearGradient4808"
   id="linearGradient2785"
   y2="106.60844"
   x2="150.70486"
   y1="45.730022"
   x1="46.915581" />
<linearGradient
   gradientTransform="matrix(1.05595, -9.26276e-05, -5.88156e-05, 1.05982, -4.56539, -5.676)"
   gradientUnits="userSpaceOnUse"
   xlink:href="#linearGradient4785"
   id="linearGradient2783"
   y2="98.118896"
   x2="141.3333"
   y1="95.007561"
   x1="11.258976" />
<radialGradient
   gradientTransform="matrix(0.89376, 0.0308058, -0.0229461, 1.00437, 10.8593, -2.93184)"
   gradientUnits="userSpaceOnUse"
   xlink:href="#linearGradient3163"
   id="radialGradient2781"
   fy="95.007561"
   fx="81.694405"
   r="71.40696"
   cy="95.007561"
   cx="81.694405" />
<linearGradient
   id="linearGradient2775">
  <stop
     offset="0"
     style="stop-color: rgb(0, 176, 255); stop-opacity: 1;"
     id="stop2777" />
  <stop
     offset="1"
     style="stop-color: rgb(0, 176, 255); stop-opacity: 0;"
     id="stop2779" />
</linearGradient>
<linearGradient
   id="linearGradient2769">
  <stop
     offset="0"
     style="stop-color: rgb(33, 0, 115); stop-opacity: 1;"
     id="stop2771" />
  <stop
     offset="1"
     style="stop-color: rgb(33, 0, 115); stop-opacity: 0;"
     id="stop2773" />
</linearGradient>
<linearGradient
   id="linearGradient2763">
  <stop
     offset="0"
     style="stop-color: rgb(0, 46, 67); stop-opacity: 0;"
     id="stop2765" />
  <stop
     offset="1"
     style="stop-color: rgb(0, 46, 67); stop-opacity: 1;"
     id="stop2767" />
</linearGradient>
<linearGradient
   id="linearGradient2757">
  <stop
     offset="0"
     style="stop-color: rgb(0, 176, 255); stop-opacity: 1;"
     id="stop2759" />
  <stop
     offset="1"
     style="stop-color: rgb(0, 21, 31); stop-opacity: 0;"
     id="stop2761" />
</linearGradient>
<linearGradient
   id="linearGradient2751">
  <stop
     offset="0"
     style="stop-color: rgb(255, 255, 255); stop-opacity: 0.72449;"
     id="stop2753" />
  <stop
     offset="1"
     style="stop-color: rgb(255, 255, 255); stop-opacity: 0.0408163;"
     id="stop2755" />
</linearGradient>
<linearGradient
   id="linearGradient2745">
  <stop
     offset="0"
     style="stop-color: rgb(16, 16, 16); stop-opacity: 1;"
     id="stop2747" />
  <stop
     offset="1"
     style="stop-color: rgb(0, 0, 0); stop-opacity: 1;"
     id="stop2749" />
</linearGradient>
<inkscape:perspective
   id="perspective2742"
   inkscape:persp3d-origin="100 : 66.666667 : 1"
   inkscape:vp_z="200 : 100 : 1"
   inkscape:vp_y="0 : 1000 : 0"
   inkscape:vp_x="0 : 100 : 1"
   sodipodi:type="inkscape:persp3d" />

	<defs
   id="defs4214">
		<path
   id="SVGID_3_"
   d="M 23.589,42.098 C 33.866,42.098 42.205,33.725 42.205,23.453 C 42.205,13.246 33.867,4.872 23.589,4.872 C 13.383,4.872 4.974,13.246 4.974,23.453 C 4.974,33.725 13.384,42.098 23.589,42.098 z" />

	</defs>

	<clipPath
   id="clipPath4301">
		<use
   height="200"
   width="200"
   y="0"
   x="0"
   style="overflow:visible"
   xlink:href="#SVGID_3_"
   overflow="visible"
   id="use4303" />

	</clipPath>

	
		<radialGradient
   id="radialGradient4305"
   cx="685.64941"
   cy="995.40723"
   r="96.022903"
   gradientTransform="matrix(0.315,0,0,0.315,-193.939,-303.123)"
   gradientUnits="userSpaceOnUse">
		<stop
   offset="0"
   style="stop-color: rgb(255, 255, 255);"
   id="stop4307" />

		<stop
   offset="0.5955"
   style="stop-color: rgb(87, 173, 255);"
   id="stop4309" />

		<stop
   offset="0.9944"
   style="stop-color: rgb(201, 230, 255);"
   id="stop4311" />

	</radialGradient>

	
	
		<linearGradient
   id="linearGradient4314"
   gradientUnits="userSpaceOnUse"
   x1="868.99609"
   y1="-1149.4053"
   x2="868.99609"
   y2="-1269.558"
   gradientTransform="matrix(0.315,0,0,-0.315,-250.166,-358.406)">
		<stop
   offset="0"
   style="stop-color:#000000;stop-opacity:1;"
   id="stop4316" />

		<stop
   offset="0.2"
   style="stop-color:#005172;stop-opacity:1;"
   id="stop4318" />

		<stop
   offset="1"
   style="stop-color:#000000;stop-opacity:1;"
   id="stop4320" />

	</linearGradient>

	
<linearGradient
   inkscape:collect="always"
   xlink:href="#linearGradient4314"
   id="linearGradient4974"
   gradientUnits="userSpaceOnUse"
   gradientTransform="matrix(0.315,0,0,-0.315,-250.166,-358.406)"
   x1="868.99609"
   y1="-1149.4053"
   x2="868.99609"
   y2="-1269.558" />
<radialGradient
   inkscape:collect="always"
   xlink:href="#SVGID_5_"
   id="radialGradient4976"
   gradientUnits="userSpaceOnUse"
   gradientTransform="matrix(0.315,0,0,0.315,-193.939,-303.123)"
   cx="685.64941"
   cy="995.40723"
   r="96.022903" />
<radialGradient
   inkscape:collect="always"
   xlink:href="#SVGID_5_"
   id="radialGradient4978"
   gradientUnits="userSpaceOnUse"
   gradientTransform="matrix(0.315,0,0,0.315,-193.939,-303.123)"
   cx="685.64941"
   cy="995.40723"
   r="96.022903" />
<linearGradient
   inkscape:collect="always"
   xlink:href="#linearGradient4314"
   id="linearGradient4980"
   gradientUnits="userSpaceOnUse"
   gradientTransform="matrix(0.315,0,0,-0.315,-250.166,-358.406)"
   x1="868.99609"
   y1="-1149.4053"
   x2="868.99609"
   y2="-1269.558" />
<radialGradient
   inkscape:collect="always"
   xlink:href="#SVGID_5_"
   id="radialGradient4989"
   gradientUnits="userSpaceOnUse"
   gradientTransform="matrix(0.315,0,0,0.315,-193.939,-303.123)"
   cx="685.64941"
   cy="995.40723"
   r="96.022903" />
<linearGradient
   inkscape:collect="always"
   xlink:href="#linearGradient4314"
   id="linearGradient4991"
   gradientUnits="userSpaceOnUse"
   gradientTransform="matrix(0.315,0,0,-0.315,-250.166,-358.406)"
   x1="868.99609"
   y1="-1149.4053"
   x2="868.99609"
   y2="-1269.558" />
</defs>
  <sodipodi:namedview
     id="base"
     pagecolor="#ffffff"
     bordercolor="#666666"
     borderopacity="1.0"
     inkscape:pageopacity="0.0"
     inkscape:pageshadow="2"
     inkscape:zoom="5.5"
     inkscape:cx="32"
     inkscape:cy="32"
     inkscape:current-layer="layer1"
     showgrid="true"
     inkscape:document-units="px"
     inkscape:grid-bbox="true"
     showguides="true"
     inkscape:guide-bbox="true" />
  <metadata
     id="metadata2388">
    <rdf:RDF>
      <cc:Work
         rdf:about="">
        <dc:format>image/svg+xml</dc:format>
        <dc:type
           rdf:resource="http://purl.org/dc/dcmitype/StillImage" />
      </cc:Work>
    </rdf:RDF>
  </metadata>
  <g
     id="layer1"
     inkscape:label="Layer 1"
     inkscape:groupmode="layer">
    <path
       style="fill:url(#SVGID_1_)"
       enable-background="new    "
       d="M 9.4197169,9.3923662 C 3.3446481,15.450243 -2.5000006e-08,23.460208 -2.5000006e-08,31.948424 C -2.5000006e-08,49.618795 14.353855,63.99453 31.997655,63.99453 C 49.64302,63.99453 64,49.618795 64,31.948424 C 64,14.334319 49.64302,0.005470375 31.997655,0.005470375 C 23.506312,0.005470375 15.486971,3.3391782 9.4197169,9.3923662 z"
       id="path4201" />
    <path
       style="fill:url(#SVGID_2_)"
       d="M 9.4189361,9.3939289 C 3.34543,15.451806 0.000781745,23.461769 0.000781745,31.949987 C 0.000781745,49.620357 14.354636,63.99453 31.998436,63.99453 C 49.6438,63.99453 63.999218,49.620357 63.999218,31.949987 C 63.999218,14.335882 49.6438,0.005470185 31.998436,0.005470185 C 23.507094,0.005470185 15.487753,3.3391779 9.4189361,9.3939289 z"
       id="path4208" />
    <path
       id="path4227"
       d="M 23.589,42.098 C 33.866,42.098 42.205,33.725 42.205,23.453 C 42.205,13.246 33.867,4.872 23.589,4.872 C 13.383,4.872 4.974,13.246 4.974,23.453 C 4.974,33.725 13.384,42.098 23.589,42.098 z"
       clip-path="url(#SVGID_4_)"
       style="fill:url(#radialGradient4989)"
       transform="matrix(1.5629197,0,0,1.5629197,-4.8684943,-4.7051692)" />
    <path
       id="path4236"
       d="M 17.279,6.581 C 17.185,6.581 17.082,6.62 16.977,6.679 C 17.224,6.606 17.34,6.581 17.279,6.581 M 23.396,7.773 L 23.457,6.878 L 22.513,6.937 L 22.638,7.772 L 23.396,7.772 M 12.739,23.237 C 12.549,23.058 12.676,22.281 12.676,22.281 C 12.676,22.281 9.838,20.79 6.749,19.893 C 6.368,19.783 6.561,18.998 6.937,18.701 L 6.812,17.863 C 6.749,17.446 7.443,15.416 8.137,15.238 C 8.831,15.058 8.074,16.431 8.074,16.431 L 7.381,16.849 C 7.381,16.849 8.2,17.804 8.39,17.804 C 8.578,17.804 8.894,17.325 8.894,17.325 L 8.012,16.73 L 8.831,16.371 L 8.883,16.057 L 9.021,16.013 L 10.378,13.957 C 11.316,13.573 12.469,13.098 12.615,13.028 C 12.868,12.909 14.633,11.895 14.948,11.657 C 15.264,11.417 15.956,11.478 16.208,11.478 C 16.461,11.478 16.839,11.358 16.902,10.7 C 16.965,10.044 17.217,9.924 17.407,10.104 C 17.596,10.281 17.217,10.581 17.659,10.7 C 18.1,10.82 18.478,11.118 18.794,10.82 C 19.024,10.602 18.716,10.353 18.508,10.165 L 22.009,10.165 L 22.388,9.088 L 21.568,8.969 L 18.542,8.67 L 18.542,8.312 L 18.3,8.353 C 18.628,6.552 20.574,6.849 19.109,5.806 C 19.02,5.742 17.738,7.827 17.411,7.786 C 16.82,7.708 16.057,7.702 15.894,7.894 C 15.678,8.148 16.377,7.021 16.979,6.679 C 16.261,6.89 14.975,6.237 12.656,7.875 C 11.872,8.429 9.904,10.675 9.093,11.538 C 5.671,15.578 5.395,19.034 5.395,19.187 C 5.395,19.485 6.12,19.654 6.182,20.013 C 6.245,20.369 4.984,21.565 4.984,22.161 C 4.984,22.435 4.353,25.416 5.739,29.145 C 6.969,32.683 9.349,35.803 9.655,35.999 L 10.531,35.534 C 10.531,35.534 9.081,32.967 9.018,32.727 C 8.955,32.489 10.657,29.026 11.478,29.147 C 12.297,29.263 12.108,29.504 12.613,29.206 C 13.118,28.909 13.433,26.459 14,26.222 C 14.568,25.982 15.198,25.684 15.135,25.087 C 15.071,24.489 12.928,23.416 12.739,23.237 M 26.422,5.685 L 24.72,5.087 L 25.035,6.043 L 26.422,5.685 M 20.053,7.894 C 20.243,7.894 24.025,5.388 23.647,5.327 C 23.27,5.268 23.207,5.327 22.196,5.207 C 21.189,5.088 20.115,6.64 19.864,6.88 C 19.612,7.119 19.697,7.894 20.053,7.894 M 37.414,25.895 L 37.902,25.261 L 37.414,25.089 L 37.048,25.549 L 36.621,26.182 L 36.986,26.354 L 37.414,25.895 M 39.549,27.967 L 39.427,27.045 L 38.635,27.045 L 38.573,27.735 L 37.84,27.621 L 37.658,26.873 L 37.292,26.643 L 36.864,27.161 L 36.437,27.047 L 36.314,27.448 L 36.803,27.565 L 36.803,31.303 L 38.53,31.719 C 38.49,31.787 38.461,31.846 38.451,31.877 C 38.328,32.28 38.938,32.455 39.365,32.28 C 39.523,32.217 40.518,31.834 40.834,31.083 C 41.273,30.037 41.558,28.531 41.634,28.044 L 41.441,27.621 L 40.22,28.082 L 39.547,27.967 L 39.549,27.967 M 38.938,12.656 C 36.146,8.423 29.438,5.656 29.438,5.656 L 27.71,6.561 L 27.465,6.16 L 26.856,5.929 L 26.856,6.448 L 27.405,6.909 L 27.04,7.081 L 25.636,7.195 L 22.463,8.922 L 22.768,10.303 L 22.401,10.419 L 22.219,10.706 L 23.257,12.258 L 23.318,12.777 L 22.464,12.949 L 22.464,13.984 L 21.976,14.099 L 22.037,14.905 L 17.886,17.783 L 18.008,19.392 C 18.313,19.795 20.694,22.212 20.694,22.212 C 20.694,22.212 23.44,22.326 24.05,21.982 C 24.661,21.637 24.233,22.327 24.417,22.5 C 24.599,22.673 24.661,23.881 24.843,23.996 C 25.027,24.111 24.843,24.8 25.087,25.033 C 25.331,25.262 25.331,28.024 25.331,28.024 C 25.331,28.024 26.796,30.498 26.796,31.13 C 26.796,31.762 26.734,31.705 27.895,31.648 C 29.054,31.591 29.298,31.13 29.542,30.959 C 29.786,30.788 29.786,30.384 30.03,30.037 C 30.276,29.691 30.702,28.37 31.252,27.91 C 31.8,27.448 33.266,27.102 33.387,26.299 C 33.509,25.492 34.058,24.86 34.058,24.86 L 36.697,22.069 L 36.623,22.444 L 36.562,23.882 L 37.356,23.595 L 37.295,22.04 L 37.011,21.739 L 37.051,21.695 C 37.051,21.695 36.867,21.35 36.624,21.35 C 36.38,21.35 34.914,21.695 34.671,21.638 C 34.427,21.58 33.389,18.818 33.206,18.704 C 33.022,18.589 31.864,16.689 31.864,16.689 C 31.864,16.689 34.548,19.911 34.975,21.177 C 35.223,21.914 36.155,21.228 36.913,20.459 L 37.113,20.948 L 37.6,20.832 L 37.539,20.257 L 38.088,20.257 L 38.088,21.12 L 37.905,21.581 L 37.842,22.328 L 38.331,22.789 L 38.575,22.387 L 39.366,21.638 L 40.282,21.178 L 40.527,21.638 L 40.649,22.271 L 40.405,22.961 L 39.917,23.364 L 39.673,24.4 L 39.673,24.918 L 39.124,24.572 L 39.063,23.48 L 38.27,23.539 L 37.905,24.516 L 38.454,25.323 L 39.735,25.496 L 40.772,24.517 L 40.894,22.621 L 41.356,22.011 C 41.657,22.784 41.872,23.593 41.872,24.346 C 41.872,25.172 42.526,23.929 42.206,21.409 C 42.205,21.406 41.703,15.422 38.938,12.656 z M 26.732,15.135 L 23.437,15.018 L 24.839,13.868 L 25.571,13.868 L 26.731,14.673 L 26.731,15.135 M 30.762,14.732 L 30.762,15.25 L 29.359,15.25 L 29.481,15.596 L 28.626,15.712 L 28.566,15.998 L 27.956,15.885 L 26.856,15.654 L 27.04,15.367 L 27.224,15.02 L 27.834,14.387 L 28.079,14.848 L 28.993,14.79 L 29.481,14.271 L 31.374,14.617 L 30.762,14.732 M 30.883,13.984 L 30.151,14.099 L 30.03,13.58 L 30.944,13.466 L 31.067,12.948 L 31.739,13.639 L 30.883,13.984 L 30.883,13.984 M 34.424,31.877 L 33.996,32.223 L 34.057,33.086 L 34.606,33.086 L 34.606,32.34 L 35.096,31.705 L 35.096,30.383 L 34.789,30.323 L 34.424,31.877 L 34.424,31.877 M 30.335,30.152 C 30.335,30.152 29.907,30.263 30.395,30.439 C 30.883,30.613 32.836,27.621 32.836,27.621 L 31.188,28.656 L 30.335,30.152 L 30.335,30.152 M 27.013,41.18 L 26.648,40.832 L 25.916,40.716 L 25.795,41.065 L 24.818,40.95 L 24.756,40.487 L 24.024,40.487 L 23.231,40.95 L 21.829,40.95 L 21.707,40.602 L 19.45,40.369 L 19.084,40.718 L 18.17,40.488 L 18.047,39.675 L 17.62,39.615 L 17.132,40.487 L 15.485,40.428 C 15.78,40.567 18.238,42.034 22.01,42.34 C 27.012,42.744 29.391,41.529 29.391,41.529 L 29.208,41.353 L 27.013,41.18 L 27.013,41.18 L 27.013,41.18 z"
       clip-path="url(#SVGID_4_)"
       style="fill:url(#linearGradient4991);fill-opacity:1"
       transform="matrix(1.5629197,0,0,1.5629197,-4.8684943,-4.873183)" />
    <path
       style="fill:url(#SVGID_7_)"
       d="M 9.890156,37.188111 C 13.116022,39.976361 17.703192,42.12225 23.046814,43.250678 C 23.046814,43.250678 29.131261,42.639576 32.163325,42.639576 C 37.428801,42.639576 46.037364,41.573664 46.037364,41.573664 C 46.12645,41.539279 46.212411,41.504896 46.299934,41.468949 C 46.299934,41.468949 49.18821,39.201153 50.674546,38.219639 C 52.2234,37.195927 55.280471,35.468899 55.280471,35.468899 C 50.69799,26.719676 41.840924,20.749322 31.669443,20.749322 C 25.169259,20.749322 19.172336,23.223424 14.497644,27.319837 C 11.921952,29.576691 10.359032,32.067987 8.719529,35.167257 C 9.2556106,35.778358 9.2399814,36.623897 9.890156,37.188111 z"
       id="path4243" />
    <path
       style="fill:url(#SVGID_8_)"
       d="M 49.725855,27.042418 C 45.412196,23.342987 41.023517,21.636279 41.023517,21.636279 L 38.560356,22.925688 L 38.177441,22.298958 L 37.225622,21.937922 L 37.225622,22.749078 L 38.083665,23.469583 L 37.513199,23.738406 L 35.31886,23.916579 L 30.359716,26.615741 L 30.836407,28.774133 L 30.262815,28.955432 L 29.979927,29.403989 L 31.600674,31.829641 L 31.696012,32.640796 L 30.361279,32.909619 L 30.361279,34.52724 L 29.598574,34.706976 L 29.693913,35.96669 L 23.206232,40.466336 L 23.359399,42.485629 C 26.078879,43.060783 28.989035,43.378055 32.022663,43.378055 C 37.292828,43.378055 42.19727,42.430926 46.343696,40.80549 C 45.746661,39.894307 45.051161,38.753377 45.051161,38.753377 C 45.051161,38.753377 45.740409,39.581723 46.606266,40.699211 C 50.34477,39.195683 53.447166,37.140443 55.589929,34.708539 C 54.067645,31.807761 52.074922,29.214877 49.725855,27.042418 z M 37.03182,36.326161 L 31.882,36.143299 L 34.073213,34.347505 L 35.21727,34.347505 L 37.030257,35.605655 L 37.030257,36.326161 L 37.03182,36.326161 z M 43.330387,35.696306 L 43.330387,36.505897 L 41.13761,36.505897 L 41.328287,37.046667 L 39.991991,37.227967 L 39.898215,37.674961 L 38.944834,37.498351 L 37.225622,37.137316 L 37.513199,36.688759 L 37.800777,36.146425 L 38.754158,35.157098 L 39.137073,35.877604 L 40.565582,35.786955 L 41.328287,34.975799 L 44.286894,35.51657 L 43.330387,35.696306 z M 43.5195,34.525678 L 43.5195,34.525678 L 42.375443,34.706976 L 42.18633,33.895821 L 43.614838,33.717649 L 43.807077,32.908056 L 44.85736,33.988033 L 43.5195,34.525678 z M 24.625363,29.5806 C 24.984835,29.239883 24.503456,28.850716 24.178369,28.556887 L 29.65015,28.556887 L 30.242497,26.873623 L 28.960903,26.687636 L 24.228382,26.221885 L 24.228382,25.66236 L 23.851718,25.726439 C 24.364356,22.911621 27.407361,23.375809 25.11612,21.747246 C 24.977021,21.64722 22.971794,24.904344 22.462283,24.841827 C 21.538597,24.719919 20.344526,24.710541 20.08977,25.010622 C 19.753743,25.407604 20.844661,23.646194 21.785538,23.111675 C 21.190066,23.286722 21.035337,22.483381 19.603702,23.189821 C 16.18716,25.079391 13.789641,27.49254 13.789641,27.49254 C 11.65313,29.558719 9.829202,31.979682 8.4100711,34.664778 C 8.9430267,35.274316 9.543188,35.860411 10.1918,36.4215 L 11.468705,34.486606 C 12.934723,33.888006 14.73677,33.144057 14.966519,33.034653 C 15.360375,32.848664 18.118928,31.263864 18.612812,30.890327 C 19.106694,30.515226 20.189797,30.610564 20.58209,30.610564 C 20.977509,30.610564 21.568293,30.423014 21.666757,29.394613 C 21.765221,28.369337 22.160639,28.181787 22.456031,28.463112 C 22.751422,28.739749 22.160639,29.208624 22.849886,29.394613 C 23.540698,29.5806 24.131481,30.047913 24.625363,29.5806 z M 26.59308,25.00906 C 26.890034,25.00906 32.802559,21.092382 32.210213,20.997045 C 31.620992,20.904832 31.522528,20.997045 29.942417,20.809494 C 28.366993,20.621945 26.689981,23.049158 26.296124,23.422696 C 25.903831,23.797797 26.03668,25.00906 26.59308,25.00906 z M 31.81792,24.819946 L 31.913259,23.421133 L 30.437862,23.513346 L 30.633227,24.819946 L 31.81792,24.819946 z M 36.547315,21.55657 L 33.887226,20.621945 L 34.379546,22.117658 L 36.547315,21.55657 z"
       id="path4252" />
    <path
       style="opacity:1;fill:none;fill-opacity:1;stroke:#101010;stroke-width:2.88212419;stroke-linecap:round;stroke-linejoin:round;stroke-miterlimit:4;stroke-dasharray:none;stroke-dashoffset:0;stroke-opacity:1"
       id="path4031"
       d="M 61.422002,31.999998 C 61.426055,48.252102 48.252184,61.429179 32.000003,61.429179 C 15.747818,61.429179 2.5739516,48.252102 2.577998,31.999998 C 2.5739516,15.747898 15.747818,2.5708206 32.000003,2.5708206 C 48.252184,2.5708206 61.426055,15.747898 61.422002,31.999998 L 61.422002,31.999998 z" />
    <text
       sodipodi:linespacing="125%"
       style="font-size:34.51691055px;font-style:normal;font-variant:normal;font-weight:normal;font-stretch:normal;text-align:start;line-height:125%;text-anchor:start;opacity:1;fill:#00b0ff;fill-opacity:1;stroke:none;stroke-width:1px;stroke-linecap:butt;stroke-linejoin:miter;stroke-opacity:1;font-family:AnimalTracks"
       xml:space="preserve"
       id="text4025"
       y="55.665985"
       x="15.751402"
       transform="matrix(0.9999866,-5.1731428e-3,5.1731428e-3,0.9999866,0,0)"><tspan
         id="tspan4027"
         y="55.665985"
         x="15.751402"
         style="fill:#00b0ff;fill-opacity:1">q</tspan></text>
    <path
       style="opacity:0.40394102;fill:url(#linearGradient5032);fill-opacity:1;stroke:none;stroke-width:13.38799953;stroke-linecap:round;stroke-linejoin:round;stroke-miterlimit:4;stroke-dashoffset:0;stroke-opacity:1"
       id="path4816"
       d="M 29.85823,4.0475061 C 18.026279,5.0429337 10.406366,11.682833 6.1595228,21.539112 C 5.6674651,22.855361 5.1169196,24.164443 4.7580837,25.50574 C 4.500633,27.038593 5.8003563,28.356297 6.7705504,29.606888 C 8.4245255,31.661047 9.9818698,33.880979 12.636826,35.310925 C 15.817795,37.095223 20.293845,37.005407 23.730394,35.692655 C 25.657236,35.012512 27.155096,33.807557 29.118912,33.169769 C 30.550102,32.594097 32.233348,32.474237 33.802383,32.760185 C 36.929273,33.198162 40.101314,34.07138 43.3133,33.556689 C 47.403343,33.084633 50.981669,31.357793 54.129701,29.416199 C 55.36769,28.647436 56.855734,28.070949 57.924156,27.14879 C 58.914712,26.271601 58.517649,25.054823 58.469338,24.010565 C 57.818059,19.971255 55.730657,16.076067 52.480865,12.827096 C 49.189306,9.4803276 44.784461,6.6827433 39.582257,5.1919767 C 36.498726,4.3074324 33.160601,3.8342433 29.85823,4.0475061 z" />
  </g>
</svg>
