<?xml version="1.0" encoding="UTF-8" standalone="no"?>
<!-- Created with Inkscape (http://www.inkscape.org/) -->

<svg
   xmlns:dc="http://purl.org/dc/elements/1.1/"
   xmlns:cc="http://creativecommons.org/ns#"
   xmlns:rdf="http://www.w3.org/1999/02/22-rdf-syntax-ns#"
   xmlns:svg="http://www.w3.org/2000/svg"
   xmlns="http://www.w3.org/2000/svg"
   xmlns:xlink="http://www.w3.org/1999/xlink"
   xmlns:sodipodi="http://sodipodi.sourceforge.net/DTD/sodipodi-0.dtd"
   xmlns:inkscape="http://www.inkscape.org/namespaces/inkscape"
   width="570"
   height="200"
   id="svg3198"
   version="1.1"
   inkscape:version="0.48.4 r9939"
   sodipodi:docname="logo.svg"
   inkscape:export-filename="/home/fabio/repos/artwork/logos/press-header-clean.png"
   inkscape:export-xdpi="90"
   inkscape:export-ydpi="90">
  <defs
     id="defs3200">
    <linearGradient
       x1="46.915581"
       y1="45.730022"
       x2="150.70486"
       y2="106.60844"
       id="linearGradient2538"
       xlink:href="#linearGradient4808"
       gradientUnits="userSpaceOnUse"
       gradientTransform="matrix(1.4685665,0,0,1.4685665,-46.272274,-47.021816)" />
    <linearGradient
       id="linearGradient4808">
      <stop
         id="stop4810"
         style="stop-color:#ffffff;stop-opacity:0.72448999"
         offset="0" />
      <stop
         id="stop4812"
         style="stop-color:#ffffff;stop-opacity:0.0408163"
         offset="1" />
    </linearGradient>
  </defs>
  <sodipodi:namedview
     id="base"
     pagecolor="#ffffff"
     bordercolor="#666666"
     borderopacity="1.0"
     inkscape:pageopacity="0.0"
     inkscape:pageshadow="2"
     inkscape:zoom="2.2667969"
     inkscape:cx="196.56875"
     inkscape:cy="149.83493"
     inkscape:document-units="px"
     inkscape:current-layer="text4781"
     showgrid="false"
     inkscape:window-width="1920"
     inkscape:window-height="1021"
     inkscape:window-x="0"
     inkscape:window-y="27"
     inkscape:window-maximized="1" />
  <metadata
     id="metadata3203">
    <rdf:RDF>
      <cc:Work
         rdf:about="">
        <dc:format>image/svg+xml</dc:format>
        <dc:type
           rdf:resource="http://purl.org/dc/dcmitype/StillImage" />
        <dc:title />
      </cc:Work>
    </rdf:RDF>
  </metadata>
  <g
     inkscape:label="Livello 1"
     inkscape:groupmode="layer"
     id="layer1"
     transform="translate(0,-852.36218)">
    <g
       transform="matrix(0.57798496,0,0,0.57798496,33.913479,788.71765)"
       id="layer1-1">
      <g
         id="text2820"
         style="font-size:40px;font-style:normal;font-weight:normal;fill:#000000;fill-opacity:1;stroke:none;font-family:Bitstream Vera Sans">
        <path
           inkscape:connector-curvature="0"
           d="m 276.88195,306.85647 c -8e-5,16.8364 -12.79708,25.25458 -38.39104,25.25458 l -9.97964,0 c -12.28786,0 -21.2831,-3.59809 -26.98574,-10.79429 l 7.63748,-4.58249 c 4.6843,4.82011 11.13371,7.23015 19.34826,7.23014 l 16.19145,0 c 15.75011,1e-5 23.62518,-5.49896 23.62525,-16.49694 -7e-5,-9.43649 -7.50176,-16.22535 -22.50509,-20.3666 l -19.04277,-5.29532 c -16.36118,-4.54848 -24.54175,-12.93272 -24.54175,-25.15275 0,-15.34274 10.35301,-23.01415 31.05906,-23.01425 l 9.57231,0 0,-0.10183 5.60081,0 c 12.42356,9e-5 21.38486,3.46241 26.88391,10.38696 l -7.63747,4.58249 c -4.48072,-4.61635 -11.20169,-6.92456 -20.16294,-6.92465 l -17.41344,0 c -12.89886,9e-5 -19.34828,5.15963 -19.34827,15.47862 -1e-5,7.80726 6.65307,13.57779 19.95927,17.31161 l 19.85743,5.60081 c 17.51521,4.95592 26.27284,13.91721 26.27292,26.88391"
           id="path2825"
           style="font-size:250px;font-variant:normal;font-stretch:normal;fill:#ffffff;font-family:Asenine;-inkscape-font-specification:Asenine;fill-opacity:1" />
        <path
           inkscape:connector-curvature="0"
           d="m 385.46814,332.11105 -8.55397,0 0,-18.32994 c -5.3633,7.46777 -12.83104,13.06858 -22.40326,16.80245 -5.77061,2.24032 -11.84663,3.36049 -18.22811,3.36049 -15.00343,0 -27.05366,-4.71826 -36.15071,-14.15479 -9.09709,-9.50439 -13.64563,-21.79223 -13.64562,-36.86354 -10e-6,-15.34278 4.37881,-27.63061 13.13645,-36.86355 8.89339,-9.50431 20.97756,-14.25652 36.25255,-14.25662 17.44731,1e-4 31.12687,7.26418 41.0387,21.79227 l 0,-20.0611 8.55397,0 0,98.57433 m -8.55397,-30.85539 0,-13.34013 c -1e-4,-13.78134 -3.25875,-25.0169 -9.77597,-33.70672 -7.26417,-9.77588 -17.54929,-14.66386 -30.8554,-14.66395 -12.62733,9e-5 -22.6409,4.07341 -30.04073,12.21996 -7.19622,7.87516 -10.79431,18.19423 -10.7943,30.95723 -10e-6,12.96677 3.53019,23.31978 10.59063,31.05906 7.33195,8.07877 17.4134,12.11814 30.2444,12.11813 6.51725,10e-6 12.59328,-1.39171 18.22811,-4.17515 9.77588,-4.82008 17.24363,-11.64289 22.40326,-20.46843"
           id="path2827"
           style="font-size:250px;font-variant:normal;font-stretch:normal;fill:#ffffff;font-family:Asenine;-inkscape-font-specification:Asenine;fill-opacity:1" />
        <path
           inkscape:connector-curvature="0"
           d="m 493.96841,282.92572 c -1.1e-4,15.07131 -4.54864,27.35915 -13.64562,36.86354 -9.02928,9.43653 -21.0795,14.15479 -36.15072,14.15479 -6.38158,0 -12.45761,-1.12017 -18.2281,-3.36049 -9.64022,-3.73387 -17.10796,-9.33468 -22.40326,-16.80245 l 0,18.32994 -8.55397,0 -0.10183,-0.10183 0,-145.31568 8.55397,0 0,66.90428 c 9.97961,-14.52809 23.6931,-21.79217 41.14053,-21.79227 15.27488,1e-4 27.35905,4.75231 36.25254,14.25662 8.75754,9.23294 13.13635,21.52077 13.13646,36.86355 m -8.9613,-0.20367 c -1e-4,-12.69512 -3.5982,-23.01418 -10.7943,-30.95723 -7.39994,-8.14655 -17.41351,-12.21987 -30.04074,-12.21996 -13.44199,9e-5 -23.76106,4.85413 -30.95723,14.56212 -6.44944,8.62193 -9.67414,19.89144 -9.67413,33.80855 l 0,13.34013 c 5.15952,8.82554 12.62727,15.64835 22.40326,20.46843 5.63472,2.78344 11.71075,4.17516 18.2281,4.17515 12.69512,10e-6 22.74263,-4.07331 30.14257,-12.21996 7.12822,-7.80717 10.69237,-18.12623 10.69247,-30.95723"
           id="path2829"
           style="font-size:250px;font-variant:normal;font-stretch:normal;fill:#ffffff;font-family:Asenine;-inkscape-font-specification:Asenine;fill-opacity:1" />
        <path
           inkscape:connector-curvature="0"
           d="m 602.26501,332.11105 -8.55397,0 0,-18.32994 c -5.36329,7.46777 -12.83104,13.06858 -22.40326,16.80245 -5.7706,2.24032 -11.84663,3.36049 -18.2281,3.36049 -15.00344,0 -27.05366,-4.71826 -36.15072,-14.15479 -9.09709,-9.50439 -13.64562,-21.79223 -13.64562,-36.86354 0,-15.34278 4.37881,-27.63061 13.13646,-36.86355 8.89339,-9.50431 20.97756,-14.25652 36.25255,-14.25662 17.44731,1e-4 31.12686,7.26418 41.03869,21.79227 l 0,-20.0611 8.55397,0 0,98.57433 m -8.55397,-30.85539 0,-13.34013 c -9e-5,-13.78134 -3.25875,-25.0169 -9.77597,-33.70672 -7.26416,-9.77588 -17.54928,-14.66386 -30.85539,-14.66395 -12.62734,9e-5 -22.6409,4.07341 -30.04074,12.21996 -7.19621,7.87516 -10.79431,18.19423 -10.79429,30.95723 -2e-5,12.96677 3.53019,23.31978 10.59063,31.05906 7.33194,8.07877 17.4134,12.11814 30.2444,12.11813 6.51725,10e-6 12.59328,-1.39171 18.2281,-4.17515 9.77589,-4.82008 17.24363,-11.64289 22.40326,-20.46843"
           id="path2831"
           style="font-size:250px;font-variant:normal;font-stretch:normal;fill:#ffffff;font-family:Asenine;-inkscape-font-specification:Asenine;fill-opacity:1" />
        <path
           inkscape:connector-curvature="0"
           d="m 692.74084,329.05606 c -8e-5,15.27494 -4.17523,27.427 -12.52545,36.45622 -8.62193,9.36859 -20.50243,14.0529 -35.64155,14.05295 -11.60899,-5e-5 -22.573,-3.2587 -32.89206,-9.77597 l 2.95316,-8.55397 c 5.70263,4.14117 11.91444,6.92461 18.63544,8.35031 4.48062,0.9504 8.38421,1.42562 11.71079,1.42566 12.55935,-4e-5 22.30136,-3.90364 29.22607,-11.7108 6.65301,-7.46777 9.97955,-17.54923 9.97963,-30.2444 l 0,-9.97963 c -7.39993,9.91175 -17.88872,14.86762 -31.46639,14.86762 -13.03466,0 -23.08217,-4.27699 -30.14257,-12.83096 -6.58521,-7.87507 -9.87781,-18.46569 -9.8778,-31.77189 l 0,-55.70265 8.35031,0 0,58.45214 c -2e-5,9.97966 2.74947,18.09235 8.24847,24.33808 5.77051,6.58521 13.5777,9.87781 23.42159,9.8778 9.70802,10e-6 17.44732,-3.32653 23.21792,-9.97963 5.49891,-6.31362 8.24839,-14.39237 8.24847,-24.23625 l 0,-58.45214 8.55397,0 0,95.41751"
           id="path2833"
           style="font-size:250px;font-variant:normal;font-stretch:normal;fill:#ffffff;font-family:Asenine;-inkscape-font-specification:Asenine;fill-opacity:1" />
        <path
           inkscape:connector-curvature="0"
           d="m 801.40281,282.92572 c -1e-4,14.86765 -4.58258,27.0876 -13.74745,36.65988 -9.09716,9.5723 -21.04556,14.35845 -35.84521,14.35845 -14.73188,0 -26.71422,-4.78615 -35.94705,-14.35845 -9.23287,-9.64017 -13.84929,-21.86012 -13.84929,-36.65988 0,-14.79967 4.61642,-27.01961 13.84929,-36.65988 9.23283,-9.64009 21.21517,-14.46019 35.94705,-14.46029 14.79965,1e-4 26.81594,4.85414 36.04888,14.56212 9.02909,9.50449 13.54368,21.69049 13.54378,36.55805 m -8.9613,-0.20367 c -9e-5,-12.55934 -3.59819,-22.84446 -10.7943,-30.8554 -7.39994,-8.21444 -17.34562,-12.3217 -29.83706,-12.32179 -12.49156,9e-5 -22.50513,4.10735 -30.04074,12.32179 -7.19621,7.94305 -10.79431,18.22817 -10.79429,30.8554 -2e-5,12.62733 3.59808,22.91245 10.79429,30.8554 7.46772,8.21454 17.48129,12.3218 30.04074,12.32179 12.35567,10e-6 22.2674,-4.1412 29.73523,-12.42362 7.264,-8.07873 10.89604,-18.32991 10.89613,-30.75357"
           id="path2835"
           style="font-size:250px;font-variant:normal;font-stretch:normal;fill:#ffffff;font-family:Asenine;-inkscape-font-specification:Asenine;fill-opacity:1" />
        <path
           inkscape:connector-curvature="0"
           d="m 891.0431,332.11105 -8.35031,0 0,-58.3503 c -8e-5,-9.84379 -2.78351,-17.92253 -8.3503,-24.23625 -5.83849,-6.653 -13.61174,-9.97955 -23.31976,-9.97964 -9.64023,9e-5 -17.31164,2.9193 -23.01426,8.75764 -5.70266,5.77061 -8.55398,13.47597 -8.55397,23.11609 l 0,60.4888 -0.10183,0 0,0.20366 -8.35031,0 0,-0.20366 -0.10183,0 0,-98.47251 8.55397,0 0,13.54379 c 7.33196,-10.11531 17.85469,-15.17302 31.56823,-15.17312 12.89879,1e-4 22.91236,4.31103 30.04073,12.93279 6.65301,7.94306 9.97955,18.49973 9.97964,31.67007 l 0,55.70264"
           id="path2837"
           style="font-size:250px;font-variant:normal;font-stretch:normal;fill:#ffffff;font-family:Asenine;-inkscape-font-specification:Asenine;fill-opacity:1" />
      </g>
    </g>
    <g
       transform="matrix(0.67910667,0,0,0.67909639,5.3880381,883.96455)"
       id="g2531">
      <path
         inkscape:connector-curvature="0"
         d="M 102.22637,184.5407 C 55.934332,185.39935 17.672179,148.567 16.765458,102.27333 15.858737,55.979655 52.650806,17.755146 98.942837,16.896491 145.23487,16.037838 183.49702,52.870195 184.40375,99.163864 185.31047,145.45754 148.5184,183.68205 102.22637,184.5407 l 0,0 z"
         id="path4777"
         style="fill:#101010;fill-opacity:1;stroke:none" />
      <g
         style="font-size:146.85664368px;font-style:normal;font-variant:normal;font-weight:normal;font-stretch:normal;text-align:start;line-height:125%;text-anchor:start;fill:#ffffff;fill-opacity:1;stroke:none;font-family:AnimalTracks"
         id="text4781">
        <path
           d="m 51.901395,134.71329 c -1.370681,-1.56645 -2.839245,-3.18187 -4.4057,-4.84627 -1.566484,-1.76225 -2.349719,-3.47557 -2.349706,-5.13998 -1.3e-5,-1.07692 0.2937,-2.15386 0.88114,-3.23085 2.251786,-0.68529 4.552538,-1.02796 6.902262,-1.028 5.874239,4e-5 11.797452,2.00708 17.769654,6.02113 1.174814,0.68536 2.692331,1.95812 4.552556,3.81827 1.566426,0.88117 3.867178,2.10497 6.902262,3.67142 l 0.734283,0 c -0.09795,0.19583 -0.146907,0.39164 -0.146856,0.58742 -5.1e-5,0.29374 0.24471,0.48955 0.734283,0.58743 0.587375,0.0979 0.93004,0.19583 1.027997,0.29371 0.587373,3e-5 1.223752,-0.34264 1.909136,-1.02799 0.685276,-0.68531 1.272702,-0.97902 1.76228,-0.88114 0.783179,-0.5874 1.174796,-2.44759 1.174853,-5.58056 0.39156,-0.19577 0.587369,-0.34263 0.587426,-0.44057 -5.7e-5,-0.0979 -0.146914,-0.19577 -0.44057,-0.29371 -0.195865,-0.19578 -0.29377,-0.39159 -0.293713,-0.58743 -5.7e-5,-0.19577 0.04889,-0.34263 0.146857,-0.44057 -5.7e-5,-9.39878 0.0489,-18.84655 0.146856,-28.343329 0.195752,-10.867319 1.468508,-19.384996 3.818273,-25.553056 0.587365,-2.839139 2.202787,-5.188842 4.846269,-7.049119 0.489456,-0.09781 0.978978,-0.146762 1.468567,-0.146856 2.153826,9.4e-5 4.014006,1.028089 5.580556,3.083989 0.19573,1.077039 0.88106,2.349795 2.05599,3.818273 0.48945,3.818356 1.27268,9.447855 2.34971,16.888514 l 0,20.266214 c -0.3917,5e-5 -0.53856,0.24481 -0.44057,0.73429 -8e-5,0.78328 -8e-5,1.1749 0,1.17485 0.0978,1.56652 -0.098,3.67146 -0.58743,6.31483 0.39154,5e-5 0.58735,0.24481 0.58743,0.73429 -8e-5,0.68537 -8e-5,1.02803 0,1.02799 -0.3917,0.48957 -0.58751,1.2728 -0.58743,2.34971 0.0978,1.76232 0.0978,2.69241 0,2.79028 0.39154,2.25183 3.08391,4.01411 8.07711,5.28684 4.014,-0.5874 8.41969,-2.7413 13.2171,-6.4617 6.06997,-4.60146 10.133,-7.39174 12.1891,-8.37082 2.93702,-1.37062 6.11891,-1.37062 9.54569,0 0.0978,0.48956 0.14673,1.02804 0.14685,1.61542 -1.2e-4,2.15394 -0.88126,4.94421 -2.64342,8.37083 -2.83934,5.67848 -6.75551,9.74151 -11.74853,12.1891 -0.78334,0.97906 -1.95819,1.90916 -3.52456,2.79027 -1.56657,0.88116 -3.03513,1.71335 -4.4057,2.49657 -2.05609,1.37068 -7.19606,4.40571 -15.41995,9.10511 -3.03511,2.44762 -4.84634,3.86723 -5.43369,4.25884 -2.15397,1.56648 -4.40577,2.64342 -6.75541,3.23085 -1.46863,0.19581 -2.888244,0.29371 -4.258839,0.29371 -5.776421,0 -11.454872,-1.61542 -17.035371,-4.84627 -2.643465,-1.46856 -7.293921,-4.84626 -13.951381,-10.13311 -5.77639,-4.60148 -10.671606,-7.73442 -14.685664,-9.39882 m -19.531934,-25.11249 3.671416,0 c 0.195805,0.29377 0.881135,0.73433 2.055993,1.32171 1.174846,0.48957 1.762272,1.12595 1.76228,1.90914 3.132931,1.2728 5.433683,3.13298 6.902262,5.58055 -0.391632,1.46861 -1.860197,2.59451 -4.405699,3.3777 -4.405705,-1.07691 -7.734452,-5.13994 -9.986252,-12.1891 m 120.863019,4.11199 c 0.78311,-5.4826 4.84614,-9.10506 12.1891,-10.86739 2.25167,0.098 3.13281,1.27281 2.64342,3.52456 -0.39175,1.37071 -1.41975,3.03508 -3.08399,4.99312 -3.32888,3.91622 -7.04924,5.53164 -11.1611,4.84627 l -0.58743,-2.49656 M 97.133241,58.935261 c -6.5e-5,-0.391517 -0.244826,-1.517417 -0.734283,-3.377703 -0.293777,-1.370557 -0.342729,-2.594361 -0.146857,-3.671416 0.09784,1.07e-4 0.244697,-0.0978 0.44057,-0.293713 -0.195873,-0.978936 -0.09797,-2.398549 0.293713,-4.258843 0.489457,-3.034923 0.734218,-4.601392 0.734283,-4.699413 0.293648,-1.370544 1.174787,-2.055874 2.643423,-2.055993 0.68526,1.19e-4 1.17478,0.342784 1.46856,1.027997 0.39155,0.195926 0.53841,0.881256 0.44057,2.055993 -7e-5,1.077063 0.3426,1.615537 1.028,1.615423 0.88107,5.972278 0.78316,10.818542 -0.29371,14.538808 -0.4896,-0.09781 -0.73436,0.146955 -0.73429,0.734283 -7e-5,0.48962 -0.14692,0.734381 -0.44057,0.734283 -1.46863,-0.09781 -2.447674,-0.244663 -2.937129,-0.44057 -1.077015,-0.391519 -1.664441,-1.027897 -1.76228,-1.909136"
           style=""
           id="path3002" />
      </g>
      <path
         inkscape:connector-curvature="0"
         d="M 95.495113,19.830365 C 62.013306,22.55451 40.450641,40.725646 28.433017,67.698913 c -1.392416,3.602123 -2.950339,7.184636 -3.965764,10.855306 -0.728528,4.194894 2.9494,7.801002 5.694835,11.22344 4.680384,5.621532 9.087323,11.696731 16.600264,15.610001 9.001436,4.88301 21.667665,4.63722 31.392336,1.04466 5.45254,-1.86132 9.691154,-5.15886 15.248317,-6.904272 4.049954,-1.575418 8.813165,-1.903433 13.253185,-1.120891 8.84841,1.198593 17.82458,3.588293 26.91379,2.179763 11.57392,-1.291859 21.69979,-6.017632 30.60802,-11.33111 3.50324,-2.103844 7.71407,-3.681491 10.73747,-6.205124 2.80305,-2.400567 1.67945,-5.730471 1.54274,-8.58825 -1.84297,-11.05421 -7.74986,-21.71401 -16.94605,-30.605331 -9.31438,-9.158964 -21.77912,-16.814996 -36.5002,-20.894715 -8.72571,-2.420695 -18.17187,-3.715652 -27.516847,-3.132025 z"
         id="path4816"
         style="opacity:0.40394102;fill:url(#linearGradient2538);fill-opacity:1;stroke:none" />
      <path
         inkscape:connector-curvature="0"
         d="m 181.58219,99.83417 c 0.0112,44.74144 -36.25603,81.01744 -80.99768,81.01744 -44.741662,0 -81.008822,-36.276 -80.997684,-81.01744 -0.01114,-44.74143 36.256022,-81.017436 80.997684,-81.017436 44.74165,0 81.00883,36.276006 80.99768,81.017436 l 0,0 z"
         id="path4827"
         style="fill:none;stroke:#101010;stroke-width:1.10142386;stroke-linecap:round;stroke-linejoin:round;stroke-miterlimit:4;stroke-opacity:1;stroke-dasharray:none;stroke-dashoffset:0" />
    </g>
  </g>
</svg>
