<?xml version="1.0" encoding="UTF-8" standalone="no"?>
<!-- Created with Inkscape (http://www.inkscape.org/) -->
<svg
   xmlns:dc="http://purl.org/dc/elements/1.1/"
   xmlns:cc="http://creativecommons.org/ns#"
   xmlns:rdf="http://www.w3.org/1999/02/22-rdf-syntax-ns#"
   xmlns:svg="http://www.w3.org/2000/svg"
   xmlns="http://www.w3.org/2000/svg"
   xmlns:xlink="http://www.w3.org/1999/xlink"
   xmlns:sodipodi="http://sodipodi.sourceforge.net/DTD/sodipodi-0.dtd"
   xmlns:inkscape="http://www.inkscape.org/namespaces/inkscape"
   width="1280"
   height="800"
   id="svg2"
   sodipodi:version="0.32"
   inkscape:version="0.46"
   version="1.0"
   sodipodi:docname="pinkribbons.svg"
   inkscape:output_extension="org.inkscape.output.svg.inkscape">
  <defs
     id="defs4">
    <linearGradient
       id="linearGradient3273">
      <stop
         style="stop-color:#000000;stop-opacity:1;"
         offset="0"
         id="stop3275" />
      <stop
         style="stop-color:#0e0e0e;stop-opacity:0.96078432;"
         offset="1"
         id="stop3277" />
    </linearGradient>
    <inkscape:perspective
       sodipodi:type="inkscape:persp3d"
       inkscape:vp_x="0 : 526.18109 : 1"
       inkscape:vp_y="0 : 1000 : 0"
       inkscape:vp_z="744.09448 : 526.18109 : 1"
       inkscape:persp3d-origin="372.04724 : 350.78739 : 1"
       id="perspective10" />
    <radialGradient
       inkscape:collect="always"
       xlink:href="#linearGradient3273"
       id="radialGradient3279"
       cx="17.386196"
       cy="-195.82967"
       fx="17.386196"
       fy="-195.82967"
       r="640.00001"
       gradientTransform="matrix(1.9848797,1.1459716,-0.8620416,1.4930999,-185.93663,300.07562)"
       gradientUnits="userSpaceOnUse" />
  </defs>
  <sodipodi:namedview
     id="base"
     pagecolor="#000000"
     bordercolor="#666666"
     borderopacity="1.0"
     gridtolerance="10000"
     guidetolerance="10"
     objecttolerance="10"
     inkscape:pageopacity="0"
     inkscape:pageshadow="2"
     inkscape:zoom="0.99147678"
     inkscape:cx="645.08137"
     inkscape:cy="401.60439"
     inkscape:document-units="px"
     inkscape:current-layer="layer1"
     showgrid="false"
     showguides="true"
     inkscape:guide-bbox="true"
     inkscape:window-width="1920"
     inkscape:window-height="1154"
     inkscape:window-x="0"
     inkscape:window-y="24" />
  <metadata
     id="metadata7">
    <rdf:RDF>
      <cc:Work
         rdf:about="">
        <dc:format>image/svg+xml</dc:format>
        <dc:type
           rdf:resource="http://purl.org/dc/dcmitype/StillImage" />
      </cc:Work>
    </rdf:RDF>
  </metadata>
  <g
     inkscape:label="Layer 1"
     inkscape:groupmode="layer"
     id="layer1">
    <path
       style="opacity:0.41000049000000000;fill:#ff00ff;fill-opacity:0.96078430999999997;stroke:none;stroke-width:0.70899999000000002;stroke-linecap:round;stroke-linejoin:miter;stroke-miterlimit:3.59999989999999981;stroke-dasharray:none;stroke-opacity:1"
       d="M -15.559509,488.33502 C 41.715497,745.38747 358.2987,731.13293 559.49182,683.62484 C 838.81334,643.88394 1124.8971,544.84827 1321.0022,333.12321 C 1349.0966,321.6163 1079.8821,526.91788 1131.8741,494.61995 C 874.26791,651.8339 516.58723,730.25626 269.99473,722.06586 C 23.402225,713.87546 -168.31467,562.05834 -15.559509,488.33502 z"
       id="path2459"
       sodipodi:nodetypes="cccczc" />
    <path
       style="opacity:0.41000049000000000;fill:#ff00ff;fill-opacity:0.96078430999999997;stroke:none;stroke-width:0.70899999000000002;stroke-linecap:round;stroke-linejoin:miter;stroke-miterlimit:3.59999989999999981;stroke-dasharray:none;stroke-opacity:1"
       d="M 1325.0028,288.26083 C 1266.975,405.18935 1206.7246,524.53917 1109.7105,615.74753 C 1005.9275,709.66868 883.42769,773.11055 750.4635,812.49587 C 573.57594,866.87793 386.96375,872.8924 206.2399,908.77497 C 225.49792,897.23123 240.73179,874.30232 265.71281,879.00586 C 402.95497,870.64599 540.38484,854.94032 674.49147,824.03567 C 741.72157,807.14758 814.66078,784.0087 873.63141,758.18948 C 933.06528,732.16744 962.32905,705.53212 1029.3381,657.62651 C 1097.0163,609.24252 1236.4021,465.12663 1272.918,312.48687 C 1290.2796,304.41152 1307.6412,296.33618 1325.0028,288.26083 z"
       id="path2465"
       sodipodi:nodetypes="cccccczzcc" />
    <path
       style="opacity:0.41000049000000000;fill:#ff00ff;fill-opacity:0.96078430999999997;stroke:none;stroke-width:0.70899999000000002;stroke-linecap:round;stroke-linejoin:miter;stroke-miterlimit:3.59999989999999981;stroke-dasharray:none;stroke-opacity:1"
       d="M 1360.2303,269.15842 C 1231.1729,443.00413 1043.2224,561.12401 858.19227,667.34415 C 670.30357,761.2257 460.24618,793.8512 254.27139,821.77493 C 328.62602,768.6057 427.27528,798.81455 510.2687,768.7841 C 696.46853,734.85388 876.80709,665.94993 1031.0919,555.24045 C 1136.3561,486.20036 1239.2837,406.74807 1307.4159,298.99237 C 1320.7495,282.40905 1342.7933,279.37099 1360.2303,269.15842 z"
       id="path2467" />
    <path
       style="opacity:0.41000049000000000;fill:#ff00ff;fill-opacity:0.96078430999999997;stroke:none;stroke-width:0.70899999000000002;stroke-linecap:round;stroke-linejoin:miter;stroke-miterlimit:3.59999989999999981;stroke-dasharray:none;stroke-opacity:1"
       d="M 1310.6855,255.93069 C 1304.8454,377.1665 1224.9077,475.83457 1185.5876,586.91215 C 1156.5418,661.22756 1093.1234,712.62289 1023.7762,747.61798 C 932.5938,796.25731 831.5979,828.13418 731.03506,847.39893 C 759.66944,809.02629 834.70548,820.75141 880.46903,800.30838 C 970.44863,766.55373 1065.9601,722.12671 1122.5513,643.30429 C 1171.2207,563.86138 1212.9527,479.72892 1247.8497,393.46174 C 1274.8354,348.16942 1238.1386,272.12836 1304.893,259.80676 L 1310.6855,255.93069 L 1310.6855,255.93069 z"
       id="path2469"
       sodipodi:nodetypes="cccccccccc" />
    <path
       style="opacity:0.41000049;fill:#ff00ff;fill-opacity:0.96078431;stroke:none;stroke-width:0.70899999;stroke-linecap:round;stroke-linejoin:miter;stroke-miterlimit:3.5999999;stroke-dasharray:none;stroke-opacity:1"
       d="M 1329.6525,228.3045 C 1278.1922,376.44043 1239.5335,530.43165 1168.21,670.69047 C 1096.3588,799.25369 983.50761,912.81058 840.03118,956.14947 C 899.64596,917.78841 974.44285,898.16687 1019.2936,838.66403 C 1172.2078,687.76363 1255.1694,478.31106 1279.9394,267.51394 C 1287.2748,246.33677 1307.311,230.43425 1329.6525,228.3045 z"
       id="path2471" />
    <path
       style="opacity:0.4;fill:#ff00ff;fill-opacity:0.96078430999999997;stroke:none;stroke-width:0.70899999000000002;stroke-linecap:round;stroke-linejoin:miter;stroke-miterlimit:3.59999989999999981;stroke-dasharray:none;stroke-opacity:1"
       id="path3293"
       d="M -77.678676,407.41819 C -71.399514,402.25081 -66.877376,394.97024 -62.045109,388.49632 C -52.329553,375.22826 -43.949664,361.0554 -35.139468,347.18814 C -24.691314,330.74274 -25.474634,332.11866 -14.291657,315.30479 C 10.595626,278.61044 37.400765,243.28514 64.853434,208.48798 C 92.292568,173.97907 122.07542,141.39427 153.50505,110.49041 C 160.64682,103.46811 167.94102,96.602536 175.15901,89.658597 C 205.8653,60.958238 238.36222,34.06564 273.14981,10.425797 C 297.00042,-5.7818429 306.5692,-10.610981 332.78359,-25.790525 C 365.94614,-44.074991 400.47163,-59.802802 436.00123,-72.894646 C 457.23513,-80.718848 462.58192,-82.096684 483.93724,-88.758821 C 511.6624,-96.890856 539.72622,-103.86288 568.04161,-109.61208 C 582.21513,-112.4899 587.40305,-113.30012 601.31359,-115.72377 C 618.42066,-118.74463 635.65998,-120.96911 652.99724,-122.05616 L 619.45499,-97.643004 C 605.25533,-98.460664 591.02474,-98.591485 576.83248,-97.436543 C 563.84592,-96.32449 561.24988,-96.278059 547.82757,-94.342353 C 521.46149,-90.539955 495.42896,-84.702176 469.71893,-77.778408 C 449.84134,-72.00353 443.96472,-70.582561 424.21499,-63.660799 C 390.14895,-51.721546 357.10863,-36.990702 325.37241,-19.79173 C 305.46222,-8.5197431 301.25992,-6.5629186 280.22084,7.6325355 C 246.16881,30.608058 214.54647,57.054987 185.03098,85.581773 C 167.84934,102.71296 162.1036,108.08151 145.79142,125.74255 C 123.65784,149.70637 102.96493,174.96378 82.967515,200.72255 C 56.866341,234.57928 30.430855,268.38957 8.5557588,305.20333 C 5.6898429,310.36011 2.7215083,315.46129 -0.041988778,320.67368 C -8.7816047,337.15796 -15.818116,354.41876 -23.381312,371.44995 C -26.185912,377.18098 -29.333357,382.74128 -32.043337,388.51541 L -77.678676,407.41819 z" />
    <path
       style="opacity:0.4;fill:#ff00ff;fill-opacity:0.96078430999999997;stroke:none;stroke-width:0.70899999000000002;stroke-linecap:round;stroke-linejoin:miter;stroke-miterlimit:3.59999989999999981;stroke-dasharray:none;stroke-opacity:1"
       id="path3303"
       d="M -47.322165,503.34627 C -44.157886,496.68905 -41.833531,489.69598 -39.798433,482.62507 C -38.89349,480.02659 -37.871412,477.46598 -37.083604,474.82963 C -36.192598,471.84792 -35.5084,468.80803 -34.76645,465.78579 C -32.394114,456.12234 -32.424368,455.74289 -30.319152,445.96589 C -28.062703,435.48654 -28.312757,436.7057 -25.997571,426.40467 C -23.256963,414.19554 -19.537272,402.20073 -14.789778,390.61989 C -11.548211,382.71254 -9.921904,379.65499 -6.1776124,371.90538 C 0.55416279,358.49846 7.9219081,345.39479 16.133713,332.83392 C 21.996614,323.86596 24.097433,321.22172 30.452414,312.50544 C 48.017079,289.01337 68.800735,268.24964 89.8301,247.90351 C 112.76091,226.23915 136.62143,205.58296 160.43848,184.90504 C 173.26006,173.78658 185.90075,162.44291 199.11678,151.78799 C 206.57203,145.77748 208.66109,144.3241 216.18407,138.71105 C 240.55925,121.28655 266.92549,106.86601 293.21979,92.565642 C 308.94585,84.233085 325.24299,77.032448 341.53406,69.889467 C 364.30827,59.828647 387.27402,50.217379 410.40482,41.008913 C 434.93923,31.391218 459.93268,23.068567 485.03519,15.083314 C 506.43665,8.2839379 528.21207,2.7875163 549.91441,-2.9415484 C 568.85359,-7.6868408 587.947,-11.793946 607.03866,-15.873432 C 626.10455,-19.97068 645.20509,-23.908319 664.26911,-28.015653 C 680.69375,-31.637464 697.33616,-34.214643 713.99647,-36.48381 C 725.57995,-37.778375 737.18309,-39.233657 748.84825,-39.419763 C 750.42668,-39.440223 752.00518,-39.456556 753.58356,-39.481144 C 756.84729,-39.531988 758.96646,-39.6315 762.20306,-39.519006 C 765.80052,-39.39397 769.36941,-38.943393 772.94407,-38.55287 C 778.33017,-37.797163 783.63764,-36.486715 788.83136,-34.884536 C 791.66261,-34.075488 790.2616,-34.503829 793.03483,-33.60098 L 753.59549,-6.8208259 C 750.93465,-7.7074187 752.27104,-7.2533234 749.58654,-8.183734 C 744.87,-9.745731 740.05367,-11.037438 735.14998,-11.860204 C 727.91401,-13.040868 720.60132,-13.554299 713.26615,-13.467047 C 702.55861,-13.240174 691.84048,-13.053599 681.1693,-12.05564 C 665.33662,-10.610535 649.60983,-8.313366 634.03482,-5.0961637 C 615.2504,-1.4079651 596.53891,2.6464183 577.76196,6.3728224 C 558.56391,10.640123 539.4359,15.205233 520.28932,19.696225 C 499.42426,24.449542 478.65009,29.608912 458.17667,35.865351 C 433.56901,43.372784 409.07686,51.282411 385.17763,60.851828 C 360.97275,70.65092 337.05226,81.124079 313.40916,92.213624 C 296.07266,100.32798 278.75982,108.52884 261.96788,117.73308 C 250.40457,123.97264 223.47741,139.54071 274.65335,109.90496 C 277.30044,108.37204 269.35781,112.96902 266.73656,114.54571 C 258.17791,119.69377 258.10256,119.87605 249.57681,125.50567 C 246.4958,127.65398 243.37798,129.75046 240.33377,131.95061 C 222.35108,144.94726 205.458,159.36647 188.4326,173.56763 C 164.05664,194.0279 139.72979,214.60654 116.84468,236.74305 C 97.143421,256.37765 77.725434,276.43855 61.440856,299.07548 C 59.113547,302.36711 56.725347,305.61652 54.458927,308.95036 C 44.13857,324.13133 35.064354,340.15339 27.168033,356.71916 C 25.78714,359.75319 24.345479,362.76028 23.025356,365.82124 C 16.795309,380.26677 11.917482,395.26132 7.4830901,410.33893 C 2.9447818,427.71652 -1.0356928,445.55537 -0.46722321,463.62554 C -1.3159226,469.68567 -2.432703,475.73931 -2.7580592,481.85386 L -47.322165,503.34627 z" />
    <path
       style="opacity:0.4;fill:#ff00ff;fill-opacity:0.96078430999999997;stroke:none;stroke-width:0.70899999000000002;stroke-linecap:round;stroke-linejoin:miter;stroke-miterlimit:3.59999989999999981;stroke-dasharray:none;stroke-opacity:1"
       id="path3319"
       d="M -109.95248,304.44387 C -107.1743,299.30211 -104.26274,294.25659 -101.06992,289.35999 C -93.824674,278.4052 -84.819431,268.88245 -75.726376,259.47409 C -59.920145,243.44858 -44.015225,227.52108 -28.108242,211.59566 C -17.059568,200.64279 -5.7444137,189.92762 6.3236293,180.09401 C 14.130165,173.73288 16.766074,171.96434 24.909096,165.99967 C 53.378049,146.40342 83.475923,129.22367 114.20303,113.43246 C 135.95369,102.61447 157.74147,91.872976 179.70647,81.496466 C 208.22768,67.998506 237.25718,55.640326 266.47423,43.740346 C 297.96369,30.801316 330.38372,20.394212 362.72498,9.84716 C 379.71885,4.546557 396.55652,-1.283072 413.63089,-6.327016 C 419.75781,-8.136972 425.94587,-9.733606 432.09022,-11.483476 C 437.89711,-13.137239 467.62915,-21.80395 473.09526,-23.395533 C 501.48313,-31.651678 529.83729,-40.074467 558.47206,-47.44859 C 576.78044,-52.163423 582.42329,-53.306766 600.81145,-57.482702 C 621.15265,-61.653784 641.46701,-66.144417 661.97865,-69.433659 C 668.62961,-70.500205 675.3243,-71.27376 681.99273,-72.224942 C 701.36856,-74.988699 702.88527,-75.275247 722.09189,-78.229698 L 702.92025,-63.884688 C 692.31641,-62.520623 674.39382,-60.27147 663.94662,-58.693107 C 657.01566,-57.645976 650.11185,-56.426384 643.19531,-55.287801 C 623.32241,-52.016372 603.44874,-48.714436 583.74748,-44.501747 C 576.8349,-42.978985 569.90471,-41.534063 563.00974,-39.933461 C 527.25011,-31.632199 492.00278,-21.287613 456.82497,-10.840399 C 439.11684,-5.468414 431.70809,-3.319953 414.12448,2.409493 C 407.19862,4.666215 400.31999,7.065756 393.40115,9.343914 C 376.06279,15.0529 358.65173,20.54407 341.36969,26.425283 C 308.99332,37.182836 276.51635,47.754436 244.9316,60.709226 C 214.41114,73.276576 184.21336,86.608766 154.71244,101.43502 C 132.08141,112.61444 109.54521,123.98566 86.971633,135.28039 C 77.924041,140.01147 41.991383,159.65527 86.614023,134.58463 C 89.980203,132.69338 79.958165,138.50128 76.672684,140.52947 C 68.903433,145.32558 64.794933,148.15485 57.194233,153.21479 C 48.991669,159.1406 46.566666,160.74725 38.651741,167.04475 C 26.417262,176.77909 14.91786,187.38325 3.7999773,198.36587 C -10.972605,213.32902 -25.758388,228.31623 -39.473285,244.26809 C -46.74812,252.75366 -53.816537,261.43171 -59.606748,271.02511 C -61.850541,274.99347 -64.145919,279.01138 -65.018904,283.54406 L -109.95248,304.44387 z" />
  </g>
</svg>
