<?xml version="1.0" encoding="UTF-8" standalone="no"?>
<!-- Created with Inkscape (http://www.inkscape.org/) -->

<svg
   xmlns:dc="http://purl.org/dc/elements/1.1/"
   xmlns:cc="http://creativecommons.org/ns#"
   xmlns:rdf="http://www.w3.org/1999/02/22-rdf-syntax-ns#"
   xmlns:svg="http://www.w3.org/2000/svg"
   xmlns="http://www.w3.org/2000/svg"
   xmlns:xlink="http://www.w3.org/1999/xlink"
   xmlns:sodipodi="http://sodipodi.sourceforge.net/DTD/sodipodi-0.dtd"
   xmlns:inkscape="http://www.inkscape.org/namespaces/inkscape"
   width="343.82611"
   height="300"
   id="svg3943"
   version="1.1"
   inkscape:version="0.47 r22583"
   sodipodi:docname="New document 8">
  <defs
     id="defs3945">
    <inkscape:perspective
       sodipodi:type="inkscape:persp3d"
       inkscape:vp_x="0 : 526.18109 : 1"
       inkscape:vp_y="0 : 1000 : 0"
       inkscape:vp_z="744.09448 : 526.18109 : 1"
       inkscape:persp3d-origin="372.04724 : 350.78739 : 1"
       id="perspective3951" />
    <inkscape:perspective
       id="perspective3931"
       inkscape:persp3d-origin="0.5 : 0.33333333 : 1"
       inkscape:vp_z="1 : 0.5 : 1"
       inkscape:vp_y="0 : 1000 : 0"
       inkscape:vp_x="0 : 0.5 : 1"
       sodipodi:type="inkscape:persp3d" />
    <linearGradient
       inkscape:collect="always"
       xlink:href="#linearGradient3709"
       id="linearGradient3738"
       x1="100.00018"
       y1="34.88868"
       x2="100.00018"
       y2="165.04993"
       gradientUnits="userSpaceOnUse" />
    <linearGradient
       id="linearGradient3709">
      <stop
         style="stop-color:#ffffff;stop-opacity:1;"
         offset="0"
         id="stop3711" />
      <stop
         id="stop3740"
         offset="0.6038298"
         style="stop-color:#d7d7d7;stop-opacity:1;" />
      <stop
         style="stop-color:#606060;stop-opacity:1;"
         offset="1"
         id="stop3713" />
    </linearGradient>
  </defs>
  <sodipodi:namedview
     id="base"
     pagecolor="#ffffff"
     bordercolor="#666666"
     borderopacity="1.0"
     inkscape:pageopacity="0.0"
     inkscape:pageshadow="2"
     inkscape:zoom="0.7"
     inkscape:cx="142.01009"
     inkscape:cy="225.37439"
     inkscape:document-units="px"
     inkscape:current-layer="layer1"
     showgrid="false"
     inkscape:window-width="960"
     inkscape:window-height="725"
     inkscape:window-x="177"
     inkscape:window-y="179"
     inkscape:window-maximized="0" />
  <metadata
     id="metadata3948">
    <rdf:RDF>
      <cc:Work
         rdf:about="">
        <dc:format>image/svg+xml</dc:format>
        <dc:type
           rdf:resource="http://purl.org/dc/dcmitype/StillImage" />
        <dc:title></dc:title>
      </cc:Work>
    </rdf:RDF>
  </metadata>
  <g
     inkscape:label="Layer 1"
     inkscape:groupmode="layer"
     id="layer1"
     transform="translate(0,-752.3622)">
    <path
       d="m 49.442357,990.65214 c -3.469672,-3.96524 -7.187138,-8.05447 -11.152396,-12.26771 -3.96535,-4.46077 -4.515582,-6.41043 -4.515559,-10.62366 -2.3e-5,-2.72616 1.50176,-7.53957 5.095317,-9.77019 3.593534,-2.23039 7.226873,-3.39779 13.174887,-3.39802 14.869815,2.3e-4 23.33625,1.47948 38.454042,11.64033 13.084072,5.55327 17.042532,6.63239 24.382112,9.78702 7.39248,3.17744 9.50318,4.02585 15.38758,6.68793 1.10281,0.39551 5.79331,-0.93484 6.79437,-1.08535 1.00103,-0.14981 1.38151,-0.6843 3.11645,-2.41938 2.03033,-5.7282 3.13608,-4.66729 4.05872,-5.65145 0.9912,-0.49554 1.48685,-0.86731 1.48699,-1.11508 -1.4e-4,-0.24777 -0.37189,-0.49554 -1.11524,-0.74354 -0.49579,-0.49554 -0.74363,-0.99131 -0.74349,-1.48708 -1.4e-4,-0.49553 0.12377,-0.8673 0.37174,-1.11507 -1.4e-4,-23.79187 0.12377,-47.70751 0.37175,-71.74729 0.49552,-27.50911 3.71733,-49.07043 9.66543,-64.68401 1.48683,-7.18689 5.57606,-13.13483 12.26766,-17.84386 1.23899,-0.24761 2.47813,-0.37151 3.71747,-0.37174 5.4521,2.3e-4 10.1609,2.60245 14.12639,7.80667 0.49547,2.72639 2.23029,5.94818 5.20445,9.66543 1.23896,9.66565 3.22162,23.91594 5.94797,42.75092 l 0,51.30112 c -0.99152,1.1e-4 -1.36327,0.6197 -1.11524,1.85873 -2.1e-4,1.98276 -2.1e-4,2.97409 0,2.97397 0.24763,3.96533 -0.24803,9.29387 -1.48699,15.98503 0.99112,2.3e-4 1.48678,0.61977 1.48699,1.85885 -2.1e-4,1.73485 -2.1e-4,2.60239 0,2.60216 -0.99152,1.23931 -1.4872,3.22192 -1.48699,5.94808 0.24763,4.46101 0.24763,6.81539 0,7.06316 0.99112,5.70008 7.80647,10.16109 20.44608,13.38278 10.16086,-1.48684 21.31328,-6.93916 33.45724,-16.3567 15.3653,-11.64817 25.65028,-18.71133 30.85503,-21.18972 8.33499,-0.99361 14.29125,0.0323 18.75221,2.38735 4.46096,2.35439 6.33984,7.1383 6.34014,8.62514 -3e-4,5.45255 -2.78784,5.59245 -7.2485,14.26646 -7.18739,14.37409 -17.10064,24.65918 -29.73977,30.85503 -1.98291,2.47816 -4.95688,4.83255 -8.92194,7.06315 -3.96555,2.2304 -7.68302,4.337 -11.15241,6.3196 -5.20469,3.4697 -18.21584,11.1524 -39.03344,23.0484 -7.68297,6.1958 -12.26786,9.7893 -13.75464,10.7806 -5.4525,3.9652 -11.1526,6.6914 -17.10039,8.1785 -3.71762,0.4957 -7.31118,0.7435 -10.78065,0.7435 -14.6222,0 -28.99641,-4.0892 -43.12266,-12.2677 -6.69158,-3.7175 -18.46356,-12.2677 -35.315991,-25.6505 C 71.994964,1002.7958 59.603398,994.86537 49.442357,990.65214 M 0,927.08337 l 9.2936862,0 c 0.4956544,0.74361 2.2304558,1.85884 5.2044518,3.34572 2.973949,1.23928 4.460935,1.25873 6.530007,4.03698 6.498154,5.29097 10.093993,6.33921 13.811504,12.53483 -0.991354,3.71747 -5.982079,8.00008 -12.425654,9.98247 C 11.261553,954.25744 5.7001057,944.92725 0,927.08337 m 303.24223,8.3399 c 1.98234,-13.87844 14.973,-20.97917 33.56068,-25.44029 5.69978,0.24798 7.93026,3.22195 6.69143,8.92194 -0.99165,3.46977 -3.59388,7.68291 -7.80667,12.63941 -8.42661,9.91345 -15.85472,11.13778 -26.26332,9.40293 l -6.42085,-6.47889 M 163.94049,798.83061 c -1.6e-4,-0.99108 -0.61974,-3.84114 -1.85873,-8.5502 -0.74365,-3.46937 -0.86758,-6.56725 -0.37174,-9.29368 0.24765,2.8e-4 0.6194,-0.24756 1.11524,-0.74349 -0.49584,-2.47805 -0.248,-6.07158 0.74349,-10.78065 1.23898,-7.6825 1.85857,-11.6478 1.85873,-11.89592 0.74333,-3.46935 2.97381,-5.20417 6.69144,-5.20447 1.73464,3e-4 2.97381,0.86772 3.71746,2.60223 0.99115,0.49597 1.3629,2.23077 1.11524,5.20447 -1.6e-4,2.72643 0.86724,4.08951 2.60225,4.08921 2.2303,15.118 1.98246,27.38564 -0.74349,36.80298 -1.23936,-0.24759 -1.85892,0.372 -1.85876,1.85873 -1.6e-4,1.2394 -0.3719,1.85899 -1.11524,1.85873 -3.71762,-0.24758 -6.19594,-0.61933 -7.43493,-1.11524 -2.72631,-0.99108 -4.2133,-2.60197 -4.46096,-4.8327"
       style="font-size:161.29026794px;font-style:normal;font-variant:normal;font-weight:normal;font-stretch:normal;text-align:start;line-height:125%;text-anchor:start;fill:#000000;fill-opacity:1;stroke:none;font-family:AnimalTracks"
       id="path3793"
       sodipodi:nodetypes="ccszsczczccscsccccscccccscssccccczsccsccccscccccccccccccsccccccccsccccsccc" />
  </g>
</svg>
