<?xml version="1.0" encoding="UTF-8" standalone="no"?>
<!-- Created with Inkscape (http://www.inkscape.org/) -->

<svg
   xmlns:dc="http://purl.org/dc/elements/1.1/"
   xmlns:cc="http://creativecommons.org/ns#"
   xmlns:rdf="http://www.w3.org/1999/02/22-rdf-syntax-ns#"
   xmlns:svg="http://www.w3.org/2000/svg"
   xmlns="http://www.w3.org/2000/svg"
   xmlns:xlink="http://www.w3.org/1999/xlink"
   xmlns:sodipodi="http://sodipodi.sourceforge.net/DTD/sodipodi-0.dtd"
   xmlns:inkscape="http://www.inkscape.org/namespaces/inkscape"
   width="640"
   height="480"
   id="svg2"
   sodipodi:version="0.32"
   inkscape:version="0.47pre1 r21720"
   version="1.0"
   sodipodi:docname="final.svg"
   inkscape:output_extension="org.inkscape.output.svg.inkscape"
   inkscape:export-filename="/home/v00d00/build/sabayon/artwork/5.0/wip/final.png"
   inkscape:export-xdpi="120"
   inkscape:export-ydpi="120"
   style="display:inline;enable-background:new">
  <defs
     id="defs4">
    <linearGradient
       inkscape:collect="always"
       id="linearGradient3595">
      <stop
         style="stop-color:#1c001c;stop-opacity:1;"
         offset="0"
         id="stop3597" />
      <stop
         style="stop-color:#1c001c;stop-opacity:0;"
         offset="1"
         id="stop3599" />
    </linearGradient>
    <linearGradient
       id="linearGradient3585">
      <stop
         style="stop-color:#1b1500;stop-opacity:1;"
         offset="0"
         id="stop3587" />
      <stop
         style="stop-color:#423400;stop-opacity:0;"
         offset="1"
         id="stop3589" />
    </linearGradient>
    <linearGradient
       id="linearGradient3575">
      <stop
         style="stop-color:#191f00;stop-opacity:1;"
         offset="0"
         id="stop3577" />
      <stop
         style="stop-color:#101400;stop-opacity:0;"
         offset="1"
         id="stop3579" />
    </linearGradient>
    <linearGradient
       id="linearGradient3565">
      <stop
         style="stop-color:#140800;stop-opacity:1;"
         offset="0"
         id="stop3567" />
      <stop
         style="stop-color:#341500;stop-opacity:0;"
         offset="1"
         id="stop3569" />
    </linearGradient>
    <linearGradient
       id="linearGradient3460">
      <stop
         style="stop-color:#000000;stop-opacity:1;"
         offset="0"
         id="stop3462" />
      <stop
         style="stop-color:#141414;stop-opacity:1;"
         offset="1"
         id="stop3464" />
    </linearGradient>
    <linearGradient
       id="linearGradient3451">
      <stop
         style="stop-color:#d35fd1;stop-opacity:1;"
         offset="0"
         id="stop3453" />
      <stop
         style="stop-color:#d35f8d;stop-opacity:0;"
         offset="1"
         id="stop3455" />
    </linearGradient>
    <linearGradient
       inkscape:collect="always"
       id="linearGradient3441">
      <stop
         style="stop-color:#5a2ca0;stop-opacity:1;"
         offset="0"
         id="stop3443" />
      <stop
         style="stop-color:#5a2ca0;stop-opacity:0;"
         offset="1"
         id="stop3445" />
    </linearGradient>
    <linearGradient
       inkscape:collect="always"
       id="linearGradient3423">
      <stop
         style="stop-color:#ff6600;stop-opacity:1;"
         offset="0"
         id="stop3425" />
      <stop
         style="stop-color:#ff6600;stop-opacity:0;"
         offset="1"
         id="stop3427" />
    </linearGradient>
    <linearGradient
       inkscape:collect="always"
       id="linearGradient3399">
      <stop
         style="stop-color:#1f1515;stop-opacity:1;"
         offset="0"
         id="stop3401" />
      <stop
         style="stop-color:#1f1515;stop-opacity:0;"
         offset="1"
         id="stop3403" />
    </linearGradient>
    <linearGradient
       id="linearGradient3391">
      <stop
         style="stop-color:#011527;stop-opacity:1;"
         offset="0"
         id="stop3393" />
      <stop
         style="stop-color:#000000;stop-opacity:0;"
         offset="1"
         id="stop3395" />
    </linearGradient>
    <linearGradient
       inkscape:collect="always"
       id="linearGradient3357">
      <stop
         style="stop-color:#2af2ff;stop-opacity:1;"
         offset="0"
         id="stop3359" />
      <stop
         style="stop-color:#2af2ff;stop-opacity:0;"
         offset="1"
         id="stop3361" />
    </linearGradient>
    <linearGradient
       inkscape:collect="always"
       id="linearGradient3345">
      <stop
         style="stop-color:#ffe22a;stop-opacity:1;"
         offset="0"
         id="stop3347" />
      <stop
         style="stop-color:#ffe22a;stop-opacity:0;"
         offset="1"
         id="stop3349" />
    </linearGradient>
    <linearGradient
       inkscape:collect="always"
       id="linearGradient3337">
      <stop
         style="stop-color:#265b30;stop-opacity:1;"
         offset="0"
         id="stop3339" />
      <stop
         style="stop-color:#265b30;stop-opacity:0;"
         offset="1"
         id="stop3341" />
    </linearGradient>
    <linearGradient
       inkscape:collect="always"
       id="linearGradient3329">
      <stop
         style="stop-color:#74a4ec;stop-opacity:1;"
         offset="0"
         id="stop3331" />
      <stop
         style="stop-color:#74a4ec;stop-opacity:0;"
         offset="1"
         id="stop3333" />
    </linearGradient>
    <linearGradient
       inkscape:collect="always"
       id="linearGradient3321">
      <stop
         style="stop-color:#2affa1;stop-opacity:1;"
         offset="0"
         id="stop3323" />
      <stop
         style="stop-color:#2affa1;stop-opacity:0;"
         offset="1"
         id="stop3325" />
    </linearGradient>
    <linearGradient
       inkscape:collect="always"
       id="linearGradient3313">
      <stop
         style="stop-color:#0014ff;stop-opacity:1;"
         offset="0"
         id="stop3315" />
      <stop
         style="stop-color:#0014ff;stop-opacity:0;"
         offset="1"
         id="stop3317" />
    </linearGradient>
    <linearGradient
       inkscape:collect="always"
       id="linearGradient3305">
      <stop
         style="stop-color:#ff2aa0;stop-opacity:1;"
         offset="0"
         id="stop3307" />
      <stop
         style="stop-color:#ff2aa0;stop-opacity:0;"
         offset="1"
         id="stop3309" />
    </linearGradient>
    <linearGradient
       id="linearGradient3185">
      <stop
         id="stop3187"
         offset="0"
         style="stop-color:#151515;stop-opacity:1;" />
      <stop
         id="stop3189"
         offset="1"
         style="stop-color:#151515;stop-opacity:0;" />
    </linearGradient>
    <linearGradient
       id="linearGradient3157">
      <stop
         style="stop-color:#00affe;stop-opacity:1;"
         offset="0"
         id="stop3159" />
      <stop
         style="stop-color:#0022ff;stop-opacity:0;"
         offset="1"
         id="stop3161" />
    </linearGradient>
    <inkscape:perspective
       sodipodi:type="inkscape:persp3d"
       inkscape:vp_x="0 : 526.18109 : 1"
       inkscape:vp_y="0 : 1000 : 0"
       inkscape:vp_z="744.09448 : 526.18109 : 1"
       inkscape:persp3d-origin="372.04724 : 350.78739 : 1"
       id="perspective10" />
    <radialGradient
       inkscape:collect="always"
       xlink:href="#linearGradient3565"
       id="radialGradient3571"
       cx="229.19254"
       cy="742.08075"
       fx="229.19254"
       fy="742.08075"
       r="269.02173"
       gradientTransform="matrix(1,0,0,0.7402598,-142.54658,291.97181)"
       gradientUnits="userSpaceOnUse" />
    <radialGradient
       inkscape:collect="always"
       xlink:href="#linearGradient3585"
       id="radialGradient3591"
       cx="1184.3944"
       cy="225.69875"
       fx="1184.3944"
       fy="225.69875"
       r="270.41925"
       gradientTransform="matrix(1.5736434,0,0,0.9793281,-483.76791,-142.07352)"
       gradientUnits="userSpaceOnUse" />
    <radialGradient
       inkscape:collect="always"
       xlink:href="#linearGradient3595"
       id="radialGradient3652"
       gradientUnits="userSpaceOnUse"
       gradientTransform="matrix(0.53509173,0,0,0.33033722,-433.05701,841.38451)"
       cx="1185.0931"
       cy="294.87579"
       fx="1185.0931"
       fy="294.87579"
       r="273.91306" />
    <radialGradient
       inkscape:collect="always"
       xlink:href="#linearGradient3575"
       id="radialGradient3655"
       gradientUnits="userSpaceOnUse"
       gradientTransform="matrix(0.92411787,0,0,0.41216527,-591.23873,954.08241)"
       cx="347.98138"
       cy="486.33542"
       fx="347.98138"
       fy="486.33542"
       r="258.54037" />
    <radialGradient
       inkscape:collect="always"
       xlink:href="#linearGradient3399"
       id="radialGradient3658"
       gradientUnits="userSpaceOnUse"
       gradientTransform="matrix(0.53509173,0,0,0.28290733,-320.88716,831.23157)"
       cx="417.85715"
       cy="673.60248"
       fx="417.85715"
       fy="673.60248"
       r="584.1615" />
    <radialGradient
       inkscape:collect="always"
       xlink:href="#linearGradient3391"
       id="radialGradient3661"
       gradientUnits="userSpaceOnUse"
       gradientTransform="matrix(0.58117993,0,0,0.33980272,-489.86292,946.78903)"
       cx="1117.3137"
       cy="190.76086"
       fx="1117.3137"
       fy="190.76086"
       r="478.64908" />
    <linearGradient
       inkscape:collect="always"
       xlink:href="#linearGradient3460"
       id="linearGradient3664"
       gradientUnits="userSpaceOnUse"
       spreadMethod="pad"
       x1="0"
       y1="900"
       x2="1440"
       y2="0"
       gradientTransform="matrix(0.53509173,0,0,0.53509173,-433.05701,781.00737)" />
    <radialGradient
       inkscape:collect="always"
       xlink:href="#linearGradient3313"
       id="radialGradient3666"
       gradientUnits="userSpaceOnUse"
       gradientTransform="matrix(-1,0,0,-0.4153196,1259.7848,752.39186)"
       cx="634.08496"
       cy="597.76282"
       fx="634.08496"
       fy="597.76282"
       r="813.87494" />
    <radialGradient
       inkscape:collect="always"
       xlink:href="#linearGradient3357"
       id="radialGradient3668"
       gradientUnits="userSpaceOnUse"
       gradientTransform="matrix(-0.9555243,0.2949125,-0.4083207,-1.3229696,1592.9395,1566.5839)"
       cx="345.31308"
       cy="873.95325"
       fx="345.31308"
       fy="873.95325"
       r="421.76184" />
    <radialGradient
       inkscape:collect="always"
       xlink:href="#linearGradient3337"
       id="radialGradient3670"
       gradientUnits="userSpaceOnUse"
       gradientTransform="matrix(-1,0,0,-2.1211739,1172.7113,1749.6414)"
       cx="304.0575"
       cy="586.09351"
       fx="304.0575"
       fy="586.09351"
       r="322.07428" />
    <radialGradient
       inkscape:collect="always"
       xlink:href="#linearGradient3423"
       id="radialGradient3672"
       gradientUnits="userSpaceOnUse"
       gradientTransform="matrix(1,0,0,1.3349428,-171.89442,-180.00349)"
       cx="924.06964"
       cy="549.93274"
       fx="924.06964"
       fy="549.93274"
       r="438.58167" />
    <radialGradient
       inkscape:collect="always"
       xlink:href="#linearGradient3451"
       id="radialGradient3674"
       gradientUnits="userSpaceOnUse"
       gradientTransform="matrix(0.9742228,-0.2255879,0.1813251,0.7830697,-107.41152,403.82203)"
       cx="869.14502"
       cy="461.91446"
       fx="869.14502"
       fy="461.91446"
       r="520.35028" />
    <radialGradient
       inkscape:collect="always"
       xlink:href="#linearGradient3305"
       id="radialGradient3676"
       gradientUnits="userSpaceOnUse"
       gradientTransform="matrix(1,0,0,0.5201015,100.62112,113.22075)"
       cx="732.10114"
       cy="465.98282"
       fx="732.10114"
       fy="465.98282"
       r="872.61597" />
    <radialGradient
       inkscape:collect="always"
       xlink:href="#linearGradient3345"
       id="radialGradient3678"
       gradientUnits="userSpaceOnUse"
       gradientTransform="matrix(1,0,0,0.7809058,25.15528,-3.6239309)"
       cx="660.16357"
       cy="538.39819"
       fx="660.16357"
       fy="538.39819"
       r="707.15833" />
    <radialGradient
       inkscape:collect="always"
       xlink:href="#linearGradient3329"
       id="radialGradient3680"
       gradientUnits="userSpaceOnUse"
       gradientTransform="matrix(1,0,0,1.2531343,184.47205,-388.86117)"
       cx="479.47125"
       cy="592.12042"
       fx="479.47125"
       fy="592.12042"
       r="507.99747" />
    <radialGradient
       inkscape:collect="always"
       xlink:href="#linearGradient3321"
       id="radialGradient3682"
       gradientUnits="userSpaceOnUse"
       gradientTransform="matrix(1,0,0,3.6189218,166.30435,-1939.2931)"
       cx="418.55823"
       cy="608.15454"
       fx="418.55823"
       fy="608.15454"
       r="188.96323" />
    <radialGradient
       inkscape:collect="always"
       xlink:href="#linearGradient3441"
       id="radialGradient3684"
       gradientUnits="userSpaceOnUse"
       gradientTransform="matrix(-0.9963895,0.08489963,-0.03273373,-0.3841659,1719.7021,566.62331)"
       cx="914.94885"
       cy="458.15579"
       fx="914.94885"
       fy="458.15579"
       r="874.30835" />
    <inkscape:perspective
       id="perspective3775"
       inkscape:persp3d-origin="0.5 : 0.33333333 : 1"
       inkscape:vp_z="1 : 0.5 : 1"
       inkscape:vp_y="0 : 1000 : 0"
       inkscape:vp_x="0 : 0.5 : 1"
       sodipodi:type="inkscape:persp3d" />
  </defs>
  <sodipodi:namedview
     id="base"
     pagecolor="#ffffff"
     bordercolor="#666666"
     borderopacity="1.0"
     gridtolerance="10000"
     guidetolerance="10"
     objecttolerance="10"
     inkscape:pageopacity="0.0"
     inkscape:pageshadow="2"
     inkscape:zoom="1.4744781"
     inkscape:cx="307.87472"
     inkscape:cy="244.56522"
     inkscape:document-units="px"
     inkscape:current-layer="svg2"
     showgrid="false"
     inkscape:showpageshadow="false"
     borderlayer="true"
     inkscape:window-width="1861"
     inkscape:window-height="1054"
     inkscape:window-x="13"
     inkscape:window-y="35"
     inkscape:window-maximized="0" />
  <metadata
     id="metadata7">
    <rdf:RDF>
      <cc:Work
         rdf:about="">
        <dc:format>image/svg+xml</dc:format>
        <dc:type
           rdf:resource="http://purl.org/dc/dcmitype/StillImage" />
        <dc:title></dc:title>
      </cc:Work>
    </rdf:RDF>
  </metadata>
  <g
     inkscape:groupmode="layer"
     id="layer2"
     style="display:inline"
     transform="translate(357.34265,-780.85237)" />
  <g
     inkscape:label="Design"
     inkscape:groupmode="layer"
     id="layer1"
     style="display:inline"
     transform="translate(357.34265,-780.85237)" />
  <g
     inkscape:groupmode="layer"
     id="layer3"
     inkscape:label="Text"
     style="display:inline"
     transform="translate(357.34265,-780.85237)">
    <rect
       style="fill:url(#linearGradient3664);fill-opacity:1;stroke:none;display:inline"
       id="rect2383"
       width="770.5321"
       height="481.58255"
       x="-433.05701"
       y="781.00739" />
    <rect
       style="fill:url(#radialGradient3661);fill-opacity:1;stroke:none;display:inline"
       id="rect3389"
       width="556.36249"
       height="325.29257"
       x="-118.68387"
       y="848.96381"
       transform="matrix(0.9960216,0.08911209,-0.08911209,0.9960216,0,0)" />
    <rect
       style="fill:url(#radialGradient3658);fill-opacity:1;stroke:none;display:inline"
       id="rect3387"
       width="625.15997"
       height="330.52716"
       x="-409.87524"
       y="856.5351" />
    <rect
       style="opacity:0.56569968;fill:url(#radialGradient3655);fill-opacity:1;stroke:none;display:inline"
       id="rect3573"
       width="477.84357"
       height="213.12271"
       x="-508.58472"
       y="1047.9716" />
    <rect
       style="opacity:0.75647673;fill:url(#radialGradient3652);fill-opacity:1;stroke:none;display:inline"
       id="rect3593"
       width="293.13721"
       height="180.96736"
       x="54.507935"
       y="848.30927" />
    <g
       style="display:inline"
       id="g3500"
       transform="matrix(0.53509173,0,0,0.53509173,-453.1136,894.2047)">
      <path
         d="m 20.570725,-98.269761 c -1.16957,4.62986 -1.16569,9.41217 -1.34544,14.14706 -0.4022,10.5943 -0.94908,15.59172 0.33416,27.04775 0.78048,6.96765 2.27415,13.83681 3.41123,20.755209 2.08612,8.0423 3.84405,16.17696 6.25837,24.12691 12.75456,41.9986 32.457248,81.72134 55.903458,118.727132 7.11092,11.22334 14.875327,22.01905 22.312987,33.02858 25.4062,33.50568 26.29997,35.76451 54.30057,68.18094 10.3728,12.00864 20.76149,24.01984 31.7053,35.51052 19.55902,20.5364 56.1362,55.06579 77.00786,73.36067 16.49984,14.46278 33.58292,28.24631 50.37438,42.36946 93.25852,74.92535 193.9369,140.60338 300.78707,194.48743 20.32819,10.25142 41.10554,19.5868 61.65831,29.3802 20.8723,8.87896 41.58658,18.13899 62.61691,26.63689 80.22839,32.41856 163.65476,60.07667 247.3427,82.07997 20.53911,5.40018 41.25311,10.11231 61.87961,15.16846 74.5346,17.17718 149.8399,30.82397 225.4324,42.3993 16.478,2.52324 32.9545,5.07221 49.4802,7.26125 15.7269,2.08322 31.5117,3.7028 47.2676,5.55421 71.4878,6.71508 143.1738,10.9892 214.9124,13.80429 34.8731,0.96402 69.8838,2.14744 104.719,-0.37581 2.8029,-0.40263 5.6057,-0.80527 8.4085,-1.20791 l -48.2648,35.2552 c -2.0489,-0.2786 -4.0978,-0.5573 -6.1467,-0.8359 -28.6914,-4.7929 -57.4194,-9.3279 -86.2509,-13.2131 -63.6947,-9.69876 -127.2621,-20.23869 -190.7806,-31.02467 -127.5496,-20.25933 42.5284,6.57375 -94.4913,-14.41182 -75.595,-11.57791 -150.9025,-25.22784 -225.439,-42.40879 -20.6275,-5.05744 -41.3423,-9.77089 -61.88231,-15.17232 C 908.39121,670.35298 824.96119,642.69053 744.7299,610.26647 723.69843,601.76698 702.9831,592.50524 682.1097,583.62462 661.55579,573.82949 640.7773,564.49233 620.44797,554.23923 513.59221,500.34651 412.90846,434.66047 319.64503,359.72697 302.85247,345.60205 285.76832,331.8167 269.26735,317.3522 241.29216,292.82956 218.42232,269.97218 191.64266,244.35894 179.95563,233.18095 167.99177,222.29011 156.47425,210.93753 127.5681,182.44536 122.63571,176.08445 95.937343,146.38937 74.248273,120.02458 67.257143,112.5043 47.776815,85.112348 24.869165,52.901138 5.0832247,18.633968 -13.301605,-16.314212 c -3.20883,-5.85932 -6.31931,-11.77359 -9.6265,-17.57797 -1.00148,-1.75766 -10.7296,-17.572769 -12.55753,-21.440049 -1.72987,-3.65981 -2.05406,-8.01857 -4.40811,-11.43563 l 60.46447,-31.5019 z"
         id="path3263"
         style="fill:url(#radialGradient3676);fill-opacity:1;stroke:none" />
      <path
         d="m 38.609652,-135.40971 c -0.31931,1.20143 -0.73565,2.38118 -0.95794,3.60428 -3.48624,19.18182 1.1543,40.06695 4.57301,58.819556 2.06857,8.046797 4.0866,16.106753 6.2057,24.140389 3.09544,11.734988 5.47288,23.694208 9.43771,35.164684 10.2049,29.52336 24.6473,58.55547 40.9786,85.0867 15.714978,25.53 48.426298,69.220651 65.786188,92.967301 12.62004,16.096 24.95786,32.41731 37.8601,48.28799 26.60887,32.73082 54.88883,65.06277 83.46292,96.08146 29.85671,32.41103 59.3729,62.79278 91.21222,93.27815 16.18729,15.49893 32.89034,30.45004 49.33551,45.67506 71.16314,63.75584 147.90801,120.98819 227.36764,173.94051 50.41912,33.59956 72.05949,46.25817 123.42606,77.82781 96.75826,58.3728 197.22796,110.61521 300.38233,156.74653 18.2879,8.17848 36.7759,15.90196 55.1639,23.85294 48.0073,19.4262 96.1981,39.0867 146.4097,52.2377 14.1857,3.7155 28.5941,6.5365 42.9704,9.4279 30.6326,6.1609 40.4505,7.204 70.2535,11.5245 l -22.8487,15.7846 c -24.7582,-9.0362 -30.8717,-11.2251 -56.797,-20.8835 -12.2351,-4.5581 -24.39,-9.334 -36.6786,-13.7458 -14.4814,-5.199 -29.1224,-9.9445 -43.6249,-15.0842 -54.89,-19.4531 -44.9397,-16.1381 -100.8509,-38.4844 -18.3886,-7.95193 -36.8772,-15.67639 -55.1657,-23.85576 C 973.35393,810.84846 872.88123,758.60148 776.11994,700.22422 724.75082,668.65166 703.11157,655.99328 652.69003,622.39042 573.22633,569.43272 496.47807,512.19433 425.31158,448.4327 c -16.446,-15.22637 -33.14989,-30.17884 -49.338,-45.67911 -31.83974,-30.48685 -61.35935,-60.87287 -91.21655,-93.28527 -28.57626,-31.02183 -56.85677,-63.35529 -83.46766,-96.08933 -12.90305,-15.87204 -25.24167,-32.1947 -37.8625,-48.29205 -11.54645,-15.79466 -23.338,-31.41301 -34.63933,-47.38397 C 85.692852,56.801809 110.70509,88.228239 67.754912,31.187199 58.869222,19.386339 49.764612,7.7486891 40.505662,-3.7616509 32.970992,-13.128441 24.525792,-21.767695 17.381172,-31.4353 12.559402,-37.959788 8.9278215,-45.285012 4.7011515,-52.209869 c -6.61551,-11.683439 -10.29028,-17.890932 -16.2375695,-29.318144 -1.56061,-2.998582 -6.09381,-12.098427 -7.6619,-15.952771 -0.57504,-1.413434 -0.91086,-2.914196 -1.441,-4.345076 -0.35104,-0.94746 -0.8001,-1.85566 -1.20015,-2.78348 l 60.44912,-30.80037 z"
         id="path3265"
         style="fill:url(#radialGradient3678);fill-opacity:1;stroke:none" />
      <path
         d="m 216.27772,-283.44377 c -2.48738,16.24729 -1.98738,32.92816 -0.63793,49.25131 2.20142,26.62859 4.13514,34.94093 8.56126,62.48725 3.79517,21.48914 11.97135,70.12698 17.31324,89.759415 4.73406,17.39854 11.19762,34.28196 17.12287,51.3117 15.73935,45.23643 27.0411,74.8982 45.85071,119.95788 9.67103,23.167575 19.96937,46.068285 29.95405,69.102435 52.38472,115.71035 112.22915,228.28795 182.16922,334.40409 12.55868,19.05458 25.82589,37.63261 38.73884,56.44891 46.03816,63.81383 95.28621,125.59061 151.02561,181.27047 33.90132,33.86505 40.66052,38.26385 77.05541,68.95215 39.65199,31.3571 82.62492,58.1584 127.09921,82.0768 14.2417,7.6592 28.57499,15.1812 43.2483,21.977 31.24659,14.4717 52.20529,21.3263 84.25899,32.949 34.7279,11.5646 69.9352,21.5387 105.6975,29.341 9.3699,2.0442 18.8038,3.7829 28.2057,5.6744 l -26.6166,18.2143 c -38.7822,-15.4168 -77.8942,-30.0984 -115.8407,-47.5176 -47.01246,-22.5187 -28.4182,-13.2948 -76.89926,-37.8764 -14.42023,-7.3115 -28.9918,-14.3352 -43.22869,-21.9976 -44.47378,-23.9361 -87.46147,-50.7253 -127.11311,-82.0985 C 745.844,769.54994 739.0836,765.14954 705.17888,731.27899 649.43597,675.59229 600.1837,613.80957 554.14179,549.98936 541.22799,531.17159 527.95992,512.59208 515.40038,493.53603 445.45672,387.41355 385.60849,274.82976 333.2203,159.11298 308.57672,102.26235 299.15774,82.317685 277.39723,25.387705 c -7.00317,-18.3217303 -13.45473,-36.85034 -19.98729,-55.34509 -5.99507,-16.97305 -11.03702,-34.29168 -17.59457,-51.05545 -0.95917,-2.45202 -32.87158,-73.522475 -35.66253,-79.744055 -9.71541,-21.75768 -14.3936,-33.14808 -24.94134,-53.64364 -6.59481,-12.81453 -13.79622,-25.66606 -23.26568,-36.62183 l 60.3319,-32.42141 z"
         id="path3267"
         style="fill:url(#radialGradient3680);fill-opacity:1;stroke:none" />
      <path
         d="m 466.06108,-422.27244 c -2.12787,3.88262 -5.67629,10.33246 -7.32377,13.52635 -3.68158,7.1373 -7.76538,14.09392 -10.87822,21.49698 -13.58862,32.31681 -20.46165,66.94605 -27.99219,100.9899 -2.46419,13.98384 -5.23209,27.91755 -7.39256,41.95152 -2.24433,14.57864 -4.04228,29.22389 -5.81887,43.86688 -3.7463,30.8777 -7.53423,65.8404 -8.85126,96.86052 -1.71727,40.447259 -0.22789,63.723639 1.02891,104.44617907 3.65777,47.44221993 4.38694,67.61901993 11.47602,115.15300093 3.27272,21.94437 7.25881,43.78081 11.41729,65.5747 8.04112,42.14217 19.32942,92.7919 29.47051,134.50484 5.17823,21.29942 10.8469,42.47661 16.27036,63.71492 24.00762,87.48507 49.87867,175.18943 89.00178,257.33293 6.83576,14.35248 14.52116,28.28467 21.78174,42.42697 27.73309,50.1225 59.76259,97.8232 95.76242,142.3775 17.62384,21.8116 25.88521,30.5779 44.22049,51.1066 16.88701,17.2673 21.06952,22.2893 38.74139,37.6547 5.47301,4.7587 11.23379,9.1759 16.85069,13.7639 l -34.2686,20.9379 c -4.21601,-5.507 -8.5304,-10.94 -12.64802,-16.5209 -10.68004,-14.4754 -19.92136,-28.1729 -30.16563,-43.0413 -5.83194,-8.8035 -11.80788,-17.5133 -17.49583,-26.4105 -9.14887,-14.311 -30.08516,-48.9166 -38.38908,-62.8172 -22.68757,-37.9788 -44.85814,-76.2906 -64.81517,-115.7943 -16.76416,-34.66066 -25.77829,-52.01647 -40.54622,-87.7699 C 507.0125,524.09761 485.71113,452.41371 466.23491,380.4806 460.81096,359.24136 455.14178,338.06325 449.96305,316.76289 439.82064,275.04674 428.53172,224.39656 420.4889,182.25125 c -4.15946,-21.79603 -8.14684,-43.63457 -11.42067,-65.5811 -7.0911,-47.536081 -7.82175,-67.719601 -11.48182,-115.1641709 -0.55217,-17.8633801 -1.47967,-35.7191001 -1.65652,-53.5901301 -0.16779,-16.95558 0.40046,-33.91046 0.62285,-50.865409 0.46723,-35.62185 0.48445,-58.33976 2.33402,-93.63132 0.74259,-14.16941 1.96843,-28.30937 2.93906,-42.46499 0.9068,-13.22472 1.79548,-26.45068 2.69322,-39.67601 1.50859,-21.63105 3.31653,-44.21876 4.00421,-65.94928 0.24998,-7.89915 0.68471,-15.82106 0.18834,-23.70856 -0.52266,-8.30535 -3.65044,-16.48743 -3.69178,-24.90107 l 61.04127,-28.99165 z"
         id="path3273"
         style="fill:url(#radialGradient3682);fill-opacity:1;stroke:none" />
      <path
         d="m 1637.7276,734.64048 c -5.0019,-1.18716 -8.4706,-5.73727 -13.2681,-7.31558 -8.2412,-2.71127 -16.8938,-4.01029 -25.4454,-5.47272 -40.919,-6.9976 -45.181,-5.67086 -90.6495,-8.97017 -24.607,-1.78553 -49.2027,-3.72266 -73.804,-5.584 C 1260.0339,691.46644 1087.533,658.14439 918.1668,613.56343 878.6878,603.17167 839.53533,591.57676 800.21958,580.58342 650.39663,536.3134 503.06666,483.88045 358.11676,425.67468 c -75.7857,-30.43228 -97.2434,-40.36522 -169.7337,-71.9511 -60.9127,-27.61181 -63.5797,-28.44699 -120.3601,-55.48326 -14.5714,-6.9383 -28.6469,-14.9778 -43.5916,-21.07082 -12.96,-5.28388 -26.6294,-8.62616 -39.9302,-12.98147 -29.8198,-9.76435 -28.6983,-9.45728 -55.9708,-18.71375 -23.5151,-8.17857 -12.5464,-4.2922 -32.9227,-11.6124 l 40.5593,-30.87216 c 12.9844,12.78659 5.8526,6.04727 21.5346,20.06983 17.5704,14.68308 19.5329,16.61729 39.1476,31.5782 9.5457,7.28082 18.537,15.42174 28.8708,21.53255 13.8623,8.19738 28.882,14.25904 43.4095,21.20983 51.5417,24.66058 65.8015,30.75065 120.3575,55.48009 72.4881,31.58366 93.9472,41.51678 169.7303,71.94687 144.9472,58.20229 292.27418,110.63183 442.09418,154.89779 39.31484,10.9922 78.46641,22.58602 117.9445,32.97663 169.36146,44.57581 341.85756,77.89177 516.37906,93.7166 24.5999,1.8597 49.1493,4.59331 73.7998,5.57908 41.1304,1.64481 67.5583,-0.19511 107.727,-5.6307 13.3568,-1.80741 26.6815,-3.99788 39.8375,-6.92882 10.9922,-2.44891 21.5717,-6.49582 32.42,-9.50698 l -51.6917,44.72979 z"
         id="path3439"
         style="fill:url(#radialGradient3684);fill-opacity:1;stroke:none" />
    </g>
    <g
       style="display:inline"
       id="g3483"
       transform="matrix(0.53509173,0,0,0.53509173,-394.72951,708.18859)">
      <path
         d="m 1380.6471,842.14746 c -2.3505,-10.10651 -7.9464,-18.73872 -13.379,-27.42276 -2.5734,-4.11366 -5.1506,-8.22501 -7.7259,-12.33751 -17.6004,-28.01082 -39.6608,-52.80832 -61.3183,-77.67437 -33.1657,-38.0791 -12.1421,-14.43832 -48.4789,-54.63743 -28.3667,-28.99429 -32.6524,-33.89434 -62.615,-62.33769 -11.6079,-11.01927 -23.1635,-22.10625 -35.1811,-32.67709 -19.6921,-17.32138 -60.3917,-50.08787 -80.8676,-65.76541 -15.0042,-11.48807 -30.3694,-22.49686 -45.5541,-33.74529 -88.83157,-62.859 -185.729,-113.43836 -286.16437,-155.0168 -21.76322,-9.00958 -43.86671,-17.17421 -65.80007,-25.76132 -22.34768,-7.81248 -44.54135,-16.08032 -67.04304,-23.43746 C 562.6638,256.99523 515.94386,243.8485 471.16546,232.7146 425.8614,221.44999 384.25769,212.58093 338.28657,204.56541 316.29617,200.73117 294.17624,197.68095 272.12114,194.23872 173.7706,180.5541 74.456597,173.46197 -24.848303,173.02891 c -15.9025,-0.0693 -31.8033,0.3629 -47.705,0.54434 -27.981997,1.74953 -54.574997,3.24385 -82.453897,5.59632 -11.0679,0.93393 -22.1119,2.1317 -33.1679,3.19754 l 22.2343,-16.25602 c 32.243,1.6764 64.5132,2.74054 96.722297,5.04211 15.1685,0.35136 30.3363,0.73801 45.5056,1.0541 17.4110998,0.3628 34.8282,0.46429 52.2354,0.98256 81.866303,2.43746 163.646303,8.59586 244.745043,20.24278 22.0561,3.44359 44.17696,6.49515 66.16828,10.33076 45.96856,8.0176 87.58309,16.89107 132.88446,28.15722 44.78526,11.13781 91.49778,24.28503 135.36027,38.62857 22.50267,7.35862 44.69729,15.62783 67.04593,23.44174 21.93437,8.58862 44.0389,16.75474 65.80311,25.76586 100.44212,41.58647 197.34508,92.17519 286.18161,155.0433 15.1855,11.24972 30.5515,22.25984 45.5565,33.74917 39.0421,29.89442 43.4997,34.93671 80.9198,65.74028 12.6131,10.38287 25.4004,20.5527 38.0352,30.90909 88.1698,72.26992 -14.7585,-11.39332 70.3042,57.59785 20.8032,16.35956 39.5779,30.85056 59.8005,47.74455 26.6039,22.22489 51.9411,46.05987 80.0618,66.4234 4.1803,3.1844 8.4154,6.29821 12.5411,9.5532 8.5407,6.73841 16.548,14.23988 25.6445,20.24972 l -58.9277,35.38011 z"
         id="path3261"
         style="fill:url(#radialGradient3666);fill-opacity:1;stroke:none" />
      <path
         d="m 1424.8991,963.22534 c -0.4886,-2.16522 -0.7968,-4.37908 -1.4659,-6.49548 -1.3165,-4.16415 -10.4722,-27.21914 -10.6937,-27.74603 -3.5803,-8.51566 -7.0928,-17.07185 -11.1445,-25.37364 -13.3807,-27.41581 -22.348,-41.1613 -38.3345,-68.13354 -8.9067,-13.83323 -16.9925,-28.23082 -26.7201,-41.49963 -10.8192,-14.75795 -62.4722,-74.97383 -73.3366,-87.31172 -29.799,-33.84073 -56.2303,-62.41736 -88.0677,-94.46962 -15.8507,-15.95759 -32.2043,-31.40743 -48.3065,-47.11116 C 1037.9712,482.86849 943.00325,407.44019 845.49156,335.78545 827.75175,322.74967 809.76476,310.05369 791.90139,297.1879 728.64623,252.87458 663.89323,210.4255 595.2323,174.88079 c -14.58227,-7.54905 -29.21511,-15.04598 -44.25023,-21.64733 -14.17579,-6.2239 -28.86891,-11.19564 -43.30337,-16.7935 -37.28604,-13.14805 -75.30609,-24.08478 -114.1605,-31.47961 -23.4949,-4.47164 -33.98223,-5.391929 -57.00133,-8.193099 l 22.42318,-26.80526 c 51.23229,19.544095 102.6322,38.873399 152.1436,62.548019 13.42262,6.46745 73.1294,35.13487 85.07587,41.31989 68.66496,35.54932 133.42248,78.00183 196.68212,122.3188 17.86399,12.86642 35.85166,25.56292 53.59206,38.59926 97.51638,71.65876 192.4888,147.09119 281.3516,229.31148 16.1032,15.70473 32.458,31.15564 48.3096,47.11421 31.8396,32.05437 58.2725,60.63228 88.0737,94.47512 13.1154,14.89393 25.9798,30.00855 38.7563,45.19421 11.6932,13.89827 22.5752,28.48443 34.6492,42.05329 10.6454,11.96347 22.3019,22.98738 33.4529,34.48104 18.7732,18.83792 33.9845,34.75523 53.6636,52.23968 6.4029,5.68892 13.0967,11.04547 19.8031,16.37323 3.1005,2.46326 16.9431,12.84618 22.0629,16.00425 1.6315,1.00643 3.4324,1.70799 5.1487,2.56205 l -46.8062,48.66882 z"
         id="path3269"
         style="fill:url(#radialGradient3668);fill-opacity:1;stroke:none" />
      <path
         d="m 1130.0236,1189.6108 c 0.7809,-2.1406 1.7028,-4.2169 2.3426,-6.4217 1.0953,-3.7748 2.001,-7.6254 2.8538,-11.4865 1.5193,-6.879 3.2023,-13.727 4.2606,-20.7255 3.7133,-24.5561 5.202,-47.184 4.9232,-72.3369 -0.181,-16.335 -1.5236,-32.6231 -2.2854,-48.9345 -2.0742,-18.4881 -3.35,-37.12579 -6.2226,-55.46419 -7.015,-44.78375 -16.8869,-81.72436 -28.8895,-125.12862 -12.6971,-45.91543 -27.4383,-94.45088 -42.5034,-139.31145 -8.071,-24.03364 -16.8105,-47.7465 -25.2158,-71.61974 C 1005.882,548.44483 969.73907,460.0162 929.56595,374.20961 904.94421,321.61953 897.0252,307.34514 870.77589,256.23641 833.24548,184.82784 792.10661,116.11936 746.50698,51.571879 736.12769,36.879707 725.74013,22.172394 714.71779,8.1488838 704.22175,-5.2049762 692.90199,-17.621306 681.9941,-30.506346 c -28.13037,-31.9004 -58.22222,-61.22762 -89.9756,-87.940434 -19.24844,-16.19283 -26.20825,-20.95907 -45.43901,-35.26111 l 31.16994,-23.03258 c 36.35231,47.54678 72.67729,95.127714 108.65447,143.070444 9.83803,13.65473 19.62913,27.3568198 29.51407,40.9642998 10.55047,14.5234702 21.41157,28.7339712 31.79168,43.4277722 45.6027,64.553964 86.74476,133.268754 124.27839,204.683554 26.25094,51.11205 34.17045,65.38748 58.79382,117.98092 40.17539,85.81124 76.32044,174.24457 109.72794,263.9861 23.0003,65.32568 27.6287,76.22267 47.7973,142.32603 6.9409,22.74907 13.5715,45.63272 19.9282,68.6188 12.0486,43.56827 20.3805,79.73895 32.0478,123.13576 4.5441,16.9019 9.4534,33.66369 14.1801,50.49559 3.8743,14.4173 7.8024,28.8147 11.6228,43.2521 3.055,11.5447 5.8676,23.1787 9.0033,34.693 3.7442,13.7489 8.1183,27.2512 11.8524,41.0039 0.7867,2.8972 1.3156,5.8876 2.1284,8.7747 0.4513,1.6032 1.1053,3.1167 1.6579,4.675 l -60.7044,35.2633 z"
         id="path3271"
         style="fill:url(#radialGradient3670);fill-opacity:1;stroke:none" />
      <path
         d="m 367.89022,-31.356145 c 1.4228,1.21964 2.76336,2.61155 4.2684,3.65891 2.80444,1.95163 5.76493,3.51563 8.63048,5.31751 4.78278,3.00744 9.53121,6.10292 14.31406,9.11019 7.19677,4.5250495 14.3552,9.1536993 21.62452,13.48656933 9.65496,5.75481997 19.43502,11.16294967 29.14237,16.77296067 11.92462,6.891415 23.83565,13.820882 35.75347,20.731321 13.89439,8.277931 27.66,16.915949 41.68317,24.833782 16.80665,9.489471 34.04537,17.714867 50.79047,27.379217 38.50264,22.221605 78.09963,47.683095 114.43364,75.111885 58.63076,44.26076 66.64687,54.70193 122.11767,107.04961 80.87261,82.62409 151.42592,176.67753 210.41533,285.40197 35.0991,64.69182 41.4174,83.92953 70.2197,151.91411 21.7355,61.24353 28.4855,75.91717 44.8518,138.13818 5.2523,19.96792 9.1817,40.46287 14.0074,60.60466 4.1167,17.18263 8.6715,34.19124 12.8182,51.36216 10.1852,42.17531 9.3451,39.81472 17.4096,79.81261 4.9708,24.1153 7.8684,48.728 10.3864,73.402 l -41.8234,26.8752 c 1.0919,-7.4725 2.3837,-14.9022 3.2758,-22.4176 3.0487,-25.6829 3.0948,-35.1109 4.5807,-62.1174 0.083,-13.77 0.5147,-27.5438 0.2493,-41.31 -0.6279,-32.56838 -2.6679,-73.17456 -8.1266,-104.75147 -3.5546,-20.56208 -8.7519,-40.62944 -14.0026,-60.59374 -16.3618,-62.21035 -23.1115,-76.88382 -44.8423,-138.11662 C 1061.27,642.32506 1054.953,623.0903 1019.8584,558.40821 960.87569,449.6984 890.32928,355.66023 809.46451,273.05078 789.08583,253.82136 769.22119,233.67534 748.32849,215.36253 709.32675,181.17684 670.56758,152.5289 628.56329,124.96181 604.15964,108.94589 549.14612,75.940837 522.10377,63.586678 506.02381,56.240628 489.31556,51.352771 472.92145,45.235812 458.24912,40.736964 443.65571,35.798011 428.90446,31.739282 394.06251,22.152673 358.31492,15.504795 322.56891,16.593335 c -2.9984,0.0913 -5.98357,0.53909 -8.97535,0.808635 l 54.29666,-48.758115 z"
         id="path3421"
         style="fill:url(#radialGradient3672);fill-opacity:1;stroke:none" />
      <path
         d="m 275.48766,266.94628 c 5.83306,2.20698 10.36258,6.97268 16.13006,9.23622 15.64166,6.13883 49.23722,12.93869 63.5206,15.15264 32.34255,5.01313 78.47635,8.54896 110.24583,11.39658 66.59018,6.71003 132.87097,16.34612 198.45181,29.75516 44.57641,9.11434 86.2203,19.05566 129.79605,32.15097 20.81972,6.2567 41.29513,13.60665 61.9427,20.40999 73.40562,26.3261 144.60379,58.67142 212.67039,96.72684 19.4054,10.84947 64.2373,37.88717 83.9031,49.66691 53.7433,31.93692 107.1566,64.43843 159.9156,97.97873 16.3408,10.76874 33.1674,20.95956 48.0673,33.71707 3.8167,3.56741 7.6384,7.3186 10.5029,11.73109 2.9205,4.49856 3.8692,7.37038 6.2389,12.32469 1.1515,2.40723 2.366,4.78377 3.549,7.17566 1.1988,2.50083 2.4447,4.97956 3.5963,7.50245 1.1934,2.61484 2.4651,5.20334 3.4376,7.90813 2.7786,7.72736 3.7244,13.62821 5.7908,21.68089 0.5634,2.19579 5.9576,21.76627 6.5797,24.0274 5.5864,19.45519 9.1632,39.37045 12.5121,59.30326 1.0187,6.27853 2.0406,12.55488 3.1507,18.81781 l -47.9499,39.10255 c 0.021,-7.01344 0,-14.02673 -0.1983,-21.03827 -1.027,-20.86754 -2.5821,-41.80519 -7.7233,-62.13523 -2.6971,-9.98021 -3.333,-13.507 -7.1783,-23.09399 -2.4398,-6.08306 -5.8265,-12.4773 -8.7211,-18.38441 -1.2126,-2.47449 -2.3357,-4.99307 -3.5901,-7.44662 -1.2107,-2.36821 -2.5356,-4.67636 -3.8034,-7.01453 -1.3591,-2.15115 -2.6195,-4.36797 -4.0775,-6.45341 -5.299,-7.58004 -11.9714,-14.15869 -17.2544,-21.76176 -11.7501,-15.11638 -22.5159,-30.97318 -34.4691,-45.93955 -11.0151,-13.47938 -14.6248,-18.24269 -26.9262,-31.6777 -31.6108,-34.52463 -66.5772,-65.77793 -104.2627,-93.56052 -12.8449,-8.64956 -25.4129,-17.72524 -38.5348,-25.94869 -14.2525,-8.93208 -28.8658,-17.28462 -43.5473,-25.4924 C 999.19165,444.71453 927.9993,412.37467 854.59961,386.05441 833.9538,379.25277 813.4801,371.90459 792.66219,365.6495 749.09277,352.55836 707.44414,342.61757 662.87451,333.50648 597.2967,320.10084 531.01907,310.46812 464.43236,303.76036 c -19.97211,-1.78941 -39.8911,-4.32995 -59.9163,-5.36825 -41.06366,-2.12911 -63.98495,-1.05677 -104.06277,3.76262 -12.73685,1.53161 -25.44426,3.45743 -38.00445,6.06792 -7.32735,1.5229 -22.18317,6.12468 -31.86906,9.08814 l 44.90788,-50.36451 z"
         id="path3449"
         style="fill:url(#radialGradient3674);fill-opacity:1;stroke:none;display:inline" />
    </g>
    <g
       id="g3517"
       transform="matrix(0.53509173,0,0,0.53509173,-425.07039,702.65791)">
      <text
         id="text3469"
         y="534.22424"
         x="731.40338"
         style="font-size:29.24276924px;font-style:normal;font-variant:normal;font-weight:normal;font-stretch:normal;fill:#ffffff;fill-opacity:1;stroke:none;font-family:Cicle;-inkscape-font-specification:Cicle"
         xml:space="preserve"><tspan
           y="534.22424"
           x="731.40338"
           id="tspan3471"
           sodipodi:role="line"><tspan
             id="tspan3557"
             style="fill:#4d4d4d">open your</tspan><tspan
             id="tspan3477"
             style="font-size:29.24276924px;fill:#501616"> source,</tspan></tspan></text>
      <text
         id="text3473"
         y="559.72754"
         x="787.52948"
         style="font-size:67.32891846px;font-style:normal;font-variant:normal;font-weight:normal;font-stretch:normal;fill:#ffffff;fill-opacity:1;stroke:none;font-family:Cicle;-inkscape-font-specification:Cicle"
         xml:space="preserve"><tspan
           style="font-size:33.66445923px"
           y="559.72754"
           x="787.52948"
           id="tspan3475"
           sodipodi:role="line"><tspan
             id="tspan3559"
             style="fill:#808080">open your</tspan><tspan
             id="tspan3479"
             style="font-size:33.66445923px;fill:#5500d4"> mind.</tspan></tspan></text>
      <text
         xml:space="preserve"
         style="font-size:40px;font-style:normal;font-weight:normal;fill:#ffffff;fill-opacity:1;stroke:none;display:inline;font-family:Bitstream Vera Sans"
         x="518.66211"
         y="478.21344"
         id="text3213"><tspan
           sodipodi:role="line"
           id="tspan3215"
           x="518.66211"
           y="478.21344"
           style="font-size:144px;font-style:normal;font-variant:normal;font-weight:normal;font-stretch:normal;fill:#ffffff;font-family:Asenine;-inkscape-font-specification:Asenine">sabayon</tspan></text>
    </g>
  </g>
  <g
     inkscape:groupmode="layer"
     id="layer4"
     inkscape:label="Layer"
     style="opacity:0.49350652;display:none"
     sodipodi:insensitive="true">
    <image
       transform="translate(357.34265,-780.85237)"
       style="display:inline"
       y="751.55457"
       x="-355.19476"
       id="image3777"
       height="533"
       width="640"
       xlink:href="file:///home/v00d00/Desktop/Screenshot-test_-Running-_-_Sun_VirtualBox-1.png" />
  </g>
</svg>
