<?xml version="1.0" encoding="UTF-8" standalone="no"?>
<!-- Created with Inkscape (http://www.inkscape.org/) -->
<svg
   xmlns:dc="http://purl.org/dc/elements/1.1/"
   xmlns:cc="http://creativecommons.org/ns#"
   xmlns:rdf="http://www.w3.org/1999/02/22-rdf-syntax-ns#"
   xmlns:svg="http://www.w3.org/2000/svg"
   xmlns="http://www.w3.org/2000/svg"
   xmlns:xlink="http://www.w3.org/1999/xlink"
   xmlns:sodipodi="http://sodipodi.sourceforge.net/DTD/sodipodi-0.dtd"
   xmlns:inkscape="http://www.inkscape.org/namespaces/inkscape"
   width="744"
   height="88"
   id="svg2"
   sodipodi:version="0.32"
   inkscape:version="0.46"
   version="1.0"
   sodipodi:docname="main.svg"
   inkscape:output_extension="org.inkscape.output.svg.inkscape"
   inkscape:export-filename="/home/v00d00/build/sabayon/artwork/5.0/installer/main.png"
   inkscape:export-xdpi="90"
   inkscape:export-ydpi="90">
  <defs
     id="defs4">
    <linearGradient
       inkscape:collect="always"
       id="linearGradient3595">
      <stop
         style="stop-color:#1c001c;stop-opacity:1;"
         offset="0"
         id="stop3597" />
      <stop
         style="stop-color:#1c001c;stop-opacity:0;"
         offset="1"
         id="stop3599" />
    </linearGradient>
    <linearGradient
       id="linearGradient3585">
      <stop
         style="stop-color:#1b1500;stop-opacity:1;"
         offset="0"
         id="stop3587" />
      <stop
         style="stop-color:#423400;stop-opacity:0;"
         offset="1"
         id="stop3589" />
    </linearGradient>
    <linearGradient
       id="linearGradient3575">
      <stop
         style="stop-color:#191f00;stop-opacity:1;"
         offset="0"
         id="stop3577" />
      <stop
         style="stop-color:#101400;stop-opacity:0;"
         offset="1"
         id="stop3579" />
    </linearGradient>
    <linearGradient
       id="linearGradient3565">
      <stop
         style="stop-color:#140800;stop-opacity:1;"
         offset="0"
         id="stop3567" />
      <stop
         style="stop-color:#341500;stop-opacity:0;"
         offset="1"
         id="stop3569" />
    </linearGradient>
    <linearGradient
       id="linearGradient3460">
      <stop
         style="stop-color:#000000;stop-opacity:1;"
         offset="0"
         id="stop3462" />
      <stop
         style="stop-color:#141414;stop-opacity:1;"
         offset="1"
         id="stop3464" />
    </linearGradient>
    <linearGradient
       id="linearGradient3451">
      <stop
         style="stop-color:#d35fd1;stop-opacity:1;"
         offset="0"
         id="stop3453" />
      <stop
         style="stop-color:#d35f8d;stop-opacity:0;"
         offset="1"
         id="stop3455" />
    </linearGradient>
    <linearGradient
       inkscape:collect="always"
       id="linearGradient3441">
      <stop
         style="stop-color:#5a2ca0;stop-opacity:1;"
         offset="0"
         id="stop3443" />
      <stop
         style="stop-color:#5a2ca0;stop-opacity:0;"
         offset="1"
         id="stop3445" />
    </linearGradient>
    <linearGradient
       inkscape:collect="always"
       id="linearGradient3423">
      <stop
         style="stop-color:#ff6600;stop-opacity:1;"
         offset="0"
         id="stop3425" />
      <stop
         style="stop-color:#ff6600;stop-opacity:0;"
         offset="1"
         id="stop3427" />
    </linearGradient>
    <linearGradient
       inkscape:collect="always"
       id="linearGradient3399">
      <stop
         style="stop-color:#1f1515;stop-opacity:1;"
         offset="0"
         id="stop3401" />
      <stop
         style="stop-color:#1f1515;stop-opacity:0;"
         offset="1"
         id="stop3403" />
    </linearGradient>
    <linearGradient
       id="linearGradient3391">
      <stop
         style="stop-color:#011527;stop-opacity:1;"
         offset="0"
         id="stop3393" />
      <stop
         style="stop-color:#000000;stop-opacity:0;"
         offset="1"
         id="stop3395" />
    </linearGradient>
    <linearGradient
       inkscape:collect="always"
       id="linearGradient3357">
      <stop
         style="stop-color:#2af2ff;stop-opacity:1;"
         offset="0"
         id="stop3359" />
      <stop
         style="stop-color:#2af2ff;stop-opacity:0;"
         offset="1"
         id="stop3361" />
    </linearGradient>
    <linearGradient
       inkscape:collect="always"
       id="linearGradient3345">
      <stop
         style="stop-color:#ffe22a;stop-opacity:1;"
         offset="0"
         id="stop3347" />
      <stop
         style="stop-color:#ffe22a;stop-opacity:0;"
         offset="1"
         id="stop3349" />
    </linearGradient>
    <linearGradient
       inkscape:collect="always"
       id="linearGradient3337">
      <stop
         style="stop-color:#265b30;stop-opacity:1;"
         offset="0"
         id="stop3339" />
      <stop
         style="stop-color:#265b30;stop-opacity:0;"
         offset="1"
         id="stop3341" />
    </linearGradient>
    <linearGradient
       inkscape:collect="always"
       id="linearGradient3329">
      <stop
         style="stop-color:#74a4ec;stop-opacity:1;"
         offset="0"
         id="stop3331" />
      <stop
         style="stop-color:#74a4ec;stop-opacity:0;"
         offset="1"
         id="stop3333" />
    </linearGradient>
    <linearGradient
       inkscape:collect="always"
       id="linearGradient3321">
      <stop
         style="stop-color:#2affa1;stop-opacity:1;"
         offset="0"
         id="stop3323" />
      <stop
         style="stop-color:#2affa1;stop-opacity:0;"
         offset="1"
         id="stop3325" />
    </linearGradient>
    <linearGradient
       inkscape:collect="always"
       id="linearGradient3313">
      <stop
         style="stop-color:#0014ff;stop-opacity:1;"
         offset="0"
         id="stop3315" />
      <stop
         style="stop-color:#0014ff;stop-opacity:0;"
         offset="1"
         id="stop3317" />
    </linearGradient>
    <linearGradient
       inkscape:collect="always"
       id="linearGradient3305">
      <stop
         style="stop-color:#ff2aa0;stop-opacity:1;"
         offset="0"
         id="stop3307" />
      <stop
         style="stop-color:#ff2aa0;stop-opacity:0;"
         offset="1"
         id="stop3309" />
    </linearGradient>
    <linearGradient
       id="linearGradient3185">
      <stop
         id="stop3187"
         offset="0"
         style="stop-color:#151515;stop-opacity:1;" />
      <stop
         id="stop3189"
         offset="1"
         style="stop-color:#151515;stop-opacity:0;" />
    </linearGradient>
    <linearGradient
       id="linearGradient3157">
      <stop
         style="stop-color:#00affe;stop-opacity:1;"
         offset="0"
         id="stop3159" />
      <stop
         style="stop-color:#0022ff;stop-opacity:0;"
         offset="1"
         id="stop3161" />
    </linearGradient>
    <inkscape:perspective
       sodipodi:type="inkscape:persp3d"
       inkscape:vp_x="0 : 526.18109 : 1"
       inkscape:vp_y="0 : 1000 : 0"
       inkscape:vp_z="744.09448 : 526.18109 : 1"
       inkscape:persp3d-origin="372.04724 : 350.78739 : 1"
       id="perspective10" />
    <radialGradient
       inkscape:collect="always"
       xlink:href="#linearGradient3565"
       id="radialGradient3571"
       cx="229.19254"
       cy="742.08075"
       fx="229.19254"
       fy="742.08075"
       r="269.02173"
       gradientTransform="matrix(1,0,0,0.7402598,-142.54658,291.97181)"
       gradientUnits="userSpaceOnUse" />
    <radialGradient
       inkscape:collect="always"
       xlink:href="#linearGradient3585"
       id="radialGradient3591"
       cx="1184.3944"
       cy="225.69875"
       fx="1184.3944"
       fy="225.69875"
       r="270.41925"
       gradientTransform="matrix(1.5736434,0,0,0.9793281,-483.76791,-142.07352)"
       gradientUnits="userSpaceOnUse" />
    <radialGradient
       inkscape:collect="always"
       xlink:href="#linearGradient3595"
       id="radialGradient4350"
       gradientUnits="userSpaceOnUse"
       gradientTransform="matrix(0.5165745,0,0,0.2929378,-5.9471995,-115.64324)"
       cx="1185.0931"
       cy="294.87579"
       fx="1185.0931"
       fy="294.87579"
       r="273.91306" />
    <radialGradient
       inkscape:collect="always"
       xlink:href="#linearGradient3575"
       id="radialGradient4353"
       gradientUnits="userSpaceOnUse"
       gradientTransform="matrix(0.8921381,0,0,0.3655017,-153.70518,-30.553766)"
       cx="347.98138"
       cy="486.33542"
       fx="347.98138"
       fy="486.33542"
       r="258.54037" />
    <radialGradient
       inkscape:collect="always"
       xlink:href="#linearGradient3399"
       id="radialGradient4356"
       gradientUnits="userSpaceOnUse"
       gradientTransform="matrix(0.5165745,0,0,0.2508778,107.29068,-139.49595)"
       cx="417.85715"
       cy="673.60248"
       fx="417.85715"
       fy="673.60248"
       r="584.1615" />
    <radialGradient
       inkscape:collect="always"
       xlink:href="#linearGradient3391"
       id="radialGradient4359"
       gradientUnits="userSpaceOnUse"
       gradientTransform="matrix(0.5607197,0,0,0.3015531,-142.45056,-67.723517)"
       cx="1117.3137"
       cy="190.76086"
       fx="1117.3137"
       fy="190.76086"
       r="478.64908" />
    <linearGradient
       inkscape:collect="always"
       xlink:href="#linearGradient3460"
       id="linearGradient4362"
       gradientUnits="userSpaceOnUse"
       spreadMethod="pad"
       x1="0"
       y1="900"
       x2="1440"
       y2="0"
       gradientTransform="matrix(0.5165745,0,0,0.4745109,6.6345235e-2,-184.03398)" />
    <radialGradient
       inkscape:collect="always"
       xlink:href="#linearGradient3313"
       id="radialGradient4765"
       gradientUnits="userSpaceOnUse"
       gradientTransform="matrix(-0.5165745,0,0,-0.1970737,649.77525,172.98416)"
       cx="634.08496"
       cy="597.76282"
       fx="634.08496"
       fy="597.76282"
       r="813.87494" />
    <radialGradient
       inkscape:collect="always"
       xlink:href="#linearGradient3357"
       id="radialGradient4767"
       gradientUnits="userSpaceOnUse"
       gradientTransform="matrix(-0.4935995,0.1399392,-0.2109281,-0.6277635,821.87447,559.32716)"
       cx="345.31308"
       cy="873.95325"
       fx="345.31308"
       fy="873.95325"
       r="421.76184" />
    <radialGradient
       inkscape:collect="always"
       xlink:href="#linearGradient3337"
       id="radialGradient4769"
       gradientUnits="userSpaceOnUse"
       gradientTransform="matrix(-0.5165745,0,0,-1.0065201,604.7953,646.18994)"
       cx="304.0575"
       cy="586.09351"
       fx="304.0575"
       fy="586.09351"
       r="322.07428" />
    <radialGradient
       inkscape:collect="always"
       xlink:href="#linearGradient3423"
       id="radialGradient4771"
       gradientUnits="userSpaceOnUse"
       gradientTransform="matrix(0.5165745,0,0,0.6334449,-89.793726,-269.4476)"
       cx="924.06964"
       cy="549.93274"
       fx="924.06964"
       fy="549.93274"
       r="438.58167" />
    <radialGradient
       inkscape:collect="always"
       xlink:href="#linearGradient3345"
       id="radialGradient4823"
       gradientUnits="userSpaceOnUse"
       gradientTransform="matrix(0.5033062,-0.1163275,8.3443809e-2,0.3610307,-150.3443,-124.89242)"
       cx="660.16357"
       cy="538.39819"
       fx="660.16357"
       fy="538.39819"
       r="707.15833" />
    <radialGradient
       inkscape:collect="always"
       xlink:href="#linearGradient3451"
       id="radialGradient4836"
       gradientUnits="userSpaceOnUse"
       gradientTransform="matrix(0.4662272,-0.2176233,0.1749371,0.3409381,-6.7583667,136.59617)"
       cx="869.14502"
       cy="461.91446"
       fx="869.14502"
       fy="461.91446"
       r="520.35028" />
    <radialGradient
       inkscape:collect="always"
       xlink:href="#linearGradient3441"
       id="radialGradient4839"
       gradientUnits="userSpaceOnUse"
       gradientTransform="matrix(-0.4924171,0.1551585,-5.7525196e-2,-0.1738009,766.18669,-50.178014)"
       cx="914.94885"
       cy="458.15579"
       fx="914.94885"
       fy="458.15579"
       r="874.30835" />
    <radialGradient
       inkscape:collect="always"
       xlink:href="#linearGradient3321"
       id="radialGradient4842"
       gradientUnits="userSpaceOnUse"
       gradientTransform="matrix(0.5033062,-0.1163275,0.3867004,1.6731109,-283.41817,-1028.0181)"
       cx="418.55823"
       cy="608.15454"
       fx="418.55823"
       fy="608.15454"
       r="188.96323" />
    <radialGradient
       inkscape:collect="always"
       xlink:href="#linearGradient3329"
       id="radialGradient4845"
       gradientUnits="userSpaceOnUse"
       gradientTransform="matrix(0.5033062,-0.1163275,0.1339039,0.5793529,-108.60261,-313.33109)"
       cx="479.47125"
       cy="592.12042"
       fx="479.47125"
       fy="592.12042"
       r="507.99747" />
    <radialGradient
       inkscape:collect="always"
       xlink:href="#linearGradient3305"
       id="radialGradient4848"
       gradientUnits="userSpaceOnUse"
       gradientTransform="matrix(0.5033062,-0.1163275,5.5575521e-2,0.2404549,-97.15526,-71.452884)"
       cx="732.10114"
       cy="465.98282"
       fx="732.10114"
       fy="465.98282"
       r="872.61597" />
  </defs>
  <sodipodi:namedview
     id="base"
     pagecolor="#ffffff"
     bordercolor="#666666"
     borderopacity="1.0"
     gridtolerance="10000"
     guidetolerance="10"
     objecttolerance="10"
     inkscape:pageopacity="0.0"
     inkscape:pageshadow="2"
     inkscape:zoom="1.4142136"
     inkscape:cx="483.50578"
     inkscape:cy="174.1672"
     inkscape:document-units="px"
     inkscape:current-layer="layer3"
     showgrid="false"
     inkscape:showpageshadow="false"
     borderlayer="true"
     inkscape:window-width="1861"
     inkscape:window-height="1054"
     inkscape:window-x="0"
     inkscape:window-y="0" />
  <metadata
     id="metadata7">
    <rdf:RDF>
      <cc:Work
         rdf:about="">
        <dc:format>image/svg+xml</dc:format>
        <dc:type
           rdf:resource="http://purl.org/dc/dcmitype/StillImage" />
      </cc:Work>
    </rdf:RDF>
  </metadata>
  <g
     inkscape:groupmode="layer"
     id="layer2"
     style="display:none"
     sodipodi:insensitive="true" />
  <g
     inkscape:label="Design"
     inkscape:groupmode="layer"
     id="layer1"
     style="display:inline"
     sodipodi:insensitive="true" />
  <g
     inkscape:groupmode="layer"
     id="layer3"
     inkscape:label="Text"
     style="display:inline">
    <rect
       style="fill:url(#linearGradient4362);fill-opacity:1;stroke:none;stroke-width:0.70899999;stroke-linecap:round;stroke-linejoin:miter;stroke-miterlimit:3.5999999;stroke-dasharray:none;stroke-opacity:1;display:inline"
       id="rect2383"
       width="743.86731"
       height="427.05981"
       x="0.066345215"
       y="-184.03398" />
    <rect
       style="fill:url(#radialGradient4359);fill-opacity:1;stroke:none;stroke-width:0.70899999;stroke-linecap:round;stroke-linejoin:miter;stroke-miterlimit:3.5999999;stroke-dasharray:none;stroke-opacity:1;display:inline"
       id="rect3389"
       width="536.77594"
       height="288.6763"
       x="215.66127"
       y="-154.53712"
       transform="matrix(0.99664,8.1906693e-2,-9.6940305e-2,0.9952902,0,0)" />
    <rect
       style="fill:url(#radialGradient4356);fill-opacity:1;stroke:none;stroke-width:0.70899999;stroke-linecap:round;stroke-linejoin:miter;stroke-miterlimit:3.5999999;stroke-dasharray:none;stroke-opacity:1;display:inline"
       id="rect3387"
       width="603.52588"
       height="293.10626"
       x="21.382092"
       y="-117.05721" />
    <rect
       style="opacity:0.56569968;fill:url(#radialGradient4353);fill-opacity:1;stroke:none;stroke-width:0.70899999;stroke-linecap:round;stroke-linejoin:miter;stroke-miterlimit:3.5999999;stroke-dasharray:none;stroke-opacity:1;display:inline"
       id="rect3573"
       width="461.30746"
       height="188.99387"
       x="-73.911461"
       y="52.705688" />
    <rect
       style="opacity:0.75647673;fill:url(#radialGradient4350);fill-opacity:1;stroke:none;stroke-width:0.70899999;stroke-linecap:round;stroke-linejoin:miter;stroke-miterlimit:3.5999999;stroke-dasharray:none;stroke-opacity:1;display:inline"
       id="rect3593"
       width="282.99301"
       height="160.479"
       x="464.74521"
       y="-109.50246" />
    <g
       id="g4739"
       transform="matrix(0.9499294,-0.3124645,0.3124645,0.9499294,35.027925,164.78401)">
      <path
         d="M 712.20963,215.57417 C 710.99542,210.77852 708.10473,206.68244 705.29838,202.56177 C 703.96903,200.60979 702.63771,198.65891 701.30738,196.70749 C 692.21546,183.41605 680.81962,171.64936 669.63191,159.85015 C 652.49936,141.7812 663.35961,152.99901 644.58895,133.9241 C 629.93543,120.16599 627.72155,117.84086 612.24363,104.34418 C 606.24729,99.115419 600.27796,93.854526 594.06998,88.838548 C 583.89754,80.619364 562.87316,65.071307 552.29584,57.632144 C 544.54505,52.180929 536.60778,46.957138 528.76375,41.619636 C 482.87562,11.792355 432.82088,-12.208103 380.93853,-31.937525 C 369.69621,-36.212669 358.27811,-40.086875 346.94789,-44.161553 C 335.40365,-47.86866 323.93897,-51.79184 312.31517,-55.282883 C 289.66032,-62.086942 265.52599,-68.325209 242.39461,-73.608366 C 218.99169,-78.953546 197.50027,-83.162012 173.75276,-86.965463 C 162.39308,-88.784852 150.96649,-90.232215 139.57339,-91.86559 C 88.768009,-98.359092 37.464927,-101.72438 -13.833452,-101.92988 C -22.048278,-101.96278 -30.262225,-101.75768 -38.476638,-101.67158 C -52.931424,-100.84141 -66.66869,-100.13234 -81.070219,-99.016066 C -86.787614,-98.572906 -92.492663,-98.004551 -98.20391,-97.498799 L -86.718238,-105.21246 C -70.062326,-104.41699 -53.392364,-103.91204 -36.753966,-102.81992 C -28.918305,-102.6532 -21.083007,-102.46973 -13.246933,-102.31974 C -4.2528028,-102.14759 4.744427,-102.09943 13.736543,-101.8535 C 56.026587,-100.6969 98.27205,-97.774674 140.16559,-92.248084 C 151.55921,-90.614063 162.98628,-89.166064 174.34644,-87.346026 C 198.09262,-83.541587 219.58963,-79.331029 242.99116,-73.985118 C 266.12608,-68.700106 290.25658,-62.461606 312.91482,-55.65544 C 324.53913,-52.163695 336.0043,-48.239865 347.54904,-44.532079 C 358.87978,-40.456685 370.29841,-36.581772 381.54125,-32.305898 C 433.42709,-12.572664 483.48469,11.432235 529.37537,41.263838 C 537.21981,46.601953 545.1575,51.826375 552.9087,57.278187 C 573.07685,71.463415 575.37953,73.856037 594.7098,88.472666 C 601.22541,93.399451 607.831,98.225147 614.35782,103.13937 C 659.90409,137.43223 606.73395,97.733112 650.67518,130.47017 C 661.42158,138.23296 671.12011,145.1091 681.56659,153.12548 C 695.30949,163.67144 708.39804,174.98139 722.92447,184.64411 C 725.08391,186.15514 727.27165,187.63268 729.40289,189.17721 C 733.81479,192.37466 737.95116,195.93419 742.65018,198.78592 L 712.20963,215.57417 z"
         id="path3261"
         style="fill:url(#radialGradient4765);fill-opacity:1;stroke:none;stroke-width:0.70899999;stroke-linecap:round;stroke-linejoin:miter;stroke-miterlimit:3.5999999;stroke-dasharray:none;stroke-opacity:1;display:inline" />
      <path
         d="M 735.06909,273.02694 C 734.81669,271.99952 734.65748,270.94902 734.31184,269.94477 C 733.63177,267.96883 728.90217,257.02899 728.78775,256.77897 C 726.93826,252.7382 725.12379,248.67819 723.03078,244.7389 C 716.11866,231.7298 711.48638,225.20742 703.22816,212.4088 C 698.62719,205.84478 694.45027,199.01297 689.42524,192.71677 C 683.83631,185.71396 657.15369,157.14087 651.54142,151.28641 C 636.14802,135.22861 622.49428,121.66869 606.04789,106.45954 C 597.85982,98.887493 589.41197,91.556375 581.09399,84.104784 C 535.192,45.092382 486.13398,9.3008313 435.76193,-24.700124 C 426.59799,-30.885744 417.30637,-36.910125 408.07861,-43.015082 C 375.40261,-64.042235 341.95286,-84.184787 306.48438,-101.05114 C 298.95155,-104.63325 291.39259,-108.19062 283.62584,-111.32303 C 276.30298,-114.27634 268.71289,-116.63549 261.25642,-119.29173 C 241.9954,-125.53062 222.35521,-130.72022 202.28402,-134.22915 C 190.14715,-136.35099 184.72966,-136.78768 172.83858,-138.11686 L 184.42182,-150.83625 C 210.88712,-141.56237 237.439,-132.3904 263.01533,-121.15654 C 269.94911,-118.08766 300.79211,-104.48466 306.96335,-101.5498 C 342.43392,-84.681258 375.886,-64.537079 408.56432,-43.508194 C 417.7924,-37.402937 427.08438,-31.37831 436.24861,-25.192424 C 486.62309,8.8104385 535.68342,44.603949 581.58768,83.618373 C 589.90618,91.070438 598.35465,98.402063 606.54318,105.97458 C 622.99071,121.18473 636.64527,134.74526 652.03981,150.80405 C 658.81489,157.87139 665.46031,165.04344 672.06033,172.2492 C 678.10074,178.84408 683.7221,185.76537 689.95922,192.20394 C 695.45836,197.88074 701.47981,203.11171 707.24014,208.56557 C 716.93789,217.50437 724.79566,225.05731 734.96138,233.35387 C 738.26896,236.05332 741.7268,238.59507 745.19116,241.12315 C 746.7928,242.29199 753.94353,247.2188 756.58829,248.71734 C 757.43108,249.1949 758.36138,249.5278 759.24798,249.93306 L 735.06909,273.02694 z"
         id="path3269"
         style="fill:url(#radialGradient4767);fill-opacity:1;stroke:none;stroke-width:0.70899999;stroke-linecap:round;stroke-linejoin:miter;stroke-miterlimit:3.5999999;stroke-dasharray:none;stroke-opacity:1;display:inline" />
      <path
         d="M 582.74392,380.44931 C 583.14732,379.43357 583.62355,378.44835 583.95405,377.40214 C 584.51986,375.61096 584.98772,373.78381 585.42825,371.95168 C 586.21308,368.68751 587.08248,365.43806 587.62917,362.1172 C 589.54737,350.46506 590.31639,339.72788 590.17237,327.79255 C 590.07887,320.04142 589.38532,312.31254 588.99179,304.5726 C 587.92031,295.79979 587.26126,286.95601 585.77735,278.25424 C 582.15358,257.00386 577.05401,239.47514 570.85377,218.87934 C 564.29478,197.09197 556.67985,174.06137 548.8976,152.77454 C 544.72833,141.37032 540.21373,130.11831 535.87176,118.79019 C 518.61554,76.20907 499.94502,34.248721 479.19261,-6.4674412 C 466.47365,-31.422007 462.38289,-38.195361 448.82317,-62.44701 C 429.43592,-96.331155 408.18462,-128.93408 384.62902,-159.56256 C 379.26734,-166.53416 373.90139,-173.51294 368.20753,-180.16725 C 362.78555,-186.5038 356.93805,-192.39548 351.30331,-198.50957 C 336.77188,-213.64666 321.2272,-227.56275 304.82421,-240.23827 C 294.88096,-247.92194 291.28569,-250.18358 281.35157,-256.97005 L 297.45317,-267.89926 C 316.23185,-245.33779 334.99641,-222.76012 353.5813,-200.01077 C 358.66337,-193.53146 363.72121,-187.02967 368.82752,-180.57277 C 374.27762,-173.68122 379.88819,-166.93819 385.25029,-159.96582 C 408.80748,-129.33426 430.06042,-96.72834 449.44933,-62.841239 C 463.0099,-38.588014 467.10092,-31.814167 479.82072,-6.8580063 C 500.5743,33.860362 519.24592,75.822941 536.50338,118.40628 C 548.38475,149.40402 550.77566,154.57476 561.19424,185.94153 C 564.77974,196.73621 568.20493,207.59475 571.48864,218.5019 C 577.71264,239.17552 582.01669,256.3389 588.04372,276.93116 C 590.39109,284.95129 592.92711,292.90494 595.3688,300.89186 C 597.37016,307.73303 599.39932,314.56475 601.37284,321.41546 C 602.95098,326.89354 604.40389,332.414 606.02372,337.87766 C 607.95787,344.40167 610.21742,350.80866 612.14636,357.33446 C 612.55275,358.70921 612.82597,360.12819 613.24584,361.49815 C 613.47897,362.25889 613.81681,362.97706 614.10227,363.71649 L 582.74392,380.44931 z"
         id="path3271"
         style="fill:url(#radialGradient4769);fill-opacity:1;stroke:none;stroke-width:0.70899999;stroke-linecap:round;stroke-linejoin:miter;stroke-miterlimit:3.5999999;stroke-dasharray:none;stroke-opacity:1;display:inline" />
      <path
         d="M 189.04525,-198.91281 C 189.78024,-198.33408 190.47274,-197.6736 191.2502,-197.17662 C 192.6989,-196.25055 194.22822,-195.50842 195.70849,-194.6534 C 198.17915,-193.22634 200.63207,-191.7575 203.10277,-190.33052 C 206.82043,-188.18333 210.5183,-185.98699 214.27344,-183.93099 C 219.26095,-181.20027 224.31308,-178.63405 229.32765,-175.97204 C 235.4876,-172.70199 241.64054,-169.41388 247.79698,-166.1348 C 254.97446,-162.20684 262.08543,-158.108 269.32944,-154.3509 C 278.01133,-149.84805 286.91641,-145.94501 295.5665,-141.35917 C 315.45598,-130.81477 335.91078,-118.73302 354.68,-105.71776 C 384.96716,-84.715546 389.10808,-79.761097 417.76288,-54.921552 C 459.5396,-15.715521 495.98564,28.913861 526.45807,80.504793 C 544.58937,111.20177 547.85324,120.33027 562.73178,152.58969 C 573.95978,181.65042 577.44666,188.61322 585.90107,218.13777 C 588.61428,227.61276 590.6441,237.33784 593.13694,246.89534 C 595.26352,255.04868 597.61641,263.11945 599.75849,271.26724 C 605.01991,291.27989 604.58593,290.15976 608.75185,309.1392 C 611.31964,320.58217 612.81646,332.26116 614.1172,343.96925 L 592.5123,356.72182 C 593.07634,353.17604 593.74365,349.65056 594.20449,346.08443 C 595.77937,333.89761 595.80319,329.42392 596.57076,316.60904 C 596.61369,310.07503 596.83664,303.53921 596.69955,297.007 C 596.37519,281.55295 595.32138,262.28487 592.50155,247.30128 C 590.66534,237.54435 587.98054,228.02217 585.26817,218.54889 C 576.81608,189.0294 573.32935,182.06668 562.10378,153.01105 C 547.22757,120.75626 543.96437,111.62916 525.83539,80.936802 C 495.36643,29.352813 458.92395,-15.269324 417.15127,-54.468409 C 406.62417,-63.592978 396.3626,-73.152484 385.56996,-81.842112 C 365.42266,-98.063595 345.40066,-111.65735 323.70232,-124.73824 C 311.09601,-132.33797 282.67743,-147.99923 268.70804,-153.86141 C 260.40154,-157.34719 251.77049,-159.66653 243.30171,-162.56909 C 235.72236,-164.70385 228.18377,-167.04743 220.56365,-168.97334 C 202.56519,-173.5223 184.0989,-176.67679 165.63342,-176.16026 C 164.08452,-176.11694 162.54246,-175.90446 160.99698,-175.77656 L 189.04525,-198.91281 z"
         id="path3421"
         style="fill:url(#radialGradient4771);fill-opacity:1;stroke:none;stroke-width:0.70899999;stroke-linecap:round;stroke-linejoin:miter;stroke-miterlimit:3.5999999;stroke-dasharray:none;stroke-opacity:1;display:inline" />
    </g>
    <path
       style="fill:url(#radialGradient4823);fill-opacity:1;stroke:none;stroke-width:0.70899999;stroke-linecap:round;stroke-linejoin:miter;stroke-miterlimit:3.5999999;stroke-dasharray:none;stroke-opacity:1;display:inline"
       id="path3265"
       d="M -157.65462,-187.38513 C -157.68695,-186.79254 -157.77044,-186.19869 -157.75162,-185.60736 C -157.45659,-176.33362 -152.8893,-167.21776 -149.16482,-158.94569 C -147.26386,-155.4661 -145.38692,-151.97455 -143.46193,-148.50693 C -140.65004,-143.44166 -138.17555,-138.1892 -134.95435,-133.34735 C -126.66343,-120.88513 -116.29225,-109.14296 -105.23761,-98.77674 C -94.600151,-88.80172 -73.467768,-72.40775 -62.192975,-63.448553 C -54.121291,-57.475066 -46.167573,-51.364576 -37.97793,-45.52808 C -21.088066,-33.491209 -3.39975,-21.833141 14.296269,-10.816435 C 32.786627,0.69477431 50.888755,11.307414 70.171202,21.697715 C 79.974505,26.980202 89.978858,31.949422 99.88269,37.075272 C 142.51218,58.272839 187.25392,75.805138 232.90468,91.042878 C 261.87122,100.7116 274.1156,104.0466 303.34209,112.66663 C 358.27856,128.39808 414.42795,140.86356 471.27556,150.19144 C 481.35389,151.84516 491.48431,153.26525 501.5887,154.80213 C 527.82687,158.19875 554.18243,161.68234 580.85949,161.92136 C 588.39626,161.98894 595.94953,161.61705 603.49417,161.28145 C 619.57008,160.56637 624.62295,159.90653 640.08465,158.43708 L 630.27143,168.3926 C 616.84491,167.09501 613.53405,166.79421 599.45363,165.34473 C 592.80857,164.66069 586.18061,163.86664 579.52425,163.25646 C 571.68014,162.53743 563.80416,162.04662 555.95574,161.35746 C 526.2506,158.74905 531.61288,159.12417 501.0846,155.29696 C 490.97981,153.7597 480.84898,152.33924 470.77026,150.68518 C 413.92056,141.35538 357.76916,128.88814 302.8307,113.15498 C 273.6026,104.5339 261.35883,101.19887 232.39071,91.528913 C 186.73733,76.289154 141.99324,58.754458 99.361433,37.554605 C 89.457047,32.428224 79.45213,27.458473 69.648264,22.175464 C 50.365445,11.784527 32.261146,1.1703097 13.770397,-10.341477 C -3.9270575,-21.359379 -21.615808,-33.018084 -38.507039,-45.056206 C -46.69723,-50.893237 -54.651494,-57.004259 -62.723722,-62.978285 C -70.222863,-68.937353 -77.826524,-74.786388 -85.221134,-80.855481 C -113.41856,-103.99839 -97.47167,-92.378841 -125.18389,-113.75394 C -130.9171,-118.1761 -136.74305,-122.49734 -142.63307,-126.74176 C -147.42621,-130.19576 -152.59988,-133.20748 -157.22884,-136.84591 C -160.35285,-139.30143 -162.96338,-142.2656 -165.83065,-144.97544 C -170.40871,-149.6074 -172.92155,-152.04979 -177.13591,-156.64102 C -178.24179,-157.84579 -181.49575,-161.52553 -182.69683,-163.12506 C -183.13729,-163.71163 -183.46667,-164.36641 -183.88639,-164.96627 C -184.16431,-165.36346 -184.48737,-165.73111 -184.78786,-166.11352 L -157.65462,-187.38513 z" />
    <path
       style="fill:url(#radialGradient4848);fill-opacity:1;stroke:none;stroke-width:0.70899999;stroke-linecap:round;stroke-linejoin:miter;stroke-miterlimit:3.5999999;stroke-dasharray:none;stroke-opacity:1;display:inline"
       id="path3263"
       d="M -160.04397,-159.91776 C -160.1379,-157.64121 -159.62494,-155.4307 -159.20946,-153.22074 C -158.27983,-148.27596 -158.02108,-145.90192 -156.15108,-140.75482 C -155.01373,-137.6243 -153.52795,-134.62228 -152.21639,-131.55602 C -150.30707,-128.08055 -148.55306,-124.52421 -146.48842,-121.12961 C -135.58121,-103.1964 -121.42014,-87.123629 -105.66526,-72.742429 C -100.88702,-68.380823 -95.825565,-64.292923 -90.90572,-60.06817 C -74.538367,-47.533161 -73.847159,-46.592822 -56.29042,-34.8632 C -49.78654,-30.51797 -43.274389,-26.173406 -36.538462,-22.134066 C -24.499864,-14.914867 -2.4006968,-3.2060653 10.059035,2.8241337 C 19.908933,7.5912251 29.979792,11.976438 39.94017,16.552588 C 94.88393,40.343775 152.57402,58.996581 212.11016,71.478811 C 223.43689,73.853551 234.89179,75.752536 246.28261,77.889403 C 257.73652,79.566327 269.15163,81.437808 280.64437,82.920182 C 324.48791,88.575264 369.43233,91.657462 413.90417,92.094892 C 424.81867,92.202253 435.74766,91.971176 446.66938,91.909325 C 486.01859,91.180309 525.37845,88.729459 564.6615,85.287519 C 573.2246,84.537221 581.7897,83.799005 590.34109,82.888653 C 598.47915,82.022302 606.59679,80.934868 614.72467,79.957969 C 651.42246,74.746513 687.95918,68.38349 724.36648,61.339799 C 742.02134,57.728791 759.76889,54.203203 777.03205,48.984355 C 778.39974,48.472157 779.76738,47.959972 781.13503,47.447776 L 760.61025,69.361593 C 759.54926,69.471132 758.48825,69.580623 757.42726,69.690162 C 742.47455,70.811893 727.53099,72.05711 712.60476,73.614788 C 679.51045,76.540269 646.39034,79.062053 613.26855,81.464395 C 546.90722,86.935557 635.37579,79.556366 564.17051,85.793409 C 524.88591,89.234453 485.52462,91.684106 446.17406,92.411598 C 435.25169,92.472972 424.32214,92.70353 413.40707,92.595698 C 368.93291,92.156341 323.98618,89.07255 280.1406,83.415263 C 268.64711,81.93229 257.2313,80.060143 245.77665,78.382567 C 234.38508,76.245044 222.9294,74.345363 211.60193,71.969981 C 152.06205,59.484394 94.368396,40.82851 39.4213,17.034125 C 29.460177,12.457285 19.388588,8.0713548 9.5379316,3.3036012 C -7.1625266,-4.7794973 -21.115483,-12.686602 -37.330761,-21.412982 C -44.407341,-25.221303 -51.592569,-28.864663 -58.602491,-32.773418 C -76.195671,-42.583426 -79.357869,-44.95045 -95.968397,-55.573417 C -109.70185,-65.239432 -114.02411,-67.902965 -126.75566,-78.300799 C -141.72715,-90.527994 -155.34716,-104.06885 -168.33476,-118.08754 C -170.57588,-120.42316 -172.77337,-122.79563 -175.05813,-125.09441 C -175.75,-125.79052 -182.33615,-131.97056 -183.66939,-133.54586 C -184.93112,-135.03664 -185.56004,-137.01409 -187.10998,-138.32003 L -160.04397,-159.91776 z" />
    <path
       style="fill:url(#radialGradient4845);fill-opacity:1;stroke:none;stroke-width:0.70899999;stroke-linecap:round;stroke-linejoin:miter;stroke-miterlimit:3.5999999;stroke-dasharray:none;stroke-opacity:1;display:inline"
       id="path3267"
       d="M -81.330226,-268.29407 C -80.846025,-260.49322 -78.811943,-252.83944 -76.388544,-245.44984 C -72.435152,-233.39492 -70.573682,-229.77688 -65.402522,-217.55646 C -61.196162,-208.06302 -51.883833,-186.52774 -47.097403,-178.07262 C -42.855593,-170.57958 -37.798363,-163.52587 -32.996434,-156.3419 C -20.240972,-137.25897 -11.383224,-124.86036 2.8986341,-106.2163 C 10.241692,-96.630402 17.871968,-87.240862 25.358648,-77.753134 C 64.08845,-30.351356 106.23802,14.734313 152.77835,55.658298 C 161.13529,63.006751 169.79792,70.05246 178.30771,77.249538 C 208.29784,101.39663 239.68585,124.22857 273.68952,143.48663 C 294.37092,155.19957 298.2429,156.44695 319.83989,166.40114 C 343.14764,176.28563 367.64004,183.67755 392.58004,189.562 C 400.5664,191.44633 408.5842,193.25656 416.69552,194.69151 C 433.96851,197.74727 445.24961,198.47824 462.62437,200.12296 C 481.33888,201.42973 500.12472,201.94541 518.95782,201.39245 C 523.89219,201.24756 528.82612,200.95398 533.76027,200.73476 L 522.31025,212.25189 C 501.14357,209.63579 479.88945,207.39794 458.92941,203.75887 C 432.8615,198.81679 443.20573,200.9182 416.17824,195.19323 C 408.13918,193.49042 400.0547,191.93828 392.07041,190.05192 C 367.12879,184.15923 342.63026,176.77462 319.32095,166.88263 C 297.72159,156.92608 293.84884,155.6781 273.16514,143.96301 C 239.15897,124.7022 207.76819,101.86801 177.7755,77.718397 C 169.26513,70.520738 160.60191,63.474444 152.24437,56.125414 C 105.70156,15.198914 63.549414,-29.889173 24.817179,-77.293525 C 6.3391247,-100.71015 -0.53269201,-108.83534 -17.56816,-132.62404 C -23.050672,-140.27994 -28.277659,-148.09565 -33.541792,-155.88628 C -38.372805,-163.03592 -42.761032,-170.45621 -47.852789,-177.44366 C -48.597554,-178.4657 -72.253517,-207.61093 -74.323024,-210.16265 C -81.537771,-219.09155 -85.109455,-223.81339 -92.608256,-232.06197 C -97.296763,-237.21926 -102.29453,-242.3231 -108.23125,-246.28665 L -81.330226,-268.29407 z" />
    <path
       style="fill:url(#radialGradient4842);fill-opacity:1;stroke:none;stroke-width:0.70899999;stroke-linecap:round;stroke-linejoin:miter;stroke-miterlimit:3.5999999;stroke-dasharray:none;stroke-opacity:1;display:inline"
       id="path3273"
       d="M 29.552741,-361.53443 C 28.896644,-359.49187 27.799904,-356.09718 27.311996,-354.42893 C 26.221692,-350.70092 24.909647,-347.00966 24.133986,-343.22494 C 20.747969,-326.70341 20.989047,-309.89399 20.836633,-293.27873 C 21.090636,-286.52702 21.18643,-279.76316 21.598648,-273.02361 C 22.026868,-266.0225 22.686874,-259.04251 23.357376,-252.06605 C 24.771285,-237.35478 26.600739,-220.75008 29.252532,-206.25556 C 32.710216,-187.35609 35.947035,-176.76814 40.931003,-158.08737 C 47.841426,-136.57924 50.364419,-127.33586 59.011649,-106.18446 C 63.003694,-96.419781 67.343252,-86.787982 71.765036,-77.195911 C 80.315292,-58.648019 91.408941,-36.544619 100.97026,-18.439453 C 105.85245,-9.1946117 110.96841,-0.063330293 115.9675,9.1247331 C 137.39892,46.778349 159.79164,84.316583 188.26,117.74232 C 193.23412,123.58262 198.59096,129.12977 203.75643,134.82347 C 223.07051,154.77014 244.28823,173.09736 267.16802,189.50807 C 278.3689,197.54194 283.46362,200.63378 294.88548,207.99178 C 305.22991,214.01042 307.87162,215.84566 318.40785,220.89372 C 321.67095,222.45712 325.04238,223.82916 328.35966,225.2969 L 313.34938,238.96335 C 310.63898,236.90777 307.88698,234.89785 305.21821,232.79666 C 298.2961,227.34673 292.18124,222.08908 285.43647,216.40677 C 281.56052,213.01513 277.6221,209.68355 273.80861,206.23183 C 267.67473,200.6798 253.43958,187.11629 247.77481,181.6557 C 232.29778,166.73641 217.04538,151.60304 202.77971,135.66111 C 190.63854,121.58682 184.24711,114.61142 172.99389,99.799706 C 151.28837,71.230476 132.90746,40.567293 115.41853,9.5765782 C 110.4191,0.38814151 105.30278,-8.7435062 100.42024,-17.988725 C 90.857918,-36.095221 79.7639,-58.198754 71.21245,-76.7479 C 66.789951,-86.340849 62.449517,-95.973462 58.456675,-105.73901 C 49.808205,-126.89115 47.283757,-136.13746 40.371921,-157.64642 C 38.185213,-165.84084 35.810425,-173.98805 33.811799,-182.22967 C 31.915566,-190.0491 30.389849,-197.95384 28.690054,-205.81838 C 25.118838,-222.34152 22.699982,-232.84654 19.859796,-249.3778 C 18.719469,-256.01503 17.825518,-262.69485 16.801437,-269.35224 C 15.844707,-275.57181 14.878722,-281.78986 13.917366,-288.00867 C 12.365261,-298.18469 10.86159,-308.83782 8.8856874,-318.96434 C 8.1674341,-322.64538 7.5397494,-326.35843 6.4470966,-329.94726 C 5.2965717,-333.72621 2.8480435,-337.14514 1.9281922,-341.03014 L 29.552741,-361.53443 z" />
    <path
       style="fill:url(#radialGradient4839);fill-opacity:1;stroke:none;stroke-width:0.70899999;stroke-linecap:round;stroke-linejoin:miter;stroke-miterlimit:3.5999999;stroke-dasharray:none;stroke-opacity:1;display:inline"
       id="path3439"
       d="M 742.88191,37.036082 C 740.23757,37.069079 738.00555,35.36897 735.42229,35.197358 C 730.98473,34.902559 726.49102,35.308526 722.03067,35.627196 C 700.68816,37.152045 698.68483,38.261215 675.44771,42.0251 C 662.87206,44.062082 650.2859,46.027656 637.70501,48.02893 C 548.17295,61.011871 457.79154,65.672918 367.78477,64.764055 C 346.80433,64.552189 325.85967,63.746104 304.89712,63.23713 C 224.75981,60.198606 145.00499,53.096166 65.83121,43.047953 C 24.435948,37.794367 12.574769,35.69826 -27.285162,29.527991 C -60.893368,23.848235 -62.324929,23.772357 -93.791822,17.877987 C -101.86709,16.365305 -109.81044,14.285826 -117.98327,13.207362 C -125.07073,12.272106 -132.30776,12.31702 -139.46753,11.850708 C -155.51939,10.805285 -154.92212,10.816789 -169.63764,9.709852 C -182.34686,8.6641622 -176.41097,9.1849595 -187.44869,8.1709854 L -170.33379,-10.820086 C -162.43234,-6.418993 -166.74196,-8.7051119 -157.35072,-4.0464063 C -146.93847,0.69799942 -145.74405,1.3639368 -134.2732,5.9989822 C -128.6908,8.2546453 -123.29552,10.972446 -117.44148,12.59551 C -109.58857,14.772781 -101.38134,15.828023 -93.32683,17.351585 C -64.750461,22.757024 -56.922659,23.913798 -26.821816,29.000427 C 13.03677,35.169924 24.898679,37.26595 66.292391,42.518828 C 145.46444,52.565747 225.21739,59.666958 305.35277,62.703946 C 326.31476,63.212498 347.25884,64.018192 368.23871,64.229615 C 458.24254,65.136653 548.62088,60.47336 638.1496,47.487895 C 650.72961,45.486036 663.37758,43.894078 675.88966,41.482293 C 696.7666,37.458133 709.87132,33.533207 729.50766,26.347481 C 736.03709,23.958108 742.50943,21.395376 748.81774,18.509935 C 754.0885,16.099047 758.9808,12.997384 764.11906,10.343297 L 742.88191,37.036082 z" />
    <path
       style="fill:url(#radialGradient4836);fill-opacity:1;stroke:none;stroke-width:0.70899999;stroke-linecap:round;stroke-linejoin:miter;stroke-miterlimit:3.5999999;stroke-dasharray:none;stroke-opacity:1;display:inline"
       id="path3449"
       d="M 171.3313,28.773664 C 174.50294,29.115457 177.29191,30.791843 180.4366,31.167412 C 188.96511,32.18598 206.60056,31.421626 214.02605,30.783636 C 230.83993,29.338996 254.43718,25.607063 270.73124,23.227921 C 304.96349,18.583855 339.3527,15.328565 373.79277,13.899021 C 397.20226,12.92733 419.22418,12.679102 442.55543,13.664309 C 453.70268,14.135022 464.79346,15.151219 475.91249,15.89468 C 515.67107,19.526754 554.96182,26.198437 593.28658,35.87432 C 604.21276,38.632901 629.66605,45.91787 640.8227,49.076242 C 671.28466,57.589591 701.64086,66.402363 731.77875,75.771489 C 741.15387,78.849247 750.71174,81.603298 759.57416,85.768123 C 761.87632,86.973427 764.20064,88.26313 766.11386,89.969901 C 768.06447,91.709957 768.84882,92.927307 770.5709,94.942133 C 771.40768,95.921104 772.27289,96.878549 773.12389,97.846761 C 773.99448,98.863498 774.88641,99.864535 775.7356,100.89696 C 776.61566,101.96704 777.53231,103.01583 778.31079,104.15319 C 780.53499,107.4025 781.64155,110.02058 783.54205,113.50314 C 784.06025,114.45276 788.86639,122.87315 789.42111,123.84616 C 794.31167,132.19089 798.23994,140.9821 802.05539,149.80791 C 803.239,152.59212 804.42398,155.37495 805.65193,158.14131 L 785.69676,181.7972 C 784.95796,178.55228 784.19738,175.31246 783.34891,172.0938 C 780.60221,162.56572 777.58222,153.06667 772.82225,144.26569 C 770.39835,139.96535 769.70144,138.40881 766.74165,134.42384 C 764.86368,131.89531 762.47588,129.33308 760.38781,126.9388 C 759.51309,125.93585 758.67869,124.9021 757.78517,123.91369 C 756.92276,122.95964 756.00929,122.04666 755.12136,121.11315 C 754.20746,120.27672 753.33621,119.39846 752.37955,118.60391 C 748.90256,115.71591 744.84134,113.45063 741.36995,110.55011 C 733.84078,104.92832 726.72791,98.849715 719.11256,93.320899 C 712.12825,88.370433 709.80248,86.588155 702.17551,81.80783 C 682.57646,69.523504 661.63808,59.141927 639.70202,50.681259 C 632.31285,48.176582 625.01751,45.442691 617.53446,43.167238 C 609.40664,40.695689 601.15917,38.534044 592.89284,36.44726 C 554.57148,26.773372 515.28424,20.103536 475.52926,16.473474 C 464.41132,15.730591 453.32158,14.715014 442.1754,14.244836 C 418.84779,13.260821 396.82355,13.509843 373.41781,14.482248 C 338.97963,15.913013 304.59238,19.169492 270.36211,23.814205 C 260.11882,25.310223 249.822,26.452798 239.63225,28.30225 C 218.73714,32.094744 207.3153,35.256886 187.65886,42.147152 C 181.41198,44.336898 175.22205,46.705469 169.17937,49.373453 C 165.6542,50.929899 158.6689,54.785545 154.11059,57.282358 L 171.3313,28.773664 z" />
    <text
       xml:space="preserve"
       style="font-size:21.2144928px;font-style:normal;font-variant:normal;font-weight:normal;font-stretch:normal;fill:#ffffff;fill-opacity:1;stroke:none;stroke-width:1px;stroke-linecap:butt;stroke-linejoin:miter;stroke-opacity:1;font-family:Cicle;-inkscape-font-specification:Cicle"
       x="393.77789"
       y="-48.48399"
       id="text3469"
       transform="scale(1.0433821,0.9584216)"><tspan
         sodipodi:role="line"
         id="tspan3471"
         x="393.77789"
         y="-48.48399"
         style="fill:#ffffff">open your<tspan
   style="font-size:21.2144928px;fill:#ffffff"
   id="tspan3477">source, </tspan></tspan></text>
    <text
       xml:space="preserve"
       style="font-size:44.48468399px;font-style:normal;font-variant:normal;font-weight:normal;font-stretch:normal;fill:#ffffff;fill-opacity:1;stroke:none;stroke-width:1px;stroke-linecap:butt;stroke-linejoin:miter;stroke-opacity:1;font-family:Cicle;-inkscape-font-specification:Cicle"
       x="524.83368"
       y="-32.502644"
       id="text3473"
       transform="scale(1.0433821,0.9584216)"><tspan
         sodipodi:role="line"
         id="tspan3475"
         x="524.83368"
         y="-32.502644"
         style="font-size:22.242342px"><tspan
   style="fill:#e6e6e6"
   id="tspan3559">op<tspan
   style="fill:#ffffff"
   id="tspan4868">en your</tspan></tspan> mind.</tspan></text>
    <text
       id="text3213"
       y="59.877182"
       x="356.55124"
       style="font-size:19.80384827px;font-style:normal;font-weight:normal;text-align:center;text-anchor:middle;fill:#ffffff;fill-opacity:1;stroke:none;stroke-width:1px;stroke-linecap:butt;stroke-linejoin:miter;stroke-opacity:1;display:inline;font-family:Bitstream Vera Sans"
       xml:space="preserve"
       transform="scale(1.0433821,0.9584216)"><tspan
         style="font-size:71.29385376px;font-style:normal;font-variant:normal;font-weight:normal;font-stretch:normal;text-align:center;text-anchor:middle;fill:#ffffff;font-family:Asenine;-inkscape-font-specification:Asenine"
         y="59.877182"
         x="356.55124"
         sodipodi:role="line"
         id="tspan4856">sabayon</tspan></text>
    <text
       xml:space="preserve"
       style="font-size:25.38140296999999990px;font-style:normal;font-weight:normal;fill:#2a7fff;fill-opacity:1;stroke:none;stroke-width:1px;stroke-linecap:butt;stroke-linejoin:miter;stroke-opacity:1;font-family:Bitstream Vera Sans"
       x="415.86307"
       y="77.600403"
       id="text4864"><tspan
         sodipodi:role="line"
         id="tspan4866"
         x="415.86307"
         y="77.600403"
         style="font-style:normal;font-variant:normal;font-weight:normal;font-stretch:normal;fill:#2a7fff;font-family:Bitstream Vera Sans;-inkscape-font-specification:Bitstream Vera Sans">installer</tspan></text>
  </g>
</svg>
