<?xml version="1.0" encoding="UTF-8" standalone="no"?>
<!-- Created with Inkscape (http://www.inkscape.org/) -->
<svg
   xmlns:dc="http://purl.org/dc/elements/1.1/"
   xmlns:cc="http://creativecommons.org/ns#"
   xmlns:rdf="http://www.w3.org/1999/02/22-rdf-syntax-ns#"
   xmlns:svg="http://www.w3.org/2000/svg"
   xmlns="http://www.w3.org/2000/svg"
   xmlns:xlink="http://www.w3.org/1999/xlink"
   xmlns:sodipodi="http://sodipodi.sourceforge.net/DTD/sodipodi-0.dtd"
   xmlns:inkscape="http://www.inkscape.org/namespaces/inkscape"
   width="1440"
   height="900"
   id="svg2"
   sodipodi:version="0.32"
   inkscape:version="0.46"
   version="1.0"
   sodipodi:docname="inital1.svg"
   inkscape:output_extension="org.inkscape.output.svg.inkscape">
  <defs
     id="defs4">
    <linearGradient
       inkscape:collect="always"
       id="linearGradient3357">
      <stop
         style="stop-color:#2af2ff;stop-opacity:1;"
         offset="0"
         id="stop3359" />
      <stop
         style="stop-color:#2af2ff;stop-opacity:0;"
         offset="1"
         id="stop3361" />
    </linearGradient>
    <linearGradient
       inkscape:collect="always"
       id="linearGradient3345">
      <stop
         style="stop-color:#ffe22a;stop-opacity:1;"
         offset="0"
         id="stop3347" />
      <stop
         style="stop-color:#ffe22a;stop-opacity:0;"
         offset="1"
         id="stop3349" />
    </linearGradient>
    <linearGradient
       inkscape:collect="always"
       id="linearGradient3337">
      <stop
         style="stop-color:#265b30;stop-opacity:1;"
         offset="0"
         id="stop3339" />
      <stop
         style="stop-color:#265b30;stop-opacity:0;"
         offset="1"
         id="stop3341" />
    </linearGradient>
    <linearGradient
       inkscape:collect="always"
       id="linearGradient3329">
      <stop
         style="stop-color:#74a4ec;stop-opacity:1;"
         offset="0"
         id="stop3331" />
      <stop
         style="stop-color:#74a4ec;stop-opacity:0;"
         offset="1"
         id="stop3333" />
    </linearGradient>
    <linearGradient
       inkscape:collect="always"
       id="linearGradient3321">
      <stop
         style="stop-color:#2affa1;stop-opacity:1;"
         offset="0"
         id="stop3323" />
      <stop
         style="stop-color:#2affa1;stop-opacity:0;"
         offset="1"
         id="stop3325" />
    </linearGradient>
    <linearGradient
       inkscape:collect="always"
       id="linearGradient3313">
      <stop
         style="stop-color:#0014ff;stop-opacity:1;"
         offset="0"
         id="stop3315" />
      <stop
         style="stop-color:#0014ff;stop-opacity:0;"
         offset="1"
         id="stop3317" />
    </linearGradient>
    <linearGradient
       inkscape:collect="always"
       id="linearGradient3305">
      <stop
         style="stop-color:#ff2aa0;stop-opacity:1;"
         offset="0"
         id="stop3307" />
      <stop
         style="stop-color:#ff2aa0;stop-opacity:0;"
         offset="1"
         id="stop3309" />
    </linearGradient>
    <linearGradient
       inkscape:collect="always"
       id="linearGradient3297">
      <stop
         style="stop-color:#9a3a4a;stop-opacity:1;"
         offset="0"
         id="stop3299" />
      <stop
         style="stop-color:#9a3a4a;stop-opacity:0;"
         offset="1"
         id="stop3301" />
    </linearGradient>
    <linearGradient
       id="linearGradient3185">
      <stop
         id="stop3187"
         offset="0"
         style="stop-color:#151515;stop-opacity:1;" />
      <stop
         id="stop3189"
         offset="1"
         style="stop-color:#151515;stop-opacity:0;" />
    </linearGradient>
    <linearGradient
       id="linearGradient3157">
      <stop
         style="stop-color:#00affe;stop-opacity:1;"
         offset="0"
         id="stop3159" />
      <stop
         style="stop-color:#0022ff;stop-opacity:0;"
         offset="1"
         id="stop3161" />
    </linearGradient>
    <inkscape:perspective
       sodipodi:type="inkscape:persp3d"
       inkscape:vp_x="0 : 526.18109 : 1"
       inkscape:vp_y="0 : 1000 : 0"
       inkscape:vp_z="744.09448 : 526.18109 : 1"
       inkscape:persp3d-origin="372.04724 : 350.78739 : 1"
       id="perspective10" />
    <radialGradient
       inkscape:collect="always"
       xlink:href="#linearGradient3297"
       id="radialGradient3303"
       cx="251.76022"
       cy="478.73743"
       fx="251.76022"
       fy="478.73743"
       r="76.679472"
       gradientTransform="matrix(-1,0,0,-7.0907552,1217.6508,4168.2232)"
       gradientUnits="userSpaceOnUse" />
    <radialGradient
       inkscape:collect="always"
       xlink:href="#linearGradient3305"
       id="radialGradient3311"
       cx="732.10112"
       cy="465.98282"
       fx="732.10112"
       fy="465.98282"
       r="872.61598"
       gradientTransform="matrix(1,0,0,0.5201015,100.62112,113.22075)"
       gradientUnits="userSpaceOnUse" />
    <radialGradient
       inkscape:collect="always"
       xlink:href="#linearGradient3313"
       id="radialGradient3319"
       cx="634.08495"
       cy="597.76282"
       fx="634.08495"
       fy="597.76282"
       r="813.87495"
       gradientTransform="matrix(-1,0,0,-0.4153196,1259.7848,752.39186)"
       gradientUnits="userSpaceOnUse" />
    <radialGradient
       inkscape:collect="always"
       xlink:href="#linearGradient3321"
       id="radialGradient3327"
       cx="418.55823"
       cy="608.15455"
       fx="418.55823"
       fy="608.15455"
       r="188.96323"
       gradientTransform="matrix(1,0,0,3.6189218,166.30435,-1939.2931)"
       gradientUnits="userSpaceOnUse" />
    <radialGradient
       inkscape:collect="always"
       xlink:href="#linearGradient3329"
       id="radialGradient3335"
       cx="479.47124"
       cy="592.12044"
       fx="479.47124"
       fy="592.12044"
       r="507.99746"
       gradientTransform="matrix(1,0,0,1.2531343,184.47205,-388.86117)"
       gradientUnits="userSpaceOnUse" />
    <radialGradient
       inkscape:collect="always"
       xlink:href="#linearGradient3337"
       id="radialGradient3343"
       cx="304.0575"
       cy="586.09349"
       fx="304.0575"
       fy="586.09349"
       r="322.07429"
       gradientTransform="matrix(-1,0,0,-1.7957407,1153.1461,1536.5468)"
       gradientUnits="userSpaceOnUse" />
    <radialGradient
       inkscape:collect="always"
       xlink:href="#linearGradient3345"
       id="radialGradient3355"
       cx="660.16357"
       cy="538.39819"
       fx="660.16357"
       fy="538.39819"
       r="707.15833"
       gradientTransform="matrix(1,0,0,0.7809058,25.15528,-3.6239309)"
       gradientUnits="userSpaceOnUse" />
    <radialGradient
       inkscape:collect="always"
       xlink:href="#linearGradient3357"
       id="radialGradient3363"
       cx="345.31309"
       cy="873.95327"
       fx="345.31309"
       fy="873.95327"
       r="421.76184"
       gradientTransform="matrix(-1,0,0,-1.3845485,1265.005,1751.3752)"
       gradientUnits="userSpaceOnUse" />
  </defs>
  <sodipodi:namedview
     id="base"
     pagecolor="#ffffff"
     bordercolor="#666666"
     borderopacity="1.0"
     gridtolerance="10000"
     guidetolerance="10"
     objecttolerance="10"
     inkscape:pageopacity="0.0"
     inkscape:pageshadow="2"
     inkscape:zoom="0.71555556"
     inkscape:cx="602.44219"
     inkscape:cy="447.62177"
     inkscape:document-units="px"
     inkscape:current-layer="layer1"
     showgrid="false"
     inkscape:showpageshadow="false"
     borderlayer="true"
     inkscape:window-width="1861"
     inkscape:window-height="1054"
     inkscape:window-x="10"
     inkscape:window-y="24" />
  <metadata
     id="metadata7">
    <rdf:RDF>
      <cc:Work
         rdf:about="">
        <dc:format>image/svg+xml</dc:format>
        <dc:type
           rdf:resource="http://purl.org/dc/dcmitype/StillImage" />
      </cc:Work>
    </rdf:RDF>
  </metadata>
  <g
     inkscape:groupmode="layer"
     id="layer2"
     sodipodi:insensitive="true">
    <rect
       style="opacity:1;fill:#000000;fill-opacity:1;stroke:none;stroke-width:0.70899999;stroke-linecap:round;stroke-linejoin:miter;stroke-miterlimit:3.5999999;stroke-dasharray:none;stroke-opacity:1"
       id="rect2383"
       width="1440"
       height="900"
       x="0"
       y="0" />
  </g>
  <g
     inkscape:label="Layer 1"
     inkscape:groupmode="layer"
     id="layer1">
    <text
       id="text3213"
       y="480.21344"
       x="518.66211"
       style="font-size:40px;font-style:normal;font-weight:normal;fill:#ffffff;fill-opacity:1;stroke:none;stroke-width:1px;stroke-linecap:butt;stroke-linejoin:miter;stroke-opacity:1;font-family:Bitstream Vera Sans"
       xml:space="preserve"><tspan
         style="font-size:144px;font-style:normal;font-variant:normal;font-weight:normal;font-stretch:normal;fill:#ffffff;font-family:Asenine;-inkscape-font-specification:Asenine"
         y="480.21344"
         x="518.66211"
         id="tspan3215"
         sodipodi:role="line">sabayon</tspan></text>
    <path
       style="opacity:1;fill:url(#radialGradient3319);fill-opacity:1;stroke:none;stroke-width:0.70899999;stroke-linecap:round;stroke-linejoin:miter;stroke-miterlimit:3.5999999;stroke-dasharray:none;stroke-opacity:1"
       id="path3261"
       d="M 1380.6471,842.14746 C 1378.2966,832.04095 1372.7007,823.40874 1367.2681,814.7247 C 1364.6947,810.61104 1362.1175,806.49969 1359.5422,802.38719 C 1341.9418,774.37637 1319.8814,749.57887 1298.2239,724.71282 C 1265.0582,686.63372 1286.0818,710.2745 1249.745,670.07539 C 1221.3783,641.0811 1217.0926,636.18105 1187.13,607.7377 C 1175.5221,596.71843 1163.9665,585.63145 1151.9489,575.06061 C 1132.2568,557.73923 1091.5572,524.97274 1071.0813,509.2952 C 1056.0771,497.80713 1040.7119,486.79834 1025.5272,475.54991 C 936.69563,412.69091 839.7982,362.11155 739.36283,320.53311 C 717.59961,311.52353 695.49612,303.3589 673.56276,294.77179 C 651.21508,286.95931 629.02141,278.69147 606.51972,271.33433 C 562.6638,256.99523 515.94386,243.8485 471.16546,232.7146 C 425.8614,221.44999 384.25769,212.58093 338.28657,204.56541 C 316.29617,200.73117 294.17624,197.68095 272.12114,194.23872 C 173.7706,180.5541 74.456597,173.46197 -24.848303,173.02891 C -40.750803,172.95956 -56.651603,173.39181 -72.553303,173.57325 C -100.5353,175.32278 -127.1283,176.8171 -155.0072,179.16957 C -166.0751,180.1035 -177.1191,181.30127 -188.1751,182.36711 L -165.9408,166.11109 C -133.6978,167.78749 -101.4276,168.85163 -69.218503,171.1532 C -54.050003,171.50456 -38.882203,171.89121 -23.712903,172.2073 C -6.3018032,172.5701 11.115297,172.67159 28.522497,173.18986 C 110.3888,175.62732 192.1688,181.78572 273.26754,193.43264 C 295.32364,196.87623 317.4445,199.92779 339.43582,203.7634 C 385.40438,211.781 427.01891,220.65447 472.32028,231.92062 C 517.10554,243.05843 563.81806,256.20565 607.68055,270.54919 C 630.18322,277.90781 652.37784,286.17702 674.72648,293.99093 C 696.66085,302.57955 718.76538,310.74567 740.52959,319.75679 C 840.97171,361.34326 937.87467,411.93198 1026.7112,474.80009 C 1041.8967,486.04981 1057.2627,497.05993 1072.2677,508.54926 C 1111.3098,538.44368 1115.7674,543.48597 1153.1875,574.28954 C 1165.8006,584.67241 1178.5879,594.84224 1191.2227,605.19863 C 1279.3925,677.46855 1176.4642,593.80531 1261.5269,662.79648 C 1282.3301,679.15604 1301.1048,693.64704 1321.3274,710.54103 C 1347.9313,732.76592 1373.2685,756.6009 1401.3892,776.96443 C 1405.5695,780.14883 1409.8046,783.26264 1413.9303,786.51763 C 1422.471,793.25604 1430.4783,800.75751 1439.5748,806.76735 L 1380.6471,842.14746 z" />
    <path
       style="opacity:1;fill:url(#radialGradient3311);fill-opacity:1;stroke:none;stroke-width:0.70899999;stroke-linecap:round;stroke-linejoin:miter;stroke-miterlimit:3.5999999;stroke-dasharray:none;stroke-opacity:1"
       id="path3263"
       d="M 20.570725,-98.269761 C 19.401155,-93.639901 19.405035,-88.857591 19.225285,-84.122701 C 18.823085,-73.528401 18.276205,-68.530981 19.559445,-57.074951 C 20.339925,-50.107301 21.833595,-43.238141 22.970675,-36.319742 C 25.056795,-28.277442 26.814725,-20.142782 29.229045,-12.192832 C 41.983605,29.805768 61.686293,69.528508 85.132503,106.5343 C 92.243423,117.75764 100.00783,128.55335 107.44549,139.56288 C 132.85169,173.06856 133.74546,175.32739 161.74606,207.74382 C 172.11886,219.75246 182.50755,231.76366 193.45136,243.25434 C 213.01038,263.79074 249.58756,298.32013 270.45922,316.61501 C 286.95906,331.07779 304.04214,344.86132 320.8336,358.98447 C 414.09212,433.90982 514.7705,499.58785 621.62067,553.4719 C 641.94886,563.72332 662.72621,573.0587 683.27898,582.8521 C 704.15128,591.73106 724.86556,600.99109 745.89589,609.48899 C 826.12428,641.90755 909.55065,669.56566 993.23859,691.56896 C 1013.7777,696.96914 1034.4917,701.68127 1055.1182,706.73742 C 1129.6528,723.9146 1204.9581,737.56139 1280.5506,749.13672 C 1297.0286,751.65996 1313.5051,754.20893 1330.0308,756.39797 C 1345.7577,758.48119 1361.5425,760.10077 1377.2984,761.95218 C 1448.7862,768.66726 1520.4722,772.94138 1592.2108,775.75647 C 1627.0839,776.72049 1662.0946,777.90391 1696.9298,775.38066 C 1699.7327,774.97803 1702.5355,774.57539 1705.3383,774.17275 L 1657.0735,809.42795 C 1655.0246,809.14935 1652.9757,808.87065 1650.9268,808.59205 C 1622.2354,803.79915 1593.5074,799.26415 1564.6759,795.37895 C 1500.9812,785.68019 1437.4138,775.14026 1373.8953,764.35428 C 1246.3457,744.09495 1416.4237,770.92803 1279.404,749.94246 C 1203.809,738.36455 1128.5015,724.71462 1053.965,707.53367 C 1033.3375,702.47623 1012.6227,697.76278 992.08269,692.36135 C 908.39121,670.35298 824.96119,642.69053 744.7299,610.26647 C 723.69843,601.76698 702.9831,592.50524 682.1097,583.62462 C 661.55579,573.82949 640.7773,564.49233 620.44797,554.23923 C 513.59221,500.34651 412.90846,434.66047 319.64503,359.72697 C 302.85247,345.60205 285.76832,331.8167 269.26735,317.3522 C 241.29216,292.82956 218.42232,269.97218 191.64266,244.35894 C 179.95563,233.18095 167.99177,222.29011 156.47425,210.93753 C 127.5681,182.44536 122.63571,176.08445 95.937343,146.38937 C 74.248273,120.02458 67.257143,112.5043 47.776815,85.112348 C 24.869165,52.901138 5.0832247,18.633968 -13.301605,-16.314212 C -16.510435,-22.173532 -19.620915,-28.087802 -22.928105,-33.892182 C -23.929585,-35.649842 -33.657705,-51.464951 -35.485635,-55.332231 C -37.215505,-58.992041 -37.539695,-63.350801 -39.893745,-66.767861 L 20.570725,-98.269761 z" />
    <path
       style="opacity:1;fill:url(#radialGradient3355);fill-opacity:1;stroke:none;stroke-width:0.70899999;stroke-linecap:round;stroke-linejoin:miter;stroke-miterlimit:3.5999999;stroke-dasharray:none;stroke-opacity:1"
       id="path3265"
       d="M 38.609652,-135.40971 C 38.290342,-134.20828 37.874002,-133.02853 37.651712,-131.80543 C 34.165472,-112.62361 38.806012,-91.73848 42.224722,-72.985874 C 44.293292,-64.939077 46.311322,-56.879121 48.430422,-48.845485 C 51.525862,-37.110497 53.903302,-25.151277 57.868132,-13.680801 C 68.073032,15.842559 82.515432,44.874669 98.846732,71.405899 C 114.56171,96.935899 147.27303,140.62655 164.63292,164.3732 C 177.25296,180.4692 189.59078,196.79051 202.49302,212.66119 C 229.10189,245.39201 257.38185,277.72396 285.95594,308.74265 C 315.81265,341.15368 345.32884,371.53543 377.16816,402.0208 C 393.35545,417.51973 410.0585,432.47084 426.50367,447.69586 C 497.66681,511.4517 574.41168,568.68405 653.87131,621.63637 C 704.29043,655.23593 725.9308,667.89454 777.29737,699.46418 C 874.05563,757.83698 974.52533,810.07939 1077.6797,856.21071 C 1095.9676,864.38919 1114.4556,872.11267 1132.8436,880.06365 C 1180.8509,899.48985 1229.0417,919.15035 1279.2533,932.30135 C 1293.439,936.01685 1307.8474,938.83785 1322.2237,941.72925 C 1352.8563,947.89015 1362.6742,948.93325 1392.4772,953.25375 L 1369.6285,969.03835 C 1344.8703,960.00215 1338.7568,957.81325 1312.8315,948.15485 C 1300.5964,943.59675 1288.4415,938.82085 1276.1529,934.40905 C 1261.6715,929.21005 1247.0305,924.46455 1232.528,919.32485 C 1177.638,899.87175 1187.5883,903.18675 1131.6771,880.84045 C 1113.2885,872.88852 1094.7999,865.16406 1076.5114,856.98469 C 973.35393,810.84846 872.88123,758.60148 776.11994,700.22422 C 724.75082,668.65166 703.11157,655.99328 652.69003,622.39042 C 573.22633,569.43272 496.47807,512.19433 425.31158,448.4327 C 408.86558,433.20633 392.16169,418.25386 375.97358,402.75359 C 344.13384,372.26674 314.61423,341.88072 284.75703,309.46832 C 256.18077,278.44649 227.90026,246.11303 201.28937,213.37899 C 188.38632,197.50695 176.0477,181.18429 163.42687,165.08694 C 151.88042,149.29228 140.08887,133.67393 128.78754,117.70297 C 85.692852,56.801809 110.70509,88.228239 67.754912,31.187199 C 58.869222,19.386339 49.764612,7.7486891 40.505662,-3.7616509 C 32.970992,-13.128441 24.525792,-21.767695 17.381172,-31.4353 C 12.559402,-37.959788 8.9278215,-45.285012 4.7011515,-52.209869 C -1.9143585,-63.893308 -5.5891285,-70.100801 -11.536418,-81.528013 C -13.097028,-84.526595 -17.630228,-93.62644 -19.198318,-97.480784 C -19.773358,-98.894218 -20.109178,-100.39498 -20.639318,-101.82586 C -20.990358,-102.77332 -21.439418,-103.68152 -21.839468,-104.60934 L 38.609652,-135.40971 z" />
    <path
       style="opacity:1;fill:url(#radialGradient3335);fill-opacity:1;stroke:none;stroke-width:0.70899999;stroke-linecap:round;stroke-linejoin:miter;stroke-miterlimit:3.5999999;stroke-dasharray:none;stroke-opacity:1"
       id="path3267"
       d="M 216.27772,-283.44377 C 213.79034,-267.19648 214.29034,-250.51561 215.63979,-234.19246 C 217.84121,-207.56387 219.77493,-199.25153 224.20105,-171.70521 C 227.99622,-150.21607 236.1724,-101.57823 241.51429,-81.945795 C 246.24835,-64.547255 252.71191,-47.663835 258.63716,-30.634095 C 274.37651,14.602335 285.67826,44.264105 304.48787,89.323785 C 314.1589,112.49136 324.45724,135.39207 334.44192,158.42622 C 386.82664,274.13657 446.67107,386.71417 516.61114,492.83031 C 529.16982,511.88489 542.43703,530.46292 555.34998,549.27922 C 601.38814,613.09305 650.63619,674.86983 706.37559,730.54969 C 740.27691,764.41474 747.03611,768.81354 783.431,799.50184 C 823.08299,830.85894 866.05592,857.66024 910.53021,881.57864 C 924.77191,889.23784 939.1052,896.75984 953.77851,903.55564 C 985.0251,918.02734 1005.9838,924.88194 1038.0375,936.50464 C 1072.7654,948.06924 1107.9727,958.04334 1143.735,965.84564 C 1153.1049,967.88984 1162.5388,969.62854 1171.9407,971.52004 L 1145.3241,989.73434 C 1106.5419,974.31754 1067.4299,959.63594 1029.4834,942.21674 C 982.47094,919.69804 1001.0652,928.92194 952.58414,904.34034 C 938.16391,897.02884 923.59234,890.00514 909.35545,882.34274 C 864.88167,858.40664 821.89398,831.61744 782.24234,800.24424 C 745.844,769.54994 739.0836,765.14954 705.17888,731.27899 C 649.43597,675.59229 600.1837,613.80957 554.14179,549.98936 C 541.22799,531.17159 527.95992,512.59208 515.40038,493.53603 C 445.45672,387.41355 385.60849,274.82976 333.2203,159.11298 C 308.57672,102.26235 299.15774,82.317685 277.39723,25.387705 C 270.39406,7.0659747 263.9425,-11.462635 257.40994,-29.957385 C 251.41487,-46.930435 246.37292,-64.249065 239.81537,-81.012835 C 238.8562,-83.464855 206.94379,-154.53531 204.15284,-160.75689 C 194.43743,-182.51457 189.75924,-193.90497 179.2115,-214.40053 C 172.61669,-227.21506 165.41528,-240.06659 155.94582,-251.02236 L 216.27772,-283.44377 z" />
    <path
       style="opacity:1;fill:url(#radialGradient3363);fill-opacity:1;stroke:none;stroke-width:0.70899999;stroke-linecap:round;stroke-linejoin:miter;stroke-miterlimit:3.5999999;stroke-dasharray:none;stroke-opacity:1"
       id="path3269"
       d="M 1282.3763,1125.2943 C 1282.548,1123.0813 1282.9064,1120.875 1282.8912,1118.6554 C 1282.8613,1114.2882 1280.9121,1089.5585 1280.8558,1088.9897 C 1279.9461,1079.7969 1279.1132,1070.5854 1277.6899,1061.4579 C 1272.9896,1031.3153 1268.4749,1015.5366 1261.1538,985.04933 C 1256.7229,969.20467 1253.2427,953.0628 1247.8609,937.51535 C 1241.8752,920.22305 1210.278,847.45223 1203.5354,832.45903 C 1185.0417,791.33526 1168.2135,756.23466 1147.2447,716.21869 C 1136.8052,696.29631 1125.7352,676.71069 1114.9805,656.9567 C 1054.3206,552.1918 985.82122,452.11102 913.77832,354.88575 C 900.67192,337.19805 887.22912,319.76215 873.95452,302.20045 C 826.58123,241.20325 777.22693,181.54565 722.10233,127.33285 C 710.39493,115.81905 698.62383,104.34015 686.20423,93.59835 C 674.49443,83.47065 661.92103,74.38685 649.77943,64.78105 C 618.02923,41.22165 584.92553,19.55875 549.98003,1.0341504 C 528.84883,-10.16755 519.09933,-14.13975 497.93013,-23.60495 L 527.26123,-42.60515 C 570.45113,-8.8212496 613.86453,24.80685 654.19193,62.03005 C 665.11023,72.16835 713.70713,117.16905 723.29823,126.60215 C 778.42533,180.82055 827.78293,240.48275 875.15942,301.48475 C 888.43442,319.04725 901.87772,336.48385 914.98452,354.17225 C 987.03072,451.40274 1055.5331,551.48877 1116.1959,656.25902 C 1126.9514,676.01432 1138.0221,695.60125 1148.4624,715.52493 C 1169.4326,755.54352 1186.2619,790.6458 1204.757,831.77221 C 1212.8966,849.87159 1220.7315,868.1079 1228.4612,886.38607 C 1235.5356,903.1147 1241.632,920.26137 1249.1674,936.78753 C 1255.8111,951.35836 1263.6981,965.32962 1270.9635,979.60066 C 1283.3462,1003.1372 1293.1868,1022.8326 1306.8342,1045.343 C 1311.2746,1052.6672 1316.091,1059.7596 1320.9279,1066.8282 C 1323.1641,1070.0963 1333.329,1084.0998 1337.2897,1088.6273 C 1338.5518,1090.0701 1340.0658,1091.2716 1341.4538,1092.5938 L 1282.3763,1125.2943 z" />
    <path
       style="opacity:1;fill:url(#radialGradient3343);fill-opacity:1;stroke:none;stroke-width:0.70899999;stroke-linecap:round;stroke-linejoin:miter;stroke-miterlimit:3.5999999;stroke-dasharray:none;stroke-opacity:1"
       id="path3271"
       d="M 1110.4584,1062.4368 C 1111.2393,1060.6246 1112.1612,1058.8669 1112.801,1057.0003 C 1113.8963,1053.8047 1114.802,1050.5448 1115.6548,1047.2761 C 1117.1741,1041.4525 1118.8571,1035.6551 1119.9154,1029.7303 C 1123.6287,1008.9417 1125.1174,989.78537 1124.8386,968.49147 C 1124.6576,954.66267 1123.315,940.87347 1122.5532,927.06457 C 1120.479,911.41297 1119.2032,895.63467 1116.3306,880.10976 C 1109.3156,842.19685 1099.4437,810.92371 1087.4411,774.17859 C 1074.744,735.30756 1060.0028,694.21848 1044.9377,656.24048 C 1036.8667,635.89411 1028.1272,615.81931 1019.7219,595.60873 C 986.31678,519.6394 950.17385,444.77761 910.00073,372.13557 C 885.37899,327.61393 877.45998,315.52953 851.21067,272.26197 C 813.68026,211.80899 772.54139,153.64185 726.94176,98.997326 C 716.56247,86.559246 706.17491,74.108346 695.15257,62.236346 C 684.65653,50.931246 673.33677,40.419846 662.42888,29.511646 C 634.29851,2.5054465 604.20666,-22.322354 572.45328,-44.936854 C 553.20484,-58.645354 546.24503,-62.680354 527.01427,-74.788154 L 558.18421,-94.287053 C 594.53652,-54.034954 630.8615,-13.753954 666.83868,26.833346 C 676.67671,38.393146 686.46781,49.993046 696.35275,61.512846 C 706.90322,73.808106 717.76432,85.838416 728.14443,98.277876 C 773.74713,152.92789 814.88919,211.10037 852.42282,271.55862 C 878.67376,314.829 886.59327,326.91427 911.21664,371.43876 C 951.39203,444.08473 987.53712,518.95051 1020.9446,594.92378 C 1043.9449,650.22711 1048.5733,659.45227 1068.7419,715.41397 C 1075.6828,734.67285 1082.3134,754.04566 1088.6701,773.50519 C 1100.7187,810.38916 1109.0506,841.01049 1120.7179,877.7493 C 1125.262,892.05808 1130.1713,906.24827 1134.898,920.49777 C 1138.7723,932.70317 1142.7004,944.89167 1146.5208,957.11407 C 1149.5758,966.88757 1152.3884,976.73667 1155.5241,986.48447 C 1159.2683,998.12397 1163.6424,1009.5547 1167.3765,1021.1974 C 1168.1632,1023.6501 1168.6921,1026.1817 1169.5049,1028.6259 C 1169.9562,1029.9831 1170.6102,1031.2644 1171.1628,1032.5836 L 1110.4584,1062.4368 z" />
    <path
       style="opacity:1;fill:url(#radialGradient3327);fill-opacity:1;stroke:none;stroke-width:0.70899999;stroke-linecap:round;stroke-linejoin:miter;stroke-miterlimit:3.5999999;stroke-dasharray:none;stroke-opacity:1"
       id="path3273"
       d="M 466.06108,-422.27244 C 463.93321,-418.38982 460.38479,-411.93998 458.73731,-408.74609 C 455.05573,-401.60879 450.97193,-394.65217 447.85909,-387.24911 C 434.27047,-354.9323 427.39744,-320.30306 419.8669,-286.25921 C 417.40271,-272.27537 414.63481,-258.34166 412.47434,-244.30769 C 410.23001,-229.72905 408.43206,-215.0838 406.65547,-200.44081 C 402.90917,-169.56311 399.12124,-134.60041 397.80421,-103.58029 C 396.08694,-63.133031 397.57632,-39.856651 398.83312,0.86588907 C 402.49089,48.308109 403.22006,68.484909 410.30914,116.01889 C 413.58186,137.96326 417.56795,159.7997 421.72643,181.59359 C 429.76755,223.73576 441.05585,274.38549 451.19694,316.09843 C 456.37517,337.39785 462.04384,358.57504 467.4673,379.81335 C 491.47492,467.29842 517.34597,555.00278 556.46908,637.14628 C 563.30484,651.49876 570.99024,665.43095 578.25082,679.57325 C 605.98391,729.69575 638.01341,777.39645 674.01324,821.95075 C 691.63708,843.76235 699.89845,852.52865 718.23373,873.05735 C 735.12074,890.32465 739.30325,895.34665 756.97512,910.71205 C 762.44813,915.47075 768.20891,919.88795 773.82581,924.47595 L 739.55721,945.41385 C 735.3412,939.90685 731.02681,934.47385 726.90919,928.89295 C 716.22915,914.41755 706.98783,900.72005 696.74356,885.85165 C 690.91162,877.04815 684.93568,868.33835 679.24773,859.44115 C 670.09886,845.13015 649.16257,810.52455 640.85865,796.62395 C 618.17108,758.64515 596.00051,720.33335 576.04348,680.82965 C 559.27932,646.16899 550.26519,628.81318 535.49726,593.05975 C 507.0125,524.09761 485.71113,452.41371 466.23491,380.4806 C 460.81096,359.24136 455.14178,338.06325 449.96305,316.76289 C 439.82064,275.04674 428.53172,224.39656 420.4889,182.25125 C 416.32944,160.45522 412.34206,138.61668 409.06823,116.67015 C 401.97713,69.134069 401.24648,48.950549 397.58641,1.5059791 C 397.03424,-16.357401 396.10674,-34.213121 395.92989,-52.084151 C 395.7621,-69.039731 396.33035,-85.994611 396.55274,-102.94956 C 397.01997,-138.57141 397.03719,-161.28932 398.88676,-196.58088 C 399.62935,-210.75029 400.85519,-224.89025 401.82582,-239.04587 C 402.73262,-252.27059 403.6213,-265.49655 404.51904,-278.72188 C 406.02763,-300.35293 407.83557,-322.94064 408.52325,-344.67116 C 408.77323,-352.57031 409.20796,-360.49222 408.71159,-368.37972 C 408.18893,-376.68507 405.06115,-384.86715 405.01981,-393.28079 L 466.06108,-422.27244 z" />
    <path
       style="opacity:1;fill:url(#radialGradient3303);fill-opacity:1;stroke:none;stroke-width:0.70899999;stroke-linecap:round;stroke-linejoin:miter;stroke-miterlimit:3.5999999;stroke-dasharray:none;stroke-opacity:1"
       id="path3275"
       d="M 964.258,1317.3286 C 981.98,1298.7143 992.2795,1274.625 1000.2623,1250.5358 C 1003.2254,1241.5943 1005.5934,1232.4664 1008.2589,1223.4316 C 1010.6336,1213.0724 1013.2784,1202.7715 1015.3829,1192.354 C 1020.2928,1168.0502 1023.707,1144.4675 1026.7585,1119.8441 C 1030.1871,1092.1786 1033.6138,1059.0836 1035.0675,1031.4009 C 1035.8995,1015.5578 1035.9427,999.68323 1036.3803,983.82443 C 1036.3003,967.83003 1036.4131,951.83351 1036.1404,935.8412 C 1035.8699,919.97611 1035.2572,904.11862 1034.7506,888.25932 C 1033.1778,839.02293 1030.8779,789.85828 1027.2903,740.72289 C 1026.105,724.48938 1024.663,708.27563 1023.3493,692.052 C 1017.4732,632.54284 1008.3183,573.29136 994.5523,515.0742 C 987.6334,485.81373 983.0166,471.02289 974.794,442.47087 C 966.06346,413.05997 955.25208,384.36531 943.13728,356.20039 C 937.45408,342.98779 929.55428,325.45547 923.05018,312.46379 C 919.99608,306.36333 916.67118,300.40224 913.48168,294.37146 C 906.18698,280.94514 897.79828,268.19421 889.21118,255.57829 L 934.33258,229.89784 C 939.38128,244.68604 944.44888,259.46938 949.13488,274.37799 C 950.14318,277.5002 962.2305,314.90159 962.77102,316.69596 C 974.3596,355.16669 982.6812,394.5724 990.6842,433.90955 C 997.0913,469.12441 998.2565,474.07679 1003.7139,510.19984 C 1012.7994,570.33658 1019.249,630.83178 1024.5928,691.4057 C 1025.9068,707.62998 1027.3492,723.84437 1028.5348,740.07854 C 1030.7351,770.20831 1032.9172,808.82255 1034.5756,838.98831 C 1035.4561,855.00505 1036.4832,871.0155 1037.1199,887.04378 C 1037.7507,902.92116 1037.9642,918.81238 1038.3777,934.69691 C 1038.7898,950.52661 1039.1904,966.35651 1039.5968,982.18633 C 1039.9668,997.63873 1040.2454,1013.0936 1040.707,1028.5435 C 1041.1427,1043.1272 1041.9586,1057.6991 1042.2887,1072.2856 C 1043.3228,1117.988 1041.4533,1163.7076 1037.5623,1209.2465 C 1036.6457,1217.519 1035.8874,1225.8106 1034.8125,1234.0641 C 1031.1767,1261.9805 1032.5174,1246.2204 1028.9663,1270.7347 C 1028.02,1277.2673 1027.9625,1284.0645 1026.0186,1290.4352 L 964.258,1317.3286 z" />
  </g>
</svg>
