<?xml version="1.0" encoding="UTF-8" standalone="no"?>
<!-- Created with Inkscape (http://www.inkscape.org/) -->
<svg
   xmlns:dc="http://purl.org/dc/elements/1.1/"
   xmlns:cc="http://creativecommons.org/ns#"
   xmlns:rdf="http://www.w3.org/1999/02/22-rdf-syntax-ns#"
   xmlns:svg="http://www.w3.org/2000/svg"
   xmlns="http://www.w3.org/2000/svg"
   xmlns:xlink="http://www.w3.org/1999/xlink"
   xmlns:sodipodi="http://sodipodi.sourceforge.net/DTD/sodipodi-0.dtd"
   xmlns:inkscape="http://www.inkscape.org/namespaces/inkscape"
   width="1440"
   height="900"
   id="svg2"
   sodipodi:version="0.32"
   inkscape:version="0.46"
   version="1.0"
   sodipodi:docname="kgdm.svg"
   inkscape:output_extension="org.inkscape.output.svg.inkscape"
   inkscape:export-filename="/home/v00d00/build/sabayon/artwork/5.0/wip/final.png"
   inkscape:export-xdpi="120"
   inkscape:export-ydpi="120">
  <defs
     id="defs4">
    <linearGradient
       inkscape:collect="always"
       id="linearGradient3595">
      <stop
         style="stop-color:#1c001c;stop-opacity:1;"
         offset="0"
         id="stop3597" />
      <stop
         style="stop-color:#1c001c;stop-opacity:0;"
         offset="1"
         id="stop3599" />
    </linearGradient>
    <linearGradient
       id="linearGradient3585">
      <stop
         style="stop-color:#1b1500;stop-opacity:1;"
         offset="0"
         id="stop3587" />
      <stop
         style="stop-color:#423400;stop-opacity:0;"
         offset="1"
         id="stop3589" />
    </linearGradient>
    <linearGradient
       id="linearGradient3575">
      <stop
         style="stop-color:#191f00;stop-opacity:1;"
         offset="0"
         id="stop3577" />
      <stop
         style="stop-color:#101400;stop-opacity:0;"
         offset="1"
         id="stop3579" />
    </linearGradient>
    <linearGradient
       id="linearGradient3565">
      <stop
         style="stop-color:#140800;stop-opacity:1;"
         offset="0"
         id="stop3567" />
      <stop
         style="stop-color:#341500;stop-opacity:0;"
         offset="1"
         id="stop3569" />
    </linearGradient>
    <linearGradient
       id="linearGradient3460">
      <stop
         style="stop-color:#000000;stop-opacity:1;"
         offset="0"
         id="stop3462" />
      <stop
         style="stop-color:#141414;stop-opacity:1;"
         offset="1"
         id="stop3464" />
    </linearGradient>
    <linearGradient
       id="linearGradient3451">
      <stop
         style="stop-color:#d35fd1;stop-opacity:1;"
         offset="0"
         id="stop3453" />
      <stop
         style="stop-color:#d35f8d;stop-opacity:0;"
         offset="1"
         id="stop3455" />
    </linearGradient>
    <linearGradient
       inkscape:collect="always"
       id="linearGradient3441">
      <stop
         style="stop-color:#5a2ca0;stop-opacity:1;"
         offset="0"
         id="stop3443" />
      <stop
         style="stop-color:#5a2ca0;stop-opacity:0;"
         offset="1"
         id="stop3445" />
    </linearGradient>
    <linearGradient
       inkscape:collect="always"
       id="linearGradient3423">
      <stop
         style="stop-color:#ff6600;stop-opacity:1;"
         offset="0"
         id="stop3425" />
      <stop
         style="stop-color:#ff6600;stop-opacity:0;"
         offset="1"
         id="stop3427" />
    </linearGradient>
    <linearGradient
       inkscape:collect="always"
       id="linearGradient3399">
      <stop
         style="stop-color:#1f1515;stop-opacity:1;"
         offset="0"
         id="stop3401" />
      <stop
         style="stop-color:#1f1515;stop-opacity:0;"
         offset="1"
         id="stop3403" />
    </linearGradient>
    <linearGradient
       id="linearGradient3391">
      <stop
         style="stop-color:#011527;stop-opacity:1;"
         offset="0"
         id="stop3393" />
      <stop
         style="stop-color:#000000;stop-opacity:0;"
         offset="1"
         id="stop3395" />
    </linearGradient>
    <linearGradient
       inkscape:collect="always"
       id="linearGradient3357">
      <stop
         style="stop-color:#2af2ff;stop-opacity:1;"
         offset="0"
         id="stop3359" />
      <stop
         style="stop-color:#2af2ff;stop-opacity:0;"
         offset="1"
         id="stop3361" />
    </linearGradient>
    <linearGradient
       inkscape:collect="always"
       id="linearGradient3345">
      <stop
         style="stop-color:#ffe22a;stop-opacity:1;"
         offset="0"
         id="stop3347" />
      <stop
         style="stop-color:#ffe22a;stop-opacity:0;"
         offset="1"
         id="stop3349" />
    </linearGradient>
    <linearGradient
       inkscape:collect="always"
       id="linearGradient3337">
      <stop
         style="stop-color:#265b30;stop-opacity:1;"
         offset="0"
         id="stop3339" />
      <stop
         style="stop-color:#265b30;stop-opacity:0;"
         offset="1"
         id="stop3341" />
    </linearGradient>
    <linearGradient
       inkscape:collect="always"
       id="linearGradient3329">
      <stop
         style="stop-color:#74a4ec;stop-opacity:1;"
         offset="0"
         id="stop3331" />
      <stop
         style="stop-color:#74a4ec;stop-opacity:0;"
         offset="1"
         id="stop3333" />
    </linearGradient>
    <linearGradient
       inkscape:collect="always"
       id="linearGradient3321">
      <stop
         style="stop-color:#2affa1;stop-opacity:1;"
         offset="0"
         id="stop3323" />
      <stop
         style="stop-color:#2affa1;stop-opacity:0;"
         offset="1"
         id="stop3325" />
    </linearGradient>
    <linearGradient
       inkscape:collect="always"
       id="linearGradient3313">
      <stop
         style="stop-color:#0014ff;stop-opacity:1;"
         offset="0"
         id="stop3315" />
      <stop
         style="stop-color:#0014ff;stop-opacity:0;"
         offset="1"
         id="stop3317" />
    </linearGradient>
    <linearGradient
       inkscape:collect="always"
       id="linearGradient3305">
      <stop
         style="stop-color:#ff2aa0;stop-opacity:1;"
         offset="0"
         id="stop3307" />
      <stop
         style="stop-color:#ff2aa0;stop-opacity:0;"
         offset="1"
         id="stop3309" />
    </linearGradient>
    <linearGradient
       id="linearGradient3185">
      <stop
         id="stop3187"
         offset="0"
         style="stop-color:#151515;stop-opacity:1;" />
      <stop
         id="stop3189"
         offset="1"
         style="stop-color:#151515;stop-opacity:0;" />
    </linearGradient>
    <linearGradient
       id="linearGradient3157">
      <stop
         style="stop-color:#00affe;stop-opacity:1;"
         offset="0"
         id="stop3159" />
      <stop
         style="stop-color:#0022ff;stop-opacity:0;"
         offset="1"
         id="stop3161" />
    </linearGradient>
    <inkscape:perspective
       sodipodi:type="inkscape:persp3d"
       inkscape:vp_x="0 : 526.18109 : 1"
       inkscape:vp_y="0 : 1000 : 0"
       inkscape:vp_z="744.09448 : 526.18109 : 1"
       inkscape:persp3d-origin="372.04724 : 350.78739 : 1"
       id="perspective10" />
    <radialGradient
       inkscape:collect="always"
       xlink:href="#linearGradient3391"
       id="radialGradient3397"
       cx="1117.3137"
       cy="190.76087"
       fx="1117.3137"
       fy="190.76087"
       r="478.64908"
       gradientTransform="matrix(1.0861314,0,0,0.6350364,-239.44676,243.50629)"
       gradientUnits="userSpaceOnUse" />
    <radialGradient
       inkscape:collect="always"
       xlink:href="#linearGradient3399"
       id="radialGradient3405"
       cx="417.85715"
       cy="673.60248"
       fx="417.85715"
       fy="673.60248"
       r="584.1615"
       gradientTransform="matrix(1,0,0,0.5287081,209.62733,93.860923)"
       gradientUnits="userSpaceOnUse" />
    <linearGradient
       inkscape:collect="always"
       xlink:href="#linearGradient3460"
       id="linearGradient3466"
       x1="0"
       y1="900"
       x2="1440"
       y2="0"
       gradientUnits="userSpaceOnUse"
       spreadMethod="pad" />
    <radialGradient
       inkscape:collect="always"
       xlink:href="#linearGradient3565"
       id="radialGradient3571"
       cx="229.19254"
       cy="742.08072"
       fx="229.19254"
       fy="742.08072"
       r="269.02173"
       gradientTransform="matrix(1,0,0,0.7402598,-142.54658,291.97181)"
       gradientUnits="userSpaceOnUse" />
    <radialGradient
       inkscape:collect="always"
       xlink:href="#linearGradient3575"
       id="radialGradient3581"
       cx="347.98137"
       cy="486.33542"
       fx="347.98137"
       fy="486.33542"
       r="258.54037"
       gradientTransform="matrix(1.727027,0,0,0.7702703,-295.61608,323.44929)"
       gradientUnits="userSpaceOnUse" />
    <radialGradient
       inkscape:collect="always"
       xlink:href="#linearGradient3585"
       id="radialGradient3591"
       cx="1184.3944"
       cy="225.69875"
       fx="1184.3944"
       fy="225.69875"
       r="270.41925"
       gradientTransform="matrix(1.5736434,0,0,0.9793281,-483.76791,-142.07352)"
       gradientUnits="userSpaceOnUse" />
    <radialGradient
       inkscape:collect="always"
       xlink:href="#linearGradient3595"
       id="radialGradient3601"
       cx="1185.0932"
       cy="294.87578"
       fx="1185.0932"
       fy="294.87578"
       r="273.91306"
       gradientTransform="matrix(1,0,0,0.6173469,0,112.83513)"
       gradientUnits="userSpaceOnUse" />
    <radialGradient
       inkscape:collect="always"
       xlink:href="#linearGradient3313"
       id="radialGradient3579"
       gradientUnits="userSpaceOnUse"
       gradientTransform="matrix(-1,0,0,-0.4153196,1259.7848,752.39186)"
       cx="634.08495"
       cy="597.76282"
       fx="634.08495"
       fy="597.76282"
       r="813.87495" />
    <radialGradient
       inkscape:collect="always"
       xlink:href="#linearGradient3357"
       id="radialGradient3582"
       gradientUnits="userSpaceOnUse"
       gradientTransform="matrix(-0.9555243,0.2949125,-0.4083207,-1.3229696,1592.9395,1566.5839)"
       cx="345.31309"
       cy="873.95327"
       fx="345.31309"
       fy="873.95327"
       r="421.76184" />
    <radialGradient
       inkscape:collect="always"
       xlink:href="#linearGradient3337"
       id="radialGradient3584"
       gradientUnits="userSpaceOnUse"
       gradientTransform="matrix(-1,0,0,-2.1211739,1172.7113,1749.6414)"
       cx="304.0575"
       cy="586.09349"
       fx="304.0575"
       fy="586.09349"
       r="322.07429" />
    <radialGradient
       inkscape:collect="always"
       xlink:href="#linearGradient3423"
       id="radialGradient3586"
       gradientUnits="userSpaceOnUse"
       gradientTransform="matrix(1,0,0,1.3349428,-171.89442,-180.00349)"
       cx="924.06964"
       cy="549.93275"
       fx="924.06964"
       fy="549.93275"
       r="438.58166" />
    <radialGradient
       inkscape:collect="always"
       xlink:href="#linearGradient3451"
       id="radialGradient3588"
       gradientUnits="userSpaceOnUse"
       gradientTransform="matrix(0.9742228,-0.2255879,0.1813251,0.7830697,-107.41152,403.82203)"
       cx="869.145"
       cy="461.91446"
       fx="869.145"
       fy="461.91446"
       r="520.35026" />
    <radialGradient
       inkscape:collect="always"
       xlink:href="#linearGradient3305"
       id="radialGradient3597"
       gradientUnits="userSpaceOnUse"
       gradientTransform="matrix(1,0,0,0.5201015,100.62112,113.22075)"
       cx="732.10112"
       cy="465.98282"
       fx="732.10112"
       fy="465.98282"
       r="872.61598" />
    <radialGradient
       inkscape:collect="always"
       xlink:href="#linearGradient3345"
       id="radialGradient3599"
       gradientUnits="userSpaceOnUse"
       gradientTransform="matrix(1,0,0,0.7809058,25.15528,-3.6239309)"
       cx="660.16357"
       cy="538.39819"
       fx="660.16357"
       fy="538.39819"
       r="707.15833" />
    <radialGradient
       inkscape:collect="always"
       xlink:href="#linearGradient3329"
       id="radialGradient3602"
       gradientUnits="userSpaceOnUse"
       gradientTransform="matrix(1,0,0,1.2531343,184.47205,-388.86117)"
       cx="479.47124"
       cy="592.12044"
       fx="479.47124"
       fy="592.12044"
       r="507.99746" />
    <radialGradient
       inkscape:collect="always"
       xlink:href="#linearGradient3321"
       id="radialGradient3604"
       gradientUnits="userSpaceOnUse"
       gradientTransform="matrix(1,0,0,3.6189218,166.30435,-1939.2931)"
       cx="418.55823"
       cy="608.15455"
       fx="418.55823"
       fy="608.15455"
       r="188.96323" />
    <radialGradient
       inkscape:collect="always"
       xlink:href="#linearGradient3441"
       id="radialGradient3606"
       gradientUnits="userSpaceOnUse"
       gradientTransform="matrix(-0.9963895,8.4899627e-2,-3.273373e-2,-0.3841659,1719.7021,566.62331)"
       cx="914.94884"
       cy="458.15578"
       fx="914.94884"
       fy="458.15578"
       r="874.30836" />
  </defs>
  <sodipodi:namedview
     id="base"
     pagecolor="#ffffff"
     bordercolor="#666666"
     borderopacity="1.0"
     gridtolerance="10000"
     guidetolerance="10"
     objecttolerance="10"
     inkscape:pageopacity="0.0"
     inkscape:pageshadow="2"
     inkscape:zoom="1"
     inkscape:cx="706.34598"
     inkscape:cy="449.27758"
     inkscape:document-units="px"
     inkscape:current-layer="layer1"
     showgrid="false"
     inkscape:showpageshadow="false"
     borderlayer="true"
     inkscape:window-width="1861"
     inkscape:window-height="1054"
     inkscape:window-x="13"
     inkscape:window-y="35" />
  <metadata
     id="metadata7">
    <rdf:RDF>
      <cc:Work
         rdf:about="">
        <dc:format>image/svg+xml</dc:format>
        <dc:type
           rdf:resource="http://purl.org/dc/dcmitype/StillImage" />
      </cc:Work>
    </rdf:RDF>
  </metadata>
  <g
     inkscape:groupmode="layer"
     id="layer2"
     style="display:inline"
     sodipodi:insensitive="true">
    <rect
       style="opacity:1;fill:url(#linearGradient3466);fill-opacity:1;stroke:none;stroke-width:0.70899999;stroke-linecap:round;stroke-linejoin:miter;stroke-miterlimit:3.5999999;stroke-dasharray:none;stroke-opacity:1"
       id="rect2383"
       width="1440"
       height="900"
       x="0"
       y="0" />
    <rect
       style="opacity:1;fill:url(#radialGradient3397);fill-opacity:1;stroke:none;stroke-width:0.70899999;stroke-linecap:round;stroke-linejoin:miter;stroke-miterlimit:3.5999999;stroke-dasharray:none;stroke-opacity:1"
       id="rect3389"
       width="1039.7516"
       height="607.91925"
       x="454.22693"
       y="60.686752"
       transform="matrix(0.9960216,8.9112091e-2,-8.9112091e-2,0.9960216,0,0)" />
    <rect
       style="opacity:1;fill:url(#radialGradient3405);fill-opacity:1;stroke:none;stroke-width:0.70899999;stroke-linecap:round;stroke-linejoin:miter;stroke-miterlimit:3.5999999;stroke-dasharray:none;stroke-opacity:1"
       id="rect3387"
       width="1168.323"
       height="617.70184"
       x="43.322975"
       y="141.14908" />
    <rect
       style="opacity:0.56569968;fill:url(#radialGradient3581);fill-opacity:1;stroke:none;stroke-width:0.70899999;stroke-linecap:round;stroke-linejoin:miter;stroke-miterlimit:3.5999999;stroke-dasharray:none;stroke-opacity:1"
       id="rect3573"
       width="893.01245"
       height="398.29193"
       x="-141.14906"
       y="498.91302" />
    <rect
       style="opacity:0.75647673;fill:url(#radialGradient3601);fill-opacity:1;stroke:none;stroke-width:0.70899999;stroke-linecap:round;stroke-linejoin:miter;stroke-miterlimit:3.5999999;stroke-dasharray:none;stroke-opacity:1"
       id="rect3593"
       width="547.82611"
       height="338.19876"
       x="911.18011"
       y="125.7764" />
  </g>
  <g
     inkscape:label="Design"
     inkscape:groupmode="layer"
     id="layer1"
     style="display:inline">
    <g
       id="g3590"
       transform="translate(-361.95652,142.54658)">
      <path
         d="M 20.570725,-98.269761 C 19.401155,-93.639901 19.405035,-88.857591 19.225285,-84.122701 C 18.823085,-73.528401 18.276205,-68.530981 19.559445,-57.074951 C 20.339925,-50.107301 21.833595,-43.238141 22.970675,-36.319742 C 25.056795,-28.277442 26.814725,-20.142782 29.229045,-12.192832 C 41.983605,29.805768 61.686293,69.528508 85.132503,106.5343 C 92.243423,117.75764 100.00783,128.55335 107.44549,139.56288 C 132.85169,173.06856 133.74546,175.32739 161.74606,207.74382 C 172.11886,219.75246 182.50755,231.76366 193.45136,243.25434 C 213.01038,263.79074 249.58756,298.32013 270.45922,316.61501 C 286.95906,331.07779 304.04214,344.86132 320.8336,358.98447 C 414.09212,433.90982 514.7705,499.58785 621.62067,553.4719 C 641.94886,563.72332 662.72621,573.0587 683.27898,582.8521 C 704.15128,591.73106 724.86556,600.99109 745.89589,609.48899 C 826.12428,641.90755 909.55065,669.56566 993.23859,691.56896 C 1013.7777,696.96914 1034.4917,701.68127 1055.1182,706.73742 C 1129.6528,723.9146 1204.9581,737.56139 1280.5506,749.13672 C 1297.0286,751.65996 1313.5051,754.20893 1330.0308,756.39797 C 1345.7577,758.48119 1361.5425,760.10077 1377.2984,761.95218 C 1448.7862,768.66726 1520.4722,772.94138 1592.2108,775.75647 C 1627.0839,776.72049 1662.0946,777.90391 1696.9298,775.38066 C 1699.7327,774.97803 1702.5355,774.57539 1705.3383,774.17275 L 1657.0735,809.42795 C 1655.0246,809.14935 1652.9757,808.87065 1650.9268,808.59205 C 1622.2354,803.79915 1593.5074,799.26415 1564.6759,795.37895 C 1500.9812,785.68019 1437.4138,775.14026 1373.8953,764.35428 C 1246.3457,744.09495 1416.4237,770.92803 1279.404,749.94246 C 1203.809,738.36455 1128.5015,724.71462 1053.965,707.53367 C 1033.3375,702.47623 1012.6227,697.76278 992.08269,692.36135 C 908.39121,670.35298 824.96119,642.69053 744.7299,610.26647 C 723.69843,601.76698 702.9831,592.50524 682.1097,583.62462 C 661.55579,573.82949 640.7773,564.49233 620.44797,554.23923 C 513.59221,500.34651 412.90846,434.66047 319.64503,359.72697 C 302.85247,345.60205 285.76832,331.8167 269.26735,317.3522 C 241.29216,292.82956 218.42232,269.97218 191.64266,244.35894 C 179.95563,233.18095 167.99177,222.29011 156.47425,210.93753 C 127.5681,182.44536 122.63571,176.08445 95.937343,146.38937 C 74.248273,120.02458 67.257143,112.5043 47.776815,85.112348 C 24.869165,52.901138 5.0832247,18.633968 -13.301605,-16.314212 C -16.510435,-22.173532 -19.620915,-28.087802 -22.928105,-33.892182 C -23.929585,-35.649842 -33.657705,-51.464951 -35.485635,-55.332231 C -37.215505,-58.992041 -37.539695,-63.350801 -39.893745,-66.767861 L 20.570725,-98.269761 z"
         id="path3263"
         style="opacity:1;fill:url(#radialGradient3597);fill-opacity:1;stroke:none;stroke-width:0.70899999;stroke-linecap:round;stroke-linejoin:miter;stroke-miterlimit:3.5999999;stroke-dasharray:none;stroke-opacity:1" />
      <path
         d="M 38.609652,-135.40971 C 38.290342,-134.20828 37.874002,-133.02853 37.651712,-131.80543 C 34.165472,-112.62361 38.806012,-91.73848 42.224722,-72.985874 C 44.293292,-64.939077 46.311322,-56.879121 48.430422,-48.845485 C 51.525862,-37.110497 53.903302,-25.151277 57.868132,-13.680801 C 68.073032,15.842559 82.515432,44.874669 98.846732,71.405899 C 114.56171,96.935899 147.27303,140.62655 164.63292,164.3732 C 177.25296,180.4692 189.59078,196.79051 202.49302,212.66119 C 229.10189,245.39201 257.38185,277.72396 285.95594,308.74265 C 315.81265,341.15368 345.32884,371.53543 377.16816,402.0208 C 393.35545,417.51973 410.0585,432.47084 426.50367,447.69586 C 497.66681,511.4517 574.41168,568.68405 653.87131,621.63637 C 704.29043,655.23593 725.9308,667.89454 777.29737,699.46418 C 874.05563,757.83698 974.52533,810.07939 1077.6797,856.21071 C 1095.9676,864.38919 1114.4556,872.11267 1132.8436,880.06365 C 1180.8509,899.48985 1229.0417,919.15035 1279.2533,932.30135 C 1293.439,936.01685 1307.8474,938.83785 1322.2237,941.72925 C 1352.8563,947.89015 1362.6742,948.93325 1392.4772,953.25375 L 1369.6285,969.03835 C 1344.8703,960.00215 1338.7568,957.81325 1312.8315,948.15485 C 1300.5964,943.59675 1288.4415,938.82085 1276.1529,934.40905 C 1261.6715,929.21005 1247.0305,924.46455 1232.528,919.32485 C 1177.638,899.87175 1187.5883,903.18675 1131.6771,880.84045 C 1113.2885,872.88852 1094.7999,865.16406 1076.5114,856.98469 C 973.35393,810.84846 872.88123,758.60148 776.11994,700.22422 C 724.75082,668.65166 703.11157,655.99328 652.69003,622.39042 C 573.22633,569.43272 496.47807,512.19433 425.31158,448.4327 C 408.86558,433.20633 392.16169,418.25386 375.97358,402.75359 C 344.13384,372.26674 314.61423,341.88072 284.75703,309.46832 C 256.18077,278.44649 227.90026,246.11303 201.28937,213.37899 C 188.38632,197.50695 176.0477,181.18429 163.42687,165.08694 C 151.88042,149.29228 140.08887,133.67393 128.78754,117.70297 C 85.692852,56.801809 110.70509,88.228239 67.754912,31.187199 C 58.869222,19.386339 49.764612,7.7486891 40.505662,-3.7616509 C 32.970992,-13.128441 24.525792,-21.767695 17.381172,-31.4353 C 12.559402,-37.959788 8.9278215,-45.285012 4.7011515,-52.209869 C -1.9143585,-63.893308 -5.5891285,-70.100801 -11.536418,-81.528013 C -13.097028,-84.526595 -17.630228,-93.62644 -19.198318,-97.480784 C -19.773358,-98.894218 -20.109178,-100.39498 -20.639318,-101.82586 C -20.990358,-102.77332 -21.439418,-103.68152 -21.839468,-104.60934 L 38.609652,-135.40971 z"
         id="path3265"
         style="opacity:1;fill:url(#radialGradient3599);fill-opacity:1;stroke:none;stroke-width:0.70899999;stroke-linecap:round;stroke-linejoin:miter;stroke-miterlimit:3.5999999;stroke-dasharray:none;stroke-opacity:1" />
      <path
         d="M 216.27772,-283.44377 C 213.79034,-267.19648 214.29034,-250.51561 215.63979,-234.19246 C 217.84121,-207.56387 219.77493,-199.25153 224.20105,-171.70521 C 227.99622,-150.21607 236.1724,-101.57823 241.51429,-81.945795 C 246.24835,-64.547255 252.71191,-47.663835 258.63716,-30.634095 C 274.37651,14.602335 285.67826,44.264105 304.48787,89.323785 C 314.1589,112.49136 324.45724,135.39207 334.44192,158.42622 C 386.82664,274.13657 446.67107,386.71417 516.61114,492.83031 C 529.16982,511.88489 542.43703,530.46292 555.34998,549.27922 C 601.38814,613.09305 650.63619,674.86983 706.37559,730.54969 C 740.27691,764.41474 747.03611,768.81354 783.431,799.50184 C 823.08299,830.85894 866.05592,857.66024 910.53021,881.57864 C 924.77191,889.23784 939.1052,896.75984 953.77851,903.55564 C 985.0251,918.02734 1005.9838,924.88194 1038.0375,936.50464 C 1072.7654,948.06924 1107.9727,958.04334 1143.735,965.84564 C 1153.1049,967.88984 1162.5388,969.62854 1171.9407,971.52004 L 1145.3241,989.73434 C 1106.5419,974.31754 1067.4299,959.63594 1029.4834,942.21674 C 982.47094,919.69804 1001.0652,928.92194 952.58414,904.34034 C 938.16391,897.02884 923.59234,890.00514 909.35545,882.34274 C 864.88167,858.40664 821.89398,831.61744 782.24234,800.24424 C 745.844,769.54994 739.0836,765.14954 705.17888,731.27899 C 649.43597,675.59229 600.1837,613.80957 554.14179,549.98936 C 541.22799,531.17159 527.95992,512.59208 515.40038,493.53603 C 445.45672,387.41355 385.60849,274.82976 333.2203,159.11298 C 308.57672,102.26235 299.15774,82.317685 277.39723,25.387705 C 270.39406,7.0659747 263.9425,-11.462635 257.40994,-29.957385 C 251.41487,-46.930435 246.37292,-64.249065 239.81537,-81.012835 C 238.8562,-83.464855 206.94379,-154.53531 204.15284,-160.75689 C 194.43743,-182.51457 189.75924,-193.90497 179.2115,-214.40053 C 172.61669,-227.21506 165.41528,-240.06659 155.94582,-251.02236 L 216.27772,-283.44377 z"
         id="path3267"
         style="opacity:1;fill:url(#radialGradient3602);fill-opacity:1;stroke:none;stroke-width:0.70899999;stroke-linecap:round;stroke-linejoin:miter;stroke-miterlimit:3.5999999;stroke-dasharray:none;stroke-opacity:1" />
      <path
         d="M 466.06108,-422.27244 C 463.93321,-418.38982 460.38479,-411.93998 458.73731,-408.74609 C 455.05573,-401.60879 450.97193,-394.65217 447.85909,-387.24911 C 434.27047,-354.9323 427.39744,-320.30306 419.8669,-286.25921 C 417.40271,-272.27537 414.63481,-258.34166 412.47434,-244.30769 C 410.23001,-229.72905 408.43206,-215.0838 406.65547,-200.44081 C 402.90917,-169.56311 399.12124,-134.60041 397.80421,-103.58029 C 396.08694,-63.133031 397.57632,-39.856651 398.83312,0.86588907 C 402.49089,48.308109 403.22006,68.484909 410.30914,116.01889 C 413.58186,137.96326 417.56795,159.7997 421.72643,181.59359 C 429.76755,223.73576 441.05585,274.38549 451.19694,316.09843 C 456.37517,337.39785 462.04384,358.57504 467.4673,379.81335 C 491.47492,467.29842 517.34597,555.00278 556.46908,637.14628 C 563.30484,651.49876 570.99024,665.43095 578.25082,679.57325 C 605.98391,729.69575 638.01341,777.39645 674.01324,821.95075 C 691.63708,843.76235 699.89845,852.52865 718.23373,873.05735 C 735.12074,890.32465 739.30325,895.34665 756.97512,910.71205 C 762.44813,915.47075 768.20891,919.88795 773.82581,924.47595 L 739.55721,945.41385 C 735.3412,939.90685 731.02681,934.47385 726.90919,928.89295 C 716.22915,914.41755 706.98783,900.72005 696.74356,885.85165 C 690.91162,877.04815 684.93568,868.33835 679.24773,859.44115 C 670.09886,845.13015 649.16257,810.52455 640.85865,796.62395 C 618.17108,758.64515 596.00051,720.33335 576.04348,680.82965 C 559.27932,646.16899 550.26519,628.81318 535.49726,593.05975 C 507.0125,524.09761 485.71113,452.41371 466.23491,380.4806 C 460.81096,359.24136 455.14178,338.06325 449.96305,316.76289 C 439.82064,275.04674 428.53172,224.39656 420.4889,182.25125 C 416.32944,160.45522 412.34206,138.61668 409.06823,116.67015 C 401.97713,69.134069 401.24648,48.950549 397.58641,1.5059791 C 397.03424,-16.357401 396.10674,-34.213121 395.92989,-52.084151 C 395.7621,-69.039731 396.33035,-85.994611 396.55274,-102.94956 C 397.01997,-138.57141 397.03719,-161.28932 398.88676,-196.58088 C 399.62935,-210.75029 400.85519,-224.89025 401.82582,-239.04587 C 402.73262,-252.27059 403.6213,-265.49655 404.51904,-278.72188 C 406.02763,-300.35293 407.83557,-322.94064 408.52325,-344.67116 C 408.77323,-352.57031 409.20796,-360.49222 408.71159,-368.37972 C 408.18893,-376.68507 405.06115,-384.86715 405.01981,-393.28079 L 466.06108,-422.27244 z"
         id="path3273"
         style="opacity:1;fill:url(#radialGradient3604);fill-opacity:1;stroke:none;stroke-width:0.70899999;stroke-linecap:round;stroke-linejoin:miter;stroke-miterlimit:3.5999999;stroke-dasharray:none;stroke-opacity:1" />
      <path
         d="M 1637.7276,734.64048 C 1632.7257,733.45332 1629.257,728.90321 1624.4595,727.3249 C 1616.2183,724.61363 1607.5657,723.31461 1599.0141,721.85218 C 1558.0951,714.85458 1553.8331,716.18132 1508.3646,712.88201 C 1483.7576,711.09648 1459.1619,709.15935 1434.5606,707.29801 C 1260.0339,691.46644 1087.533,658.14439 918.1668,613.56343 C 878.6878,603.17167 839.53533,591.57676 800.21958,580.58342 C 650.39663,536.3134 503.06666,483.88045 358.11676,425.67468 C 282.33106,395.2424 260.87336,385.30946 188.38306,353.72358 C 127.47036,326.11177 124.80336,325.27659 68.02296,298.24032 C 53.45156,291.30202 39.37606,283.26252 24.43136,277.1695 C 11.47136,271.88562 -2.19804,268.54334 -15.49884,264.18803 C -45.31864,254.42368 -44.19714,254.73075 -71.46964,245.47428 C -94.98474,237.29571 -84.01604,241.18208 -104.39234,233.86188 L -63.83304,202.98972 C -50.84864,215.77631 -57.98044,209.03699 -42.29844,223.05955 C -24.72804,237.74263 -22.76554,239.67684 -3.15084,254.63775 C 6.39486,261.91857 15.38616,270.05949 25.71996,276.1703 C 39.58226,284.36768 54.60196,290.42934 69.12946,297.38013 C 120.67116,322.04071 134.93096,328.13078 189.48696,352.86022 C 261.97506,384.44388 283.43416,394.377 359.21726,424.80709 C 504.16446,483.00938 651.49144,535.43892 801.31144,579.70488 C 840.62628,590.69708 879.77785,602.2909 919.25594,612.68151 C 1088.6174,657.25732 1261.1135,690.57328 1435.635,706.39811 C 1460.2349,708.25781 1484.7843,710.99142 1509.4348,711.97719 C 1550.5652,713.622 1576.9931,711.78208 1617.1618,706.34649 C 1630.5186,704.53908 1643.8433,702.34861 1656.9993,699.41767 C 1667.9915,696.96876 1678.571,692.92185 1689.4193,689.91069 L 1637.7276,734.64048 z"
         id="path3439"
         style="opacity:1;fill:url(#radialGradient3606);fill-opacity:1;stroke:none;stroke-width:0.70899999;stroke-linecap:round;stroke-linejoin:miter;stroke-miterlimit:3.5999999;stroke-dasharray:none;stroke-opacity:1" />
    </g>
    <g
       id="g3572"
       transform="translate(324.2236,-229.19255)">
      <path
         d="M 1380.6471,842.14746 C 1378.2966,832.04095 1372.7007,823.40874 1367.2681,814.7247 C 1364.6947,810.61104 1362.1175,806.49969 1359.5422,802.38719 C 1341.9418,774.37637 1319.8814,749.57887 1298.2239,724.71282 C 1265.0582,686.63372 1286.0818,710.2745 1249.745,670.07539 C 1221.3783,641.0811 1217.0926,636.18105 1187.13,607.7377 C 1175.5221,596.71843 1163.9665,585.63145 1151.9489,575.06061 C 1132.2568,557.73923 1091.5572,524.97274 1071.0813,509.2952 C 1056.0771,497.80713 1040.7119,486.79834 1025.5272,475.54991 C 936.69563,412.69091 839.7982,362.11155 739.36283,320.53311 C 717.59961,311.52353 695.49612,303.3589 673.56276,294.77179 C 651.21508,286.95931 629.02141,278.69147 606.51972,271.33433 C 562.6638,256.99523 515.94386,243.8485 471.16546,232.7146 C 425.8614,221.44999 384.25769,212.58093 338.28657,204.56541 C 316.29617,200.73117 294.17624,197.68095 272.12114,194.23872 C 173.7706,180.5541 74.456597,173.46197 -24.848303,173.02891 C -40.750803,172.95956 -56.651603,173.39181 -72.553303,173.57325 C -100.5353,175.32278 -127.1283,176.8171 -155.0072,179.16957 C -166.0751,180.1035 -177.1191,181.30127 -188.1751,182.36711 L -165.9408,166.11109 C -133.6978,167.78749 -101.4276,168.85163 -69.218503,171.1532 C -54.050003,171.50456 -38.882203,171.89121 -23.712903,172.2073 C -6.3018032,172.5701 11.115297,172.67159 28.522497,173.18986 C 110.3888,175.62732 192.1688,181.78572 273.26754,193.43264 C 295.32364,196.87623 317.4445,199.92779 339.43582,203.7634 C 385.40438,211.781 427.01891,220.65447 472.32028,231.92062 C 517.10554,243.05843 563.81806,256.20565 607.68055,270.54919 C 630.18322,277.90781 652.37784,286.17702 674.72648,293.99093 C 696.66085,302.57955 718.76538,310.74567 740.52959,319.75679 C 840.97171,361.34326 937.87467,411.93198 1026.7112,474.80009 C 1041.8967,486.04981 1057.2627,497.05993 1072.2677,508.54926 C 1111.3098,538.44368 1115.7674,543.48597 1153.1875,574.28954 C 1165.8006,584.67241 1178.5879,594.84224 1191.2227,605.19863 C 1279.3925,677.46855 1176.4642,593.80531 1261.5269,662.79648 C 1282.3301,679.15604 1301.1048,693.64704 1321.3274,710.54103 C 1347.9313,732.76592 1373.2685,756.6009 1401.3892,776.96443 C 1405.5695,780.14883 1409.8046,783.26264 1413.9303,786.51763 C 1422.471,793.25604 1430.4783,800.75751 1439.5748,806.76735 L 1380.6471,842.14746 z"
         id="path3261"
         style="opacity:1;fill:url(#radialGradient3579);fill-opacity:1;stroke:none;stroke-width:0.70899999;stroke-linecap:round;stroke-linejoin:miter;stroke-miterlimit:3.5999999;stroke-dasharray:none;stroke-opacity:1" />
      <path
         d="M 1424.8991,963.22534 C 1424.4105,961.06012 1424.1023,958.84626 1423.4332,956.72986 C 1422.1167,952.56571 1412.961,929.51072 1412.7395,928.98383 C 1409.1592,920.46817 1405.6467,911.91198 1401.595,903.61019 C 1388.2143,876.19438 1379.247,862.44889 1363.2605,835.47665 C 1354.3538,821.64342 1346.268,807.24583 1336.5404,793.97702 C 1325.7212,779.21907 1274.0682,719.00319 1263.2038,706.6653 C 1233.4048,672.82457 1206.9735,644.24794 1175.1361,612.19568 C 1159.2854,596.23809 1142.9318,580.78825 1126.8296,565.08452 C 1037.9712,482.86849 943.00325,407.44019 845.49156,335.78545 C 827.75175,322.74967 809.76476,310.05369 791.90139,297.1879 C 728.64623,252.87458 663.89323,210.4255 595.2323,174.88079 C 580.65003,167.33174 566.01719,159.83481 550.98207,153.23346 C 536.80628,147.00956 522.11316,142.03782 507.6787,136.43996 C 470.39266,123.29191 432.37261,112.35518 393.5182,104.96035 C 370.0233,100.48871 359.53597,99.568421 336.51687,96.767251 L 358.94005,69.961991 C 410.17234,89.506086 461.57225,108.83539 511.08365,132.51001 C 524.50627,138.97746 584.21305,167.64488 596.15952,173.8299 C 664.82448,209.37922 729.582,251.83173 792.84164,296.1487 C 810.70563,309.01512 828.6933,321.71162 846.4337,334.74796 C 943.95008,406.40672 1038.9225,481.83915 1127.7853,564.05944 C 1143.8885,579.76417 1160.2433,595.21508 1176.0949,611.17365 C 1207.9345,643.22802 1234.3674,671.80593 1264.1686,705.64877 C 1277.284,720.5427 1290.1484,735.65732 1302.9249,750.84298 C 1314.6181,764.74125 1325.5001,779.32741 1337.5741,792.89627 C 1348.2195,804.85974 1359.876,815.88365 1371.027,827.37731 C 1389.8002,846.21523 1405.0115,862.13254 1424.6906,879.61699 C 1431.0935,885.30591 1437.7873,890.66246 1444.4937,895.99022 C 1447.5942,898.45348 1461.4368,908.8364 1466.5566,911.99447 C 1468.1881,913.0009 1469.989,913.70246 1471.7053,914.55652 L 1424.8991,963.22534 z"
         id="path3269"
         style="opacity:1;fill:url(#radialGradient3582);fill-opacity:1;stroke:none;stroke-width:0.70899999;stroke-linecap:round;stroke-linejoin:miter;stroke-miterlimit:3.5999999;stroke-dasharray:none;stroke-opacity:1" />
      <path
         d="M 1130.0236,1189.6108 C 1130.8045,1187.4702 1131.7264,1185.3939 1132.3662,1183.1891 C 1133.4615,1179.4143 1134.3672,1175.5637 1135.22,1171.7026 C 1136.7393,1164.8236 1138.4223,1157.9756 1139.4806,1150.9771 C 1143.1939,1126.421 1144.6826,1103.7931 1144.4038,1078.6402 C 1144.2228,1062.3052 1142.8802,1046.0171 1142.1184,1029.7057 C 1140.0442,1011.2176 1138.7684,992.57991 1135.8958,974.24151 C 1128.8808,929.45776 1119.0089,892.51715 1107.0063,849.11289 C 1094.3092,803.19746 1079.568,754.66201 1064.5029,709.80144 C 1056.4319,685.7678 1047.6924,662.05494 1039.2871,638.1817 C 1005.882,548.44483 969.73907,460.0162 929.56595,374.20961 C 904.94421,321.61953 897.0252,307.34514 870.77589,256.23641 C 833.24548,184.82784 792.10661,116.11936 746.50698,51.571879 C 736.12769,36.879707 725.74013,22.172394 714.71779,8.1488838 C 704.22175,-5.2049762 692.90199,-17.621306 681.9941,-30.506346 C 653.86373,-62.406746 623.77188,-91.733966 592.0185,-118.44678 C 572.77006,-134.63961 565.81025,-139.40585 546.57949,-153.70789 L 577.74943,-176.74047 C 614.10174,-129.19369 650.42672,-81.612756 686.4039,-33.670026 C 696.24193,-20.015296 706.03303,-6.3132062 715.91797,7.2942738 C 726.46844,21.817744 737.32954,36.028245 747.70965,50.722046 C 793.31235,115.27601 834.45441,183.9908 871.98804,255.4056 C 898.23898,306.51765 906.15849,320.79308 930.78186,373.38652 C 970.95725,459.19776 1007.1023,547.63109 1040.5098,637.37262 C 1063.5101,702.6983 1068.1385,713.59529 1088.3071,779.69865 C 1095.248,802.44772 1101.8786,825.33137 1108.2353,848.31745 C 1120.2839,891.88572 1128.6158,928.0564 1140.2831,971.45321 C 1144.8272,988.35511 1149.7365,1005.1169 1154.4632,1021.9488 C 1158.3375,1036.3661 1162.2656,1050.7635 1166.086,1065.2009 C 1169.141,1076.7456 1171.9536,1088.3796 1175.0893,1099.8939 C 1178.8335,1113.6428 1183.2076,1127.1451 1186.9417,1140.8978 C 1187.7284,1143.795 1188.2573,1146.7854 1189.0701,1149.6725 C 1189.5214,1151.2757 1190.1754,1152.7892 1190.728,1154.3475 L 1130.0236,1189.6108 z"
         id="path3271"
         style="opacity:1;fill:url(#radialGradient3584);fill-opacity:1;stroke:none;stroke-width:0.70899999;stroke-linecap:round;stroke-linejoin:miter;stroke-miterlimit:3.5999999;stroke-dasharray:none;stroke-opacity:1" />
      <path
         d="M 367.89022,-31.356145 C 369.31302,-30.136505 370.65358,-28.744595 372.15862,-27.697235 C 374.96306,-25.745605 377.92355,-24.181605 380.7891,-22.379725 C 385.57188,-19.372285 390.32031,-16.276805 395.10316,-13.269535 C 402.29993,-8.7444855 409.45836,-4.1158357 416.72768,0.21703433 C 426.38264,5.9718543 436.1627,11.379984 445.87005,16.989995 C 457.79467,23.88141 469.7057,30.810877 481.62352,37.721316 C 495.51791,45.999247 509.28352,54.637265 523.30669,62.555098 C 540.11334,72.044569 557.35206,80.269965 574.09716,89.934315 C 612.5998,112.15592 652.19679,137.61741 688.5308,165.0462 C 747.16156,209.30696 755.17767,219.74813 810.64847,272.09581 C 891.52108,354.7199 962.07439,448.77334 1021.0638,557.49778 C 1056.1629,622.1896 1062.4812,641.42731 1091.2835,709.41189 C 1113.019,770.65542 1119.769,785.32906 1136.1353,847.55007 C 1141.3876,867.51799 1145.317,888.01294 1150.1427,908.15473 C 1154.2594,925.33736 1158.8142,942.34597 1162.9609,959.51689 C 1173.1461,1001.6922 1172.306,999.33161 1180.3705,1039.3295 C 1185.3413,1063.4448 1188.2389,1088.0575 1190.7569,1112.7315 L 1148.9335,1139.6067 C 1150.0254,1132.1342 1151.3172,1124.7045 1152.2093,1117.1891 C 1155.258,1091.5062 1155.3041,1082.0782 1156.79,1055.0717 C 1156.8731,1041.3017 1157.3047,1027.5279 1157.0393,1013.7617 C 1156.4114,981.19332 1154.3714,940.58714 1148.9127,909.01023 C 1145.3581,888.44815 1140.1608,868.38079 1134.9101,848.41649 C 1118.5483,786.20614 1111.7986,771.53267 1090.0678,710.29987 C 1061.27,642.32506 1054.953,623.0903 1019.8584,558.40821 C 960.87569,449.6984 890.32928,355.66023 809.46451,273.05078 C 789.08583,253.82136 769.22119,233.67534 748.32849,215.36253 C 709.32675,181.17684 670.56758,152.5289 628.56329,124.96181 C 604.15964,108.94589 549.14612,75.940837 522.10377,63.586678 C 506.02381,56.240628 489.31556,51.352771 472.92145,45.235812 C 458.24912,40.736964 443.65571,35.798011 428.90446,31.739282 C 394.06251,22.152673 358.31492,15.504795 322.56891,16.593335 C 319.57051,16.684635 316.58534,17.132425 313.59356,17.40197 L 367.89022,-31.356145 z"
         id="path3421"
         style="opacity:1;fill:url(#radialGradient3586);fill-opacity:1;stroke:none;stroke-width:0.70899999;stroke-linecap:round;stroke-linejoin:miter;stroke-miterlimit:3.5999999;stroke-dasharray:none;stroke-opacity:1" />
      <path
         d="M 275.48766,266.94628 C 281.32072,269.15326 285.85024,273.91896 291.61772,276.1825 C 307.25938,282.32133 340.85494,289.12119 355.13832,291.33514 C 387.48087,296.34827 433.61467,299.8841 465.38415,302.73172 C 531.97433,309.44175 598.25512,319.07784 663.83596,332.48688 C 708.41237,341.60122 750.05626,351.54254 793.63201,364.63785 C 814.45173,370.89455 834.92714,378.2445 855.57471,385.04784 C 928.98033,411.37394 1000.1785,443.71926 1068.2451,481.77468 C 1087.6505,492.62415 1132.4824,519.66185 1152.1482,531.44159 C 1205.8915,563.37851 1259.3048,595.88002 1312.0638,629.42032 C 1328.4046,640.18906 1345.2312,650.37988 1360.1311,663.13739 C 1363.9478,666.7048 1367.7695,670.45599 1370.634,674.86848 C 1373.5545,679.36704 1374.5032,682.23886 1376.8729,687.19317 C 1378.0244,689.6004 1379.2389,691.97694 1380.4219,694.36883 C 1381.6207,696.86966 1382.8666,699.34839 1384.0182,701.87128 C 1385.2116,704.48612 1386.4833,707.07462 1387.4558,709.77941 C 1390.2344,717.50677 1391.1802,723.40762 1393.2466,731.4603 C 1393.81,733.65609 1399.2042,753.22657 1399.8263,755.4877 C 1405.4127,774.94289 1408.9895,794.85815 1412.3384,814.79096 C 1413.3571,821.06949 1414.379,827.34584 1415.4891,833.60877 L 1367.5392,872.71132 C 1367.5603,865.69788 1367.5381,858.68459 1367.3409,851.67305 C 1366.3139,830.80551 1364.7588,809.86786 1359.6176,789.53782 C 1356.9205,779.55761 1356.2846,776.03082 1352.4393,766.44383 C 1349.9995,760.36077 1346.6128,753.96653 1343.7182,748.05942 C 1342.5056,745.58493 1341.3825,743.06635 1340.1281,740.6128 C 1338.9174,738.24459 1337.5925,735.93644 1336.3247,733.59827 C 1334.9656,731.44712 1333.7052,729.2303 1332.2472,727.14486 C 1326.9482,719.56482 1320.2758,712.98617 1314.9928,705.3831 C 1303.2427,690.26672 1292.4769,674.40992 1280.5237,659.44355 C 1269.5086,645.96417 1265.8989,641.20086 1253.5975,627.76585 C 1221.9867,593.24122 1187.0203,561.98792 1149.3348,534.20533 C 1136.4899,525.55577 1123.9219,516.48009 1110.8,508.25664 C 1096.5475,499.32456 1081.9342,490.97202 1067.2527,482.76424 C 999.19165,444.71453 927.9993,412.37467 854.59961,386.05441 C 833.9538,379.25277 813.4801,371.90459 792.66219,365.6495 C 749.09277,352.55836 707.44414,342.61757 662.87451,333.50648 C 597.2967,320.10084 531.01907,310.46812 464.43236,303.76036 C 444.46025,301.97095 424.54126,299.43041 404.51606,298.39211 C 363.4524,296.263 340.53111,297.33534 300.45329,302.15473 C 287.71644,303.68634 275.00903,305.61216 262.44884,308.22265 C 255.12149,309.74555 240.26567,314.34733 230.57978,317.31079 L 275.48766,266.94628 z"
         id="path3449"
         style="opacity:1;fill:url(#radialGradient3588);fill-opacity:1;stroke:none;stroke-width:0.70899999;stroke-linecap:round;stroke-linejoin:miter;stroke-miterlimit:3.5999999;stroke-dasharray:none;stroke-opacity:1;display:inline" />
    </g>
  </g>
  <g
     inkscape:groupmode="layer"
     id="layer3"
     inkscape:label="Text"
     style="display:inline"
     sodipodi:insensitive="true">
    <rect
       style="opacity:0.5;fill:#000000;fill-opacity:1;stroke:none;stroke-width:0.70899999;stroke-linecap:round;stroke-linejoin:miter;stroke-miterlimit:3.5999999;stroke-dasharray:none;stroke-opacity:1"
       id="rect3570"
       width="1440"
       height="30"
       x="0"
       y="870" />
  </g>
</svg>
