<?xml version="1.0" encoding="UTF-8" standalone="no"?>
<!-- Created with Inkscape (http://www.inkscape.org/) -->
<svg
   xmlns:dc="http://purl.org/dc/elements/1.1/"
   xmlns:cc="http://creativecommons.org/ns#"
   xmlns:rdf="http://www.w3.org/1999/02/22-rdf-syntax-ns#"
   xmlns:svg="http://www.w3.org/2000/svg"
   xmlns="http://www.w3.org/2000/svg"
   xmlns:xlink="http://www.w3.org/1999/xlink"
   xmlns:sodipodi="http://sodipodi.sourceforge.net/DTD/sodipodi-0.dtd"
   xmlns:inkscape="http://www.inkscape.org/namespaces/inkscape"
   version="1.0"
   width="450"
   height="400"
   id="svg2"
   sodipodi:version="0.32"
   inkscape:version="0.46"
   sodipodi:docname="sabayon41logo.svg"
   inkscape:output_extension="org.inkscape.output.svg.inkscape"
   inkscape:export-filename="/home/v00d00/build/sabayon/artwork/sabayon41logo.png"
   inkscape:export-xdpi="60"
   inkscape:export-ydpi="60">
  <metadata
     id="metadata2830">
    <rdf:RDF>
      <cc:Work
         rdf:about="">
        <dc:format>image/svg+xml</dc:format>
        <dc:type
           rdf:resource="http://purl.org/dc/dcmitype/StillImage" />
      </cc:Work>
    </rdf:RDF>
  </metadata>
  <sodipodi:namedview
     inkscape:window-height="792"
     inkscape:window-width="1215"
     inkscape:pageshadow="2"
     inkscape:pageopacity="0"
     guidetolerance="10.0"
     gridtolerance="10.0"
     objecttolerance="10.0"
     borderopacity="1.0"
     bordercolor="#666666"
     pagecolor="#ffffff"
     id="base"
     showgrid="false"
     inkscape:zoom="1.2288889"
     inkscape:cx="256.25004"
     inkscape:cy="213.29939"
     inkscape:window-x="127"
     inkscape:window-y="49"
     inkscape:current-layer="svg2" />
  <defs
     id="defs4">
    <linearGradient
       inkscape:collect="always"
       id="linearGradient3631">
      <stop
         style="stop-color:#ff9955;stop-opacity:1;"
         offset="0"
         id="stop3633" />
      <stop
         style="stop-color:#ff9955;stop-opacity:0;"
         offset="1"
         id="stop3635" />
    </linearGradient>
    <inkscape:perspective
       sodipodi:type="inkscape:persp3d"
       inkscape:vp_x="0 : 200 : 1"
       inkscape:vp_y="0 : 1000 : 0"
       inkscape:vp_z="450 : 200 : 1"
       inkscape:persp3d-origin="225 : 133.33333 : 1"
       id="perspective2832" />
    <linearGradient
       id="linearGradient3375">
      <stop
         id="stop3377"
         style="stop-color: rgb(255, 255, 255); stop-opacity: 0;"
         offset="0" />
      <stop
         id="stop3379"
         style="stop-color: rgb(255, 255, 255); stop-opacity: 0.0980392;"
         offset="0.11315836" />
      <stop
         id="stop3381"
         style="stop-color: rgb(255, 255, 255); stop-opacity: 0;"
         offset="1" />
    </linearGradient>
    <linearGradient
       id="linearGradient3363">
      <stop
         id="stop3365"
         style="stop-color: rgb(0, 0, 0); stop-opacity: 1;"
         offset="0" />
      <stop
         id="stop3367"
         style="stop-color: rgb(0, 0, 0); stop-opacity: 0;"
         offset="1" />
    </linearGradient>
    <linearGradient
       id="linearGradient3287">
      <stop
         id="stop3289"
         style="stop-color: rgb(255, 255, 255); stop-opacity: 0;"
         offset="0" />
      <stop
         id="stop3371"
         style="stop-color: rgb(255, 255, 255); stop-opacity: 0.0980392;"
         offset="0.5" />
      <stop
         id="stop3291"
         style="stop-color: rgb(255, 255, 255); stop-opacity: 0;"
         offset="1" />
    </linearGradient>
    <linearGradient
       id="linearGradient3279">
      <stop
         id="stop3281"
         style="stop-color: rgb(0, 176, 255); stop-opacity: 0.0816327;"
         offset="0" />
      <stop
         id="stop3283"
         style="stop-color: rgb(0, 176, 255); stop-opacity: 0;"
         offset="1" />
    </linearGradient>
    <linearGradient
       x1="409.78943"
       y1="-268.54987"
       x2="409.78943"
       y2="-340.90506"
       id="linearGradient3285"
       xlink:href="#linearGradient3279"
       gradientUnits="userSpaceOnUse" />
    <linearGradient
       x1="234.79814"
       y1="-196.93053"
       x2="235.53168"
       y2="-283.73892"
       id="linearGradient3293"
       xlink:href="#linearGradient3287"
       gradientUnits="userSpaceOnUse" />
    <filter
       id="filter3325">
      <feGaussianBlur
         id="feGaussianBlur3327"
         stdDeviation="1.9059608"
         inkscape:collect="always" />
    </filter>
    <linearGradient
       x1="234.79814"
       y1="-196.93053"
       x2="235.53168"
       y2="-283.73892"
       id="linearGradient3355"
       xlink:href="#linearGradient3287"
       gradientUnits="userSpaceOnUse"
       gradientTransform="translate(6.79032e-06, -50.7143)" />
    <linearGradient
       x1="409.78943"
       y1="-268.54987"
       x2="409.78943"
       y2="-340.90506"
       id="linearGradient3357"
       xlink:href="#linearGradient3279"
       gradientUnits="userSpaceOnUse"
       gradientTransform="translate(6.79032e-06, -50.7143)" />
    <linearGradient
       x1="15.512423"
       y1="-252.47757"
       x2="412.67453"
       y2="-252.47757"
       id="linearGradient3369"
       xlink:href="#linearGradient3363"
       gradientUnits="userSpaceOnUse" />
    <linearGradient
       x1="234.08386"
       y1="-160.50195"
       x2="235.53168"
       y2="-283.73892"
       id="linearGradient3373"
       xlink:href="#linearGradient3375"
       gradientUnits="userSpaceOnUse"
       gradientTransform="translate(6.79032e-6,-50.7143)" />
    <linearGradient
       x1="409.78943"
       y1="-217.83559"
       x2="409.78943"
       y2="-290.19077"
       id="linearGradient3383"
       xlink:href="#linearGradient3279"
       gradientUnits="userSpaceOnUse"
       gradientTransform="translate(6.79032e-6,-50.7143)" />
    <filter
       id="filter3389">
      <feGaussianBlur
         id="feGaussianBlur3391"
         stdDeviation="0.60875764"
         inkscape:collect="always" />
    </filter>
    <linearGradient
       inkscape:collect="always"
       xlink:href="#linearGradient3279"
       id="linearGradient2839"
       gradientUnits="userSpaceOnUse"
       gradientTransform="translate(6.79032e-6,-50.7143)"
       x1="409.78943"
       y1="-217.83559"
       x2="409.78943"
       y2="-290.19077" />
    <linearGradient
       inkscape:collect="always"
       xlink:href="#linearGradient3375"
       id="linearGradient2841"
       gradientUnits="userSpaceOnUse"
       gradientTransform="translate(6.79032e-6,-50.7143)"
       x1="234.08386"
       y1="-160.50195"
       x2="235.53168"
       y2="-283.73892" />
    <filter
       inkscape:collect="always"
       id="filter3627">
      <feGaussianBlur
         inkscape:collect="always"
         stdDeviation="0.52030525"
         id="feGaussianBlur3629" />
    </filter>
    <linearGradient
       inkscape:collect="always"
       xlink:href="#linearGradient3631"
       id="linearGradient3637"
       x1="404.06171"
       y1="2.4881437"
       x2="404.06171"
       y2="-309.99289"
       gradientUnits="userSpaceOnUse" />
  </defs>
  <path
     d="M 43.4053,152.39731 C 43.405254,162.09508 36.034182,166.94395 21.292062,166.94395 L 15.543793,166.94395 C 8.465981,166.94395 3.284724,164.87145 5e-06,160.72644 L 4.39919,158.08693 C 7.097347,160.86331 10.812211,162.25149 15.543793,162.25149 L 24.870066,162.25149 C 33.942127,162.25149 38.478171,159.08408 38.478213,152.74925 C 38.478171,147.31383 34.157198,143.40345 25.51528,141.01809 L 14.546644,137.96798 C 5.122604,135.34806 0.410592,130.51873 0.410596,123.48 C 0.410592,114.64258 6.373927,110.22385 18.300616,110.22379 L 23.814262,110.22379 L 23.814262,110.16513 L 27.040331,110.16513 C 34.196302,110.16519 39.358008,112.15949 42.525463,116.14802 L 38.126278,118.78754 C 35.545384,116.12852 31.674105,114.79899 26.512429,114.79894 L 16.482286,114.79894 C 9.052539,114.79899 5.337675,117.77088 5.337683,123.71462 C 5.337675,128.21161 9.16985,131.53543 16.834221,133.68611 L 28.272103,136.91218 C 38.36086,139.76679 43.405254,144.9285 43.4053,152.39731 M 105.95094,166.94395 L 101.02386,166.94395 L 101.02386,156.38591 C 97.934604,160.68734 93.633184,163.9134 88.119584,166.06411 C 84.795714,167.35454 81.295924,167.99976 77.620194,167.99976 C 68.978215,167.99976 62.037285,165.28204 56.797383,159.8466 C 51.557459,154.37207 48.937502,147.29428 48.937505,138.6132 C 48.937502,129.77576 51.459699,122.69797 56.504104,117.3798 C 61.626695,111.90531 68.587177,109.16804 77.385574,109.16798 C 87.435224,109.16804 95.314644,113.35215 101.02386,121.72033 L 101.02386,110.16513 L 105.95094,110.16513 L 105.95094,166.94395 M 101.02386,149.17124 L 101.02386,141.48733 C 101.0238,133.54928 99.146824,127.0776 95.392904,122.07226 C 91.208744,116.44135 85.284514,113.62588 77.620194,113.62583 C 70.346849,113.62588 64.579034,115.97211 60.316731,120.66452 C 56.171711,125.20061 54.099208,131.14439 54.099216,138.49589 C 54.099208,145.96475 56.132607,151.92808 60.199419,156.38591 C 64.422619,161.03927 70.229538,163.36595 77.620194,163.36595 C 81.374134,163.36595 84.873924,162.56432 88.119584,160.96106 C 93.750494,158.18469 98.051914,154.25476 101.02386,149.17124 M 168.4471,138.6132 C 168.44704,147.29428 165.82708,154.37207 160.58722,159.8466 C 155.38636,165.28204 148.44543,167.99976 139.76441,167.99976 C 136.08862,167.99976 132.58883,167.35454 129.26502,166.06411 C 123.71226,163.9134 119.41084,160.68734 116.36074,156.38591 L 116.36074,166.94395 L 111.43366,166.94395 L 111.375,166.8853 L 111.375,83.183467 L 116.30209,83.183467 L 116.30209,121.72033 C 122.05034,113.35215 129.94932,109.16804 139.99903,109.16798 C 148.79736,109.16804 155.75785,111.90531 160.8805,117.3798 C 165.92484,122.69797 168.44704,129.77576 168.4471,138.6132 M 163.28539,138.49589 C 163.28533,131.1835 161.21283,125.23972 157.06787,120.66452 C 152.80551,115.97211 147.03769,113.62588 139.76441,113.62583 C 132.02182,113.62588 126.07804,116.4218 121.93305,122.01361 C 118.21817,126.97984 116.36074,133.47107 116.36074,141.48733 L 116.36074,149.17124 C 119.33263,154.25476 123.63405,158.18469 129.26502,160.96106 C 132.51062,162.56432 136.01041,163.36595 139.76441,163.36595 C 147.0768,163.36595 152.86416,161.01972 157.12653,156.32725 C 161.23238,151.83032 163.28533,145.88654 163.28539,138.49589 M 230.82594,166.94395 L 225.89886,166.94395 L 225.89886,156.38591 C 222.8096,160.68734 218.50818,163.9134 212.99458,166.06411 C 209.67071,167.35454 206.17092,167.99976 202.49519,167.99976 C 193.85321,167.99976 186.91228,165.28204 181.67238,159.8466 C 176.43245,154.37207 173.8125,147.29428 173.8125,138.6132 C 173.8125,129.77576 176.3347,122.69797 181.3791,117.3798 C 186.50169,111.90531 193.46217,109.16804 202.26057,109.16798 C 212.31022,109.16804 220.18964,113.35215 225.89886,121.72033 L 225.89886,110.16513 L 230.82594,110.16513 L 230.82594,166.94395 M 225.89886,149.17124 L 225.89886,141.48733 C 225.8988,133.54928 224.02182,127.0776 220.2679,122.07226 C 216.08374,116.44135 210.15951,113.62588 202.49519,113.62583 C 195.22185,113.62588 189.45403,115.97211 185.19173,120.66452 C 181.04671,125.20061 178.9742,131.14439 178.97421,138.49589 C 178.9742,145.96475 181.0076,151.92808 185.07442,156.38591 C 189.29762,161.03927 195.10453,163.36595 202.49519,163.36595 C 206.24913,163.36595 209.74892,162.56432 212.99458,160.96106 C 218.62549,158.18469 222.92691,154.25476 225.89886,149.17124 M 282.94002,165.18428 C 282.93997,173.98264 280.53509,180.98223 275.72536,186.18306 C 270.75913,191.57936 263.91596,194.27753 255.19583,194.27756 C 248.50905,194.27753 242.19378,192.40055 236.25,188.6466 L 237.95102,183.71951 C 241.23574,186.10483 244.81374,187.70809 248.68503,188.52929 C 251.26587,189.07672 253.51434,189.35045 255.43045,189.35047 C 262.66464,189.35045 268.27604,187.10198 272.26466,182.60505 C 276.0968,178.30361 278.01289,172.4967 278.01293,165.18428 L 278.01293,159.43601 C 273.75057,165.14518 267.70903,167.99976 259.88829,167.99976 C 252.38033,167.99976 246.59296,165.53621 242.52617,160.60912 C 238.73309,156.07309 236.83656,149.97289 236.83656,142.30851 L 236.83656,110.22379 L 241.64633,110.22379 L 241.64633,143.89222 C 241.64633,149.64051 243.23003,154.31341 246.39746,157.91096 C 249.72127,161.70404 254.21821,163.60057 259.88829,163.60057 C 265.48011,163.60057 269.93795,161.68449 273.26181,157.8523 C 276.42918,154.21565 278.01289,149.5623 278.01293,143.89222 L 278.01293,110.22379 L 282.94002,110.22379 L 282.94002,165.18428 M 345.52932,138.6132 C 345.52926,147.17697 342.88975,154.21565 337.61078,159.72929 C 332.37082,165.24294 325.48854,167.99976 316.96394,167.99976 C 308.47838,167.99976 301.57655,165.24294 296.25844,159.72929 C 290.94031,154.17655 288.28125,147.13786 288.28125,138.6132 C 288.28125,130.08859 290.94031,123.0499 296.25844,117.49711 C 301.57655,111.94441 308.47838,109.16804 316.96394,109.16798 C 325.48854,109.16804 332.40992,111.96397 337.72809,117.55576 C 342.92885,123.03035 345.52926,130.04949 345.52932,138.6132 M 340.36761,138.49589 C 340.36755,131.26171 338.29505,125.33748 334.15009,120.72318 C 329.88772,115.99166 324.15901,113.62588 316.96394,113.62583 C 309.7688,113.62588 304.00099,115.99166 299.66048,120.72318 C 295.51546,125.29837 293.44295,131.2226 293.44296,138.49589 C 293.44295,145.76923 295.51546,151.69346 299.66048,156.2686 C 303.96188,161.00017 309.7297,163.36595 316.96394,163.36595 C 324.08081,163.36595 329.78996,160.98062 334.09143,156.20994 C 338.2755,151.55659 340.36755,145.65192 340.36761,138.49589 M 397.16212,166.94395 L 392.35234,166.94395 L 392.35234,133.33418 C 392.3523,127.66415 390.74904,123.0108 387.54257,119.37409 C 384.1796,115.54197 379.70221,113.62588 374.11039,113.62583 C 368.55762,113.62588 364.13889,115.30734 360.85418,118.67022 C 357.56944,121.9941 355.92708,126.43238 355.92709,131.98509 L 355.92709,166.82664 L 355.86843,166.82664 L 355.86843,166.94395 L 351.05866,166.94395 L 351.05866,166.82664 L 351,166.82664 L 351,110.10648 L 355.92709,110.10648 L 355.92709,117.9077 C 360.15029,112.08128 366.21139,109.16804 374.11039,109.16798 C 381.54009,109.16804 387.3079,111.65114 391.41385,116.61727 C 395.24598,121.19247 397.16207,127.27312 397.16212,134.85923 L 397.16212,166.94395"
     id="text2481"
     style="font-size:122px;font-style:normal;font-variant:normal;font-weight:normal;font-stretch:normal;text-align:start;line-height:125%;text-anchor:start;fill:#ffffff;fill-opacity:1;stroke:none;stroke-width:1px;stroke-linecap:butt;stroke-linejoin:miter;stroke-opacity:1;font-family:Cicle" />
  <path
     d="M 418.97516,102.48226 L 408.78778,102.48226 L 408.78778,122.65822 L 404.31528,122.65822 L 404.31528,102.48226 L 376.28758,102.48226 C 371.81507,102.48228 369.57882,101.1074 369.57882,98.357616 C 369.57882,96.833677 370.15859,95.293149 371.31813,93.736028 L 403.71894,50.303034 L 408.78778,50.303034 L 408.78778,98.755174 L 418.97516,98.755174 L 418.97516,102.48226 M 404.31528,98.755174 L 404.31528,56.316068 L 375.1943,95.574724 C 374.79674,96.104825 374.59796,96.717724 374.59797,97.413421 C 374.59796,98.307946 375.57528,98.755194 377.52994,98.755174 L 404.31528,98.755174"
     id="text2485"
     style="font-size:14px;font-style:normal;font-variant:normal;font-weight:normal;font-stretch:normal;text-align:start;line-height:125%;text-anchor:start;fill:#00b0ff;fill-opacity:1;stroke:none;stroke-width:1px;stroke-linecap:butt;stroke-linejoin:miter;stroke-opacity:1;font-family:Asenine" />
  <path
     style="font-size:122px;font-style:normal;font-variant:normal;font-weight:normal;font-stretch:normal;text-align:start;line-height:125%;text-anchor:start;fill:url(#linearGradient2841);fill-opacity:1;stroke:none;stroke-width:1px;stroke-linecap:butt;stroke-linejoin:miter;stroke-opacity:1;filter:url(#filter3325);font-family:Cicle"
     id="text3267"
     transform="matrix(1,0,0,-1,-15.512423,-52.341786)"
     d="M 58.917718,-238.81077 C 58.917672,-229.113 51.5466,-224.26413 36.80448,-224.26413 L 31.056211,-224.26413 C 23.978399,-224.26413 18.797142,-226.33663 15.512423,-230.48164 L 19.911608,-233.12116 C 22.609765,-230.34478 26.324629,-228.95659 31.056211,-228.95659 L 40.382484,-228.95659 C 49.454545,-228.95659 53.990589,-232.124 53.990631,-238.45883 C 53.990589,-243.89425 49.669616,-247.80464 41.027698,-250.19 L 30.059062,-253.2401 C 20.635022,-255.86002 15.92301,-260.68935 15.923013,-267.72808 C 15.92301,-276.5655 21.886344,-280.98424 33.813034,-280.98429 L 39.326679,-280.98429 L 39.326679,-281.04295 L 42.552749,-281.04295 C 49.70872,-281.04289 54.870425,-279.0486 58.037881,-275.06006 L 53.638696,-272.42055 C 51.057802,-275.07956 47.186523,-276.40909 42.024846,-276.40914 L 31.994704,-276.40914 C 24.564957,-276.40909 20.850093,-273.4372 20.850101,-267.49346 C 20.850093,-262.99647 24.682268,-259.67265 32.346639,-257.52197 L 43.784521,-254.2959 C 53.873278,-251.44129 58.917672,-246.27959 58.917718,-238.81077 M 121.46336,-224.26413 L 116.53628,-224.26413 L 116.53628,-234.82217 C 113.44702,-230.52074 109.1456,-227.29468 103.632,-225.14397 C 100.30813,-223.85354 96.80834,-223.20833 93.132611,-223.20833 C 84.490633,-223.20833 77.549703,-225.92604 72.309801,-231.36148 C 67.069877,-236.83601 64.44992,-243.9138 64.449923,-252.59488 C 64.44992,-261.43232 66.972117,-268.51011 72.016522,-273.82828 C 77.139113,-279.30277 84.099595,-282.04004 92.897988,-282.0401 C 102.94764,-282.04004 110.82706,-277.85593 116.53628,-269.48775 L 116.53628,-281.04295 L 121.46336,-281.04295 L 121.46336,-224.26413 M 116.53628,-242.03684 L 116.53628,-249.72075 C 116.53622,-257.6588 114.65924,-264.13048 110.90532,-269.13582 C 106.72116,-274.76673 100.79693,-277.5822 93.132611,-277.58226 C 85.859267,-277.5822 80.091452,-275.23597 75.829149,-270.54356 C 71.684129,-266.00747 69.611626,-260.06369 69.611634,-252.71219 C 69.611626,-245.24333 71.645025,-239.28 75.711837,-234.82217 C 79.935037,-230.16881 85.741956,-227.84213 93.132611,-227.84213 C 96.886547,-227.84213 100.38634,-228.64376 103.632,-230.24702 C 109.26291,-233.02339 113.56433,-236.95332 116.53628,-242.03684 M 183.95952,-252.59488 C 183.95946,-243.9138 181.3395,-236.83601 176.09964,-231.36148 C 170.89878,-225.92604 163.95785,-223.20833 155.27683,-223.20833 C 151.60104,-223.20833 148.10125,-223.85354 144.77744,-225.14397 C 139.22468,-227.29468 134.92326,-230.52074 131.87317,-234.82217 L 131.87317,-224.26413 L 126.94608,-224.26413 L 126.88742,-224.32279 L 126.88742,-308.02462 L 131.81451,-308.02462 L 131.81451,-269.48775 C 137.56277,-277.85593 145.46174,-282.04004 155.51146,-282.0401 C 164.30979,-282.04004 171.27027,-279.30277 176.39292,-273.82828 C 181.43726,-268.51011 183.95946,-261.43232 183.95952,-252.59488 M 178.79781,-252.71219 C 178.79776,-260.02458 176.72525,-265.96836 172.58029,-270.54356 C 168.31793,-275.23597 162.55011,-277.5822 155.27683,-277.58226 C 147.53424,-277.5822 141.59046,-274.78628 137.44547,-269.19448 C 133.73059,-264.22824 131.87316,-257.73701 131.87317,-249.72075 L 131.87317,-242.03684 C 134.84505,-236.95332 139.14647,-233.02339 144.77744,-230.24702 C 148.02304,-228.64376 151.52283,-227.84213 155.27683,-227.84213 C 162.58922,-227.84213 168.37658,-230.18836 172.63895,-234.88083 C 176.7448,-239.37776 178.79776,-245.32154 178.79781,-252.71219 M 246.33836,-224.26413 L 241.41128,-224.26413 L 241.41128,-234.82217 C 238.32202,-230.52074 234.0206,-227.29468 228.507,-225.14397 C 225.18313,-223.85354 221.68334,-223.20833 218.00761,-223.20833 C 209.36563,-223.20833 202.4247,-225.92604 197.1848,-231.36148 C 191.94488,-236.83601 189.32492,-243.9138 189.32492,-252.59488 C 189.32492,-261.43232 191.84712,-268.51011 196.89152,-273.82828 C 202.01411,-279.30277 208.97459,-282.04004 217.77299,-282.0401 C 227.82264,-282.04004 235.70206,-277.85593 241.41128,-269.48775 L 241.41128,-281.04295 L 246.33836,-281.04295 L 246.33836,-224.26413 M 241.41128,-242.03684 L 241.41128,-249.72075 C 241.41122,-257.6588 239.53424,-264.13048 235.78032,-269.13582 C 231.59616,-274.76673 225.67193,-277.5822 218.00761,-277.58226 C 210.73427,-277.5822 204.96645,-275.23597 200.70415,-270.54356 C 196.55913,-266.00747 194.48663,-260.06369 194.48663,-252.71219 C 194.48663,-245.24333 196.52002,-239.28 200.58684,-234.82217 C 204.81004,-230.16881 210.61696,-227.84213 218.00761,-227.84213 C 221.76155,-227.84213 225.26134,-228.64376 228.507,-230.24702 C 234.13791,-233.02339 238.43933,-236.95332 241.41128,-242.03684 M 298.45244,-226.0238 C 298.45239,-217.22544 296.04751,-210.22585 291.23778,-205.02503 C 286.27155,-199.62872 279.42838,-196.93055 270.70825,-196.93052 C 264.02147,-196.93055 257.7062,-198.80754 251.76242,-202.56148 L 253.46344,-207.48857 C 256.74816,-205.10325 260.32616,-203.5 264.19745,-202.67879 C 266.77829,-202.13136 269.02676,-201.85763 270.94287,-201.85761 C 278.17706,-201.85763 283.78846,-204.1061 287.77709,-208.60303 C 291.60922,-212.90447 293.52531,-218.71139 293.52536,-226.0238 L 293.52536,-231.77207 C 289.26299,-226.06291 283.22145,-223.20833 275.40071,-223.20833 C 267.89275,-223.20833 262.10538,-225.67187 258.03859,-230.59896 C 254.24551,-235.13499 252.34898,-241.23519 252.34898,-248.89957 L 252.34898,-280.98429 L 257.15876,-280.98429 L 257.15876,-247.31586 C 257.15875,-241.56757 258.74245,-236.89467 261.90988,-233.29712 C 265.23369,-229.50404 269.73063,-227.60751 275.40071,-227.60751 C 280.99253,-227.60751 285.45037,-229.52359 288.77424,-233.35578 C 291.94161,-236.99243 293.52531,-241.64578 293.52536,-247.31586 L 293.52536,-280.98429 L 298.45244,-280.98429 L 298.45244,-226.0238 M 361.04174,-252.59488 C 361.04168,-244.03112 358.40217,-236.99243 353.1232,-231.47879 C 347.88324,-225.96515 341.00096,-223.20833 332.47636,-223.20833 C 323.9908,-223.20833 317.08897,-225.96515 311.77086,-231.47879 C 306.45273,-237.03153 303.79367,-244.07022 303.79367,-252.59488 C 303.79367,-261.11949 306.45273,-268.15818 311.77086,-273.71097 C 317.08897,-279.26367 323.9908,-282.04004 332.47636,-282.0401 C 341.00096,-282.04004 347.92234,-279.24412 353.24052,-273.65232 C 358.44127,-268.17773 361.04168,-261.15859 361.04174,-252.59488 M 355.88003,-252.71219 C 355.87997,-259.94638 353.80747,-265.87061 349.66251,-270.4849 C 345.40015,-275.21642 339.67143,-277.5822 332.47636,-277.58226 C 325.28122,-277.5822 319.51341,-275.21642 315.1729,-270.4849 C 311.02788,-265.90971 308.95538,-259.98548 308.95538,-252.71219 C 308.95538,-245.43885 311.02788,-239.51462 315.1729,-234.93949 C 319.47431,-230.20791 325.24212,-227.84213 332.47636,-227.84213 C 339.59323,-227.84213 345.30239,-230.22746 349.60386,-234.99814 C 353.78792,-239.65149 355.87997,-245.55617 355.88003,-252.71219 M 412.67454,-224.26413 L 407.86476,-224.26413 L 407.86476,-257.87391 C 407.86472,-263.54393 406.26146,-268.19728 403.05499,-271.83399 C 399.69202,-275.66611 395.21463,-277.5822 389.62281,-277.58226 C 384.07004,-277.5822 379.65131,-275.90074 376.3666,-272.53786 C 373.08186,-269.21398 371.4395,-264.7757 371.43951,-259.22299 L 371.43951,-224.38144 L 371.38085,-224.38144 L 371.38085,-224.26413 L 366.57108,-224.26413 L 366.57108,-224.38144 L 366.51242,-224.38144 L 366.51242,-281.1016 L 371.43951,-281.1016 L 371.43951,-273.30038 C 375.66272,-279.1268 381.72381,-282.04004 389.62281,-282.0401 C 397.05251,-282.04004 402.82033,-279.55695 406.92627,-274.59081 C 410.7584,-270.01561 412.67449,-263.93497 412.67454,-256.34885 L 412.67454,-224.26413" />
  <path
     style="font-size:14px;font-style:normal;font-variant:normal;font-weight:normal;font-stretch:normal;text-align:start;line-height:125%;text-anchor:start;fill:url(#linearGradient2839);fill-opacity:1;stroke:none;stroke-width:1px;stroke-linecap:butt;stroke-linejoin:miter;stroke-opacity:1;filter:url(#filter3389);font-family:Asenine"
     id="text3271"
     transform="matrix(1,0,0,-1,-15.512423,-52.341786)"
     d="M 434.48759,-288.72583 L 424.30022,-288.72583 L 424.30022,-268.54987 L 419.82771,-268.54987 L 419.82771,-288.72583 L 391.80001,-288.72583 C 387.3275,-288.72581 385.09125,-290.10069 385.09126,-292.85048 C 385.09125,-294.37442 385.67102,-295.91494 386.83056,-297.47207 L 419.23138,-340.90506 L 424.30022,-340.90506 L 424.30022,-292.45292 L 434.48759,-292.45292 L 434.48759,-288.72583 M 419.82771,-292.45292 L 419.82771,-334.89202 L 390.70674,-295.63337 C 390.30917,-295.10327 390.11039,-294.49037 390.1104,-293.79467 C 390.11039,-292.90015 391.08772,-292.4529 393.04238,-292.45292 L 419.82771,-292.45292" />
  <text
     xml:space="preserve"
     style="font-size:132.33230591px;font-style:normal;font-variant:normal;font-weight:normal;font-stretch:normal;fill:#ff9955;fill-opacity:1;stroke:none;stroke-width:1px;stroke-linecap:butt;stroke-linejoin:miter;stroke-opacity:1;font-family:Asenine;-inkscape-font-specification:Asenine"
     x="386.77118"
     y="131.22807"
     id="text2843"
     transform="scale(1.0742642,0.9308697)"><tspan
       sodipodi:role="line"
       id="tspan2845"
       x="386.77118"
       y="131.22807">.1</tspan></text>
  <text
     xml:space="preserve"
     style="font-size:132.33230591000000231px;font-style:normal;font-variant:normal;font-weight:normal;font-stretch:normal;fill:url(#linearGradient3637);fill-opacity:1;stroke:none;stroke-width:1px;stroke-linecap:butt;stroke-linejoin:miter;stroke-opacity:1;font-family:Asenine;-inkscape-font-specification:Asenine;filter:url(#filter3627)"
     x="386.77115"
     y="-232.80354"
     id="text3619"
     transform="scale(1.0742642,-0.9308697)"><tspan
       sodipodi:role="line"
       id="tspan3621"
       x="386.77115"
       y="-232.80354"
       style="fill-opacity:1;fill:url(#linearGradient3637)">.1</tspan></text>
</svg>
