<?xml version="1.0" encoding="UTF-8" standalone="no"?>
<!-- Created with Inkscape (http://www.inkscape.org/) -->
<svg
   xmlns:dc="http://purl.org/dc/elements/1.1/"
   xmlns:cc="http://creativecommons.org/ns#"
   xmlns:rdf="http://www.w3.org/1999/02/22-rdf-syntax-ns#"
   xmlns:svg="http://www.w3.org/2000/svg"
   xmlns="http://www.w3.org/2000/svg"
   xmlns:xlink="http://www.w3.org/1999/xlink"
   xmlns:sodipodi="http://sodipodi.sourceforge.net/DTD/sodipodi-0.dtd"
   xmlns:inkscape="http://www.inkscape.org/namespaces/inkscape"
   version="1.0"
   width="500"
   height="400"
   id="svg2"
   sodipodi:version="0.32"
   inkscape:version="0.46"
   sodipodi:docname="sabayon42logo_2.svg"
   inkscape:output_extension="org.inkscape.output.svg.inkscape">
  <metadata
     id="metadata10545">
    <rdf:RDF>
      <cc:Work
         rdf:about="">
        <dc:format>image/svg+xml</dc:format>
        <dc:type
           rdf:resource="http://purl.org/dc/dcmitype/StillImage" />
      </cc:Work>
    </rdf:RDF>
  </metadata>
  <sodipodi:namedview
     inkscape:window-height="979"
     inkscape:window-width="1680"
     inkscape:pageshadow="2"
     inkscape:pageopacity="0"
     guidetolerance="10.0"
     gridtolerance="10.0"
     objecttolerance="10.0"
     borderopacity="1.0"
     bordercolor="#666666"
     pagecolor="#000000"
     id="base"
     showgrid="false"
     inkscape:zoom="1.645791"
     inkscape:cx="273.96769"
     inkscape:cy="194.92105"
     inkscape:window-x="0"
     inkscape:window-y="24"
     inkscape:current-layer="svg2" />
  <defs
     id="defs4">
    <linearGradient
       inkscape:collect="always"
       id="linearGradient11076">
      <stop
         style="stop-color:#d4ff2a;stop-opacity:1;"
         offset="0"
         id="stop11078" />
      <stop
         style="stop-color:#d4ff2a;stop-opacity:0;"
         offset="1"
         id="stop11080" />
    </linearGradient>
    <inkscape:perspective
       sodipodi:type="inkscape:persp3d"
       inkscape:vp_x="0 : 200 : 1"
       inkscape:vp_y="0 : 1000 : 0"
       inkscape:vp_z="450 : 200 : 1"
       inkscape:persp3d-origin="225 : 133.33333 : 1"
       id="perspective10547" />
    <linearGradient
       id="linearGradient3303">
      <stop
         id="stop3305"
         style="stop-color: rgb(0, 0, 0); stop-opacity: 1;"
         offset="0" />
      <stop
         id="stop3307"
         style="stop-color: rgb(0, 0, 0); stop-opacity: 0;"
         offset="1" />
    </linearGradient>
    <linearGradient
       id="linearGradient3287">
      <stop
         id="stop3289"
         style="stop-color:#f5f5f5;stop-opacity:0;"
         offset="0" />
      <stop
         offset="0.5"
         style="stop-color:#f5f5f5;stop-opacity:0.26190478;"
         id="stop3198" />
      <stop
         id="stop3291"
         style="stop-color:#f5f5f5;stop-opacity:0;"
         offset="1" />
    </linearGradient>
    <linearGradient
       id="linearGradient3279">
      <stop
         id="stop3281"
         style="stop-color: rgb(0, 176, 255); stop-opacity: 0.0816327;"
         offset="0" />
      <stop
         id="stop3283"
         style="stop-color: rgb(0, 176, 255); stop-opacity: 0;"
         offset="1" />
    </linearGradient>
    <linearGradient
       x1="409.78943"
       y1="-268.54987"
       x2="409.78943"
       y2="-340.90506"
       id="linearGradient3285"
       xlink:href="#linearGradient3279"
       gradientUnits="userSpaceOnUse" />
    <linearGradient
       x1="234.79814"
       y1="-196.93053"
       x2="235.53168"
       y2="-283.73892"
       id="linearGradient3293"
       xlink:href="#linearGradient3287"
       gradientUnits="userSpaceOnUse" />
    <linearGradient
       x1="15.012423"
       y1="-252.47757"
       x2="413.17453"
       y2="-252.47757"
       id="linearGradient3311"
       xlink:href="#linearGradient3303"
       gradientUnits="userSpaceOnUse" />
    <filter
       id="filter3321">
      <feGaussianBlur
         id="feGaussianBlur3323"
         stdDeviation="0.60875764"
         inkscape:collect="always" />
    </filter>
    <filter
       id="filter3325">
      <feGaussianBlur
         id="feGaussianBlur3327"
         stdDeviation="1.9059608"
         inkscape:collect="always" />
    </filter>
    <filter
       inkscape:collect="always"
       id="filter11072">
      <feGaussianBlur
         inkscape:collect="always"
         stdDeviation="0.81824256"
         id="feGaussianBlur11074" />
    </filter>
    <linearGradient
       inkscape:collect="always"
       xlink:href="#linearGradient11076"
       id="linearGradient11082"
       x1="440.69299"
       y1="-67.706116"
       x2="440.69299"
       y2="-355.94003"
       gradientUnits="userSpaceOnUse" />
    <linearGradient
       inkscape:collect="always"
       xlink:href="#linearGradient3287"
       id="linearGradient3196"
       gradientUnits="userSpaceOnUse"
       x1="232.49362"
       y1="-190.21095"
       x2="232.49362"
       y2="-264.29538" />
  </defs>
  <rect
     style="opacity:1;fill:#000000;fill-opacity:0;stroke:none;stroke-width:8.19999980999999956;stroke-linejoin:round;stroke-miterlimit:4;stroke-dasharray:none;stroke-opacity:0.96078430999999997"
     id="rect2408"
     width="332.55521"
     height="107.46726"
     x="65.444771"
     y="40.430443"
     ry="0.54145861"
     inkscape:export-filename="/home/fabio/artwork/logos/logo_forum.png"
     inkscape:export-xdpi="87.933762"
     inkscape:export-ydpi="87.933762" />
  <path
     style="font-size:122px;font-style:normal;font-variant:normal;font-weight:normal;font-stretch:normal;text-align:start;line-height:125%;text-anchor:start;fill:#ffffff;fill-opacity:1;stroke:none;stroke-width:1px;stroke-linecap:butt;stroke-linejoin:miter;stroke-opacity:1;font-family:Cicle"
     id="text2481"
     d="M 105.15381,109.75051 C 105.15378,115.97699 100.42117,119.09021 90.955956,119.09021 L 87.265266,119.09021 C 82.720941,119.09021 79.394302,117.75957 77.285341,115.09825 L 80.109847,113.40355 C 81.842206,115.18613 84.227343,116.07742 87.265266,116.07742 L 93.253222,116.07742 C 99.07796,116.07742 101.99034,114.04377 101.99037,109.97648 C 101.99034,106.48665 99.21605,103.97599 93.667483,102.44446 L 86.625044,100.48613 C 80.574317,98.804 77.548959,95.70332 77.548961,91.18409 C 77.548959,85.51 81.377732,82.67294 89.035291,82.67291 L 92.57534,82.67291 L 92.57534,82.63524 L 94.646646,82.63524 C 99.24115,82.63528 102.55524,83.91573 104.58891,86.47657 L 101.7644,88.17128 C 100.10733,86.46405 97.621771,85.61042 94.307704,85.61039 L 87.867828,85.61039 C 83.097542,85.61042 80.712404,87.51853 80.71241,91.33473 C 80.712404,94.22203 83.172861,96.35609 88.093789,97.73694 L 95.437507,99.80825 C 101.91502,101.64106 105.15378,104.95515 105.15381,109.75051 M 145.31139,119.09021 L 142.14794,119.09021 L 142.14794,112.3114 C 140.16448,115.07315 137.40274,117.14444 133.86272,118.52531 C 131.72862,119.35384 129.48158,119.76811 127.12156,119.76811 C 121.57296,119.76811 117.11652,118.02319 113.75223,114.53335 C 110.38793,111.01842 108.70578,106.4741 108.70578,100.90039 C 108.70578,95.2263 110.32516,90.68198 113.56393,87.26744 C 116.8529,83.75253 121.32189,81.995057 126.97093,81.995017 C 133.42333,81.995057 138.48233,84.68147 142.14794,90.05429 L 142.14794,82.63524 L 145.31139,82.63524 L 145.31139,119.09021 M 142.14794,107.67921 L 142.14794,102.74573 C 142.1479,97.64909 140.94279,93.49393 138.53257,90.28024 C 135.84613,86.66491 132.04246,84.85722 127.12156,84.85719 C 122.4517,84.85722 118.74846,86.36362 116.01184,89.3764 C 113.35052,92.28881 112.01986,96.10503 112.01987,100.82507 C 112.01986,105.62047 113.32541,109.44925 115.93652,112.3114 C 118.64803,115.2991 122.37638,116.79295 127.12156,116.79295 C 129.53179,116.79295 131.77884,116.27827 133.86272,115.24889 C 137.47806,113.46631 140.2398,110.9431 142.14794,107.67921 M 185.4372,100.90039 C 185.43716,106.4741 183.75501,111.01842 180.39075,114.53335 C 177.05152,118.02319 172.59508,119.76811 167.02141,119.76811 C 164.66136,119.76811 162.41431,119.35384 160.28026,118.52531 C 156.71509,117.14444 153.95335,115.07315 151.99504,112.3114 L 151.99504,119.09021 L 148.83158,119.09021 L 148.79392,119.05256 L 148.79392,65.311599 L 151.95737,65.311599 L 151.95737,90.05429 C 155.64806,84.68147 160.71961,81.995057 167.17205,81.995017 C 172.82104,81.995057 177.29004,83.75253 180.57905,87.26744 C 183.81778,90.68198 185.43716,95.2263 185.4372,100.90039 M 182.12311,100.82507 C 182.12308,96.13014 180.79242,92.31392 178.13114,89.3764 C 175.39448,86.36362 171.69124,84.85722 167.02141,84.85719 C 162.05026,84.85722 158.23405,86.65236 155.57274,90.24259 C 153.1876,93.43116 151.99503,97.59888 151.99504,102.74573 L 151.99504,107.67921 C 153.90314,110.9431 156.66488,113.46631 160.28026,115.24889 C 162.3641,116.27827 164.61115,116.79295 167.02141,116.79295 C 171.71635,116.79295 175.43214,115.28655 178.1688,112.27374 C 180.80497,109.38648 182.12308,105.57026 182.12311,100.82507 M 225.48768,119.09021 L 222.32424,119.09021 L 222.32424,112.3114 C 220.34077,115.07315 217.57903,117.14444 214.03901,118.52531 C 211.90492,119.35384 209.65786,119.76811 207.29786,119.76811 C 201.74925,119.76811 197.29281,118.02319 193.92852,114.53335 C 190.56422,111.01842 188.88206,106.4741 188.88206,100.90039 C 188.88206,95.2263 190.50145,90.68198 193.74022,87.26744 C 197.02919,83.75253 201.49819,81.995057 207.14721,81.995017 C 213.59962,81.995057 218.65862,84.68147 222.32424,90.05429 L 222.32424,82.63524 L 225.48768,82.63524 L 225.48768,119.09021 M 222.32424,107.67921 L 222.32424,102.74573 C 222.3242,97.64909 221.11908,93.49393 218.70887,90.28024 C 216.02242,86.66491 212.21875,84.85722 207.29786,84.85719 C 202.62799,84.85722 198.92475,86.36362 196.18813,89.3764 C 193.52681,92.28881 192.19615,96.10503 192.19615,100.82507 C 192.19615,105.62047 193.5017,109.44925 196.11281,112.3114 C 198.82432,115.2991 202.55267,116.79295 207.29786,116.79295 C 209.70808,116.79295 211.95513,116.27827 214.03901,115.24889 C 217.65435,113.46631 220.41609,110.9431 222.32424,107.67921 M 258.94765,117.96042 C 258.94762,123.60943 257.40356,128.10353 254.31546,131.44273 C 251.12688,134.90744 246.73321,136.63981 241.13443,136.63983 C 236.84116,136.63981 232.78643,135.43469 228.97021,133.02446 L 230.06236,129.861 C 232.17132,131.3925 234.46858,132.42188 236.95415,132.94914 C 238.61119,133.30062 240.05482,133.47637 241.28506,133.47637 C 245.92979,133.47637 249.5326,132.03273 252.09351,129.14547 C 254.55394,126.38372 255.78417,122.65537 255.7842,117.96042 L 255.7842,114.26973 C 253.04754,117.93532 249.16856,119.76811 244.14723,119.76811 C 239.32672,119.76811 235.61093,118.18638 232.99985,115.02292 C 230.56448,112.11055 229.34682,108.19391 229.34682,103.27298 L 229.34682,82.67291 L 232.43494,82.67291 L 232.43494,104.2898 C 232.43493,107.98051 233.45176,110.98075 235.48541,113.29057 C 237.61947,115.72592 240.50674,116.94359 244.14723,116.94359 C 247.73747,116.94359 250.59964,115.71337 252.73374,113.2529 C 254.76735,110.91799 255.78417,107.93029 255.7842,104.2898 L 255.7842,82.67291 L 258.94765,82.67291 L 258.94765,117.96042 M 299.13325,100.90039 C 299.13321,106.39878 297.43851,110.91799 294.04914,114.45803 C 290.68481,117.99808 286.26603,119.76811 280.79278,119.76811 C 275.34461,119.76811 270.91328,117.99808 267.49877,114.45803 C 264.08425,110.89288 262.377,106.37367 262.377,100.90039 C 262.377,95.42715 264.08425,90.90794 267.49877,87.34276 C 270.91328,83.77763 275.34461,81.995057 280.79278,81.995017 C 286.26603,81.995057 290.70991,83.79019 294.12447,87.38042 C 297.46361,90.89539 299.13321,95.40205 299.13325,100.90039 M 295.81917,100.82507 C 295.81913,96.18035 294.48848,92.37669 291.82719,89.41407 C 289.09053,86.37618 285.4124,84.85722 280.79278,84.85719 C 276.17313,84.85722 272.4699,86.37618 269.68306,89.41407 C 267.02174,92.35158 265.69109,96.15524 265.69109,100.82507 C 265.69109,105.49494 267.02174,109.29861 269.68306,112.23608 C 272.44479,115.274 276.14803,116.79295 280.79278,116.79295 C 285.36219,116.79295 289.02777,115.26145 291.78954,112.19842 C 294.47593,109.21073 295.81913,105.41962 295.81917,100.82507 M 332.28421,119.09021 L 329.19609,119.09021 L 329.19609,97.51098 C 329.19606,93.87053 328.16669,90.88284 326.10796,88.54788 C 323.94876,86.08745 321.07404,84.85722 317.4838,84.85719 C 313.91863,84.85722 311.08158,85.93681 308.97262,88.09595 C 306.86364,90.23007 305.80916,93.07967 305.80917,96.6448 L 305.80917,119.0149 L 305.77151,119.0149 L 305.77151,119.09021 L 302.68338,119.09021 L 302.68338,119.0149 L 302.64572,119.0149 L 302.64572,82.59759 L 305.80917,82.59759 L 305.80917,87.60638 C 308.52069,83.86551 312.41223,81.995057 317.4838,81.995017 C 322.25405,81.995057 325.9573,83.58934 328.59352,86.77785 C 331.05395,89.71537 332.28418,93.61947 332.28421,98.49015 L 332.28421,119.09021" />
  <path
     style="font-size:14px;font-style:normal;font-variant:normal;font-weight:normal;font-stretch:normal;text-align:start;line-height:125%;text-anchor:start;fill:#00b0ff;fill-opacity:1;stroke:none;stroke-width:1px;stroke-linecap:butt;stroke-linejoin:miter;stroke-opacity:1;font-family:Asenine"
     id="text2485"
     d="M 346.28934,77.702441 L 339.74851,77.702441 L 339.74851,90.65646 L 336.87693,90.65646 L 336.87693,77.702441 L 318.88168,77.702441 C 316.01009,77.702449 314.5743,76.819708 314.57431,75.054201 C 314.5743,74.075745 314.94654,73.08665 315.69103,72.086897 L 336.49405,44.200639 L 339.74851,44.200639 L 339.74851,75.309447 L 346.28934,75.309447 L 346.28934,77.702441 M 336.87693,75.309447 L 336.87693,48.061322 L 318.17974,73.267438 C 317.92448,73.60779 317.79685,74.001304 317.79686,74.447978 C 317.79685,75.022304 318.42435,75.309463 319.67935,75.309447 L 336.87693,75.309447" />
  <path
     style="font-size:122px;font-style:normal;font-variant:normal;font-weight:normal;font-stretch:normal;text-align:start;line-height:125%;text-anchor:start;fill:url(#linearGradient3196);fill-opacity:1;stroke:none;stroke-width:1px;stroke-linecap:butt;stroke-linejoin:miter;stroke-opacity:1;filter:url(#filter3325);font-family:Cicle"
     id="text3267"
     transform="matrix(0.6420523,0,0,-0.6420523,67.325553,-22.528196)"
     d="M 58.917718,-238.81077 C 58.917672,-229.113 51.5466,-224.26413 36.80448,-224.26413 L 31.056211,-224.26413 C 23.978399,-224.26413 18.797142,-226.33663 15.512423,-230.48164 L 19.911608,-233.12116 C 22.609765,-230.34478 26.324629,-228.95659 31.056211,-228.95659 L 40.382484,-228.95659 C 49.454545,-228.95659 53.990589,-232.124 53.990631,-238.45883 C 53.990589,-243.89425 49.669616,-247.80464 41.027698,-250.19 L 30.059062,-253.2401 C 20.635022,-255.86002 15.92301,-260.68935 15.923013,-267.72808 C 15.92301,-276.5655 21.886344,-280.98424 33.813034,-280.98429 L 39.326679,-280.98429 L 39.326679,-281.04295 L 42.552749,-281.04295 C 49.70872,-281.04289 54.870425,-279.0486 58.037881,-275.06006 L 53.638696,-272.42055 C 51.057802,-275.07956 47.186523,-276.40909 42.024846,-276.40914 L 31.994704,-276.40914 C 24.564957,-276.40909 20.850093,-273.4372 20.850101,-267.49346 C 20.850093,-262.99647 24.682268,-259.67265 32.346639,-257.52197 L 43.784521,-254.2959 C 53.873278,-251.44129 58.917672,-246.27959 58.917718,-238.81077 M 121.46336,-224.26413 L 116.53628,-224.26413 L 116.53628,-234.82217 C 113.44702,-230.52074 109.1456,-227.29468 103.632,-225.14397 C 100.30813,-223.85354 96.80834,-223.20833 93.132611,-223.20833 C 84.490633,-223.20833 77.549703,-225.92604 72.309801,-231.36148 C 67.069877,-236.83601 64.44992,-243.9138 64.449923,-252.59488 C 64.44992,-261.43232 66.972117,-268.51011 72.016522,-273.82828 C 77.139113,-279.30277 84.099595,-282.04004 92.897988,-282.0401 C 102.94764,-282.04004 110.82706,-277.85593 116.53628,-269.48775 L 116.53628,-281.04295 L 121.46336,-281.04295 L 121.46336,-224.26413 M 116.53628,-242.03684 L 116.53628,-249.72075 C 116.53622,-257.6588 114.65924,-264.13048 110.90532,-269.13582 C 106.72116,-274.76673 100.79693,-277.5822 93.132611,-277.58226 C 85.859267,-277.5822 80.091452,-275.23597 75.829149,-270.54356 C 71.684129,-266.00747 69.611626,-260.06369 69.611634,-252.71219 C 69.611626,-245.24333 71.645025,-239.28 75.711837,-234.82217 C 79.935037,-230.16881 85.741956,-227.84213 93.132611,-227.84213 C 96.886547,-227.84213 100.38634,-228.64376 103.632,-230.24702 C 109.26291,-233.02339 113.56433,-236.95332 116.53628,-242.03684 M 183.95952,-252.59488 C 183.95946,-243.9138 181.3395,-236.83601 176.09964,-231.36148 C 170.89878,-225.92604 163.95785,-223.20833 155.27683,-223.20833 C 151.60104,-223.20833 148.10125,-223.85354 144.77744,-225.14397 C 139.22468,-227.29468 134.92326,-230.52074 131.87317,-234.82217 L 131.87317,-224.26413 L 126.94608,-224.26413 L 126.88742,-224.32279 L 126.88742,-308.02462 L 131.81451,-308.02462 L 131.81451,-269.48775 C 137.56277,-277.85593 145.46174,-282.04004 155.51146,-282.0401 C 164.30979,-282.04004 171.27027,-279.30277 176.39292,-273.82828 C 181.43726,-268.51011 183.95946,-261.43232 183.95952,-252.59488 M 178.79781,-252.71219 C 178.79776,-260.02458 176.72525,-265.96836 172.58029,-270.54356 C 168.31793,-275.23597 162.55011,-277.5822 155.27683,-277.58226 C 147.53424,-277.5822 141.59046,-274.78628 137.44547,-269.19448 C 133.73059,-264.22824 131.87316,-257.73701 131.87317,-249.72075 L 131.87317,-242.03684 C 134.84505,-236.95332 139.14647,-233.02339 144.77744,-230.24702 C 148.02304,-228.64376 151.52283,-227.84213 155.27683,-227.84213 C 162.58922,-227.84213 168.37658,-230.18836 172.63895,-234.88083 C 176.7448,-239.37776 178.79776,-245.32154 178.79781,-252.71219 M 246.33836,-224.26413 L 241.41128,-224.26413 L 241.41128,-234.82217 C 238.32202,-230.52074 234.0206,-227.29468 228.507,-225.14397 C 225.18313,-223.85354 221.68334,-223.20833 218.00761,-223.20833 C 209.36563,-223.20833 202.4247,-225.92604 197.1848,-231.36148 C 191.94488,-236.83601 189.32492,-243.9138 189.32492,-252.59488 C 189.32492,-261.43232 191.84712,-268.51011 196.89152,-273.82828 C 202.01411,-279.30277 208.97459,-282.04004 217.77299,-282.0401 C 227.82264,-282.04004 235.70206,-277.85593 241.41128,-269.48775 L 241.41128,-281.04295 L 246.33836,-281.04295 L 246.33836,-224.26413 M 241.41128,-242.03684 L 241.41128,-249.72075 C 241.41122,-257.6588 239.53424,-264.13048 235.78032,-269.13582 C 231.59616,-274.76673 225.67193,-277.5822 218.00761,-277.58226 C 210.73427,-277.5822 204.96645,-275.23597 200.70415,-270.54356 C 196.55913,-266.00747 194.48663,-260.06369 194.48663,-252.71219 C 194.48663,-245.24333 196.52002,-239.28 200.58684,-234.82217 C 204.81004,-230.16881 210.61696,-227.84213 218.00761,-227.84213 C 221.76155,-227.84213 225.26134,-228.64376 228.507,-230.24702 C 234.13791,-233.02339 238.43933,-236.95332 241.41128,-242.03684 M 298.45244,-226.0238 C 298.45239,-217.22544 296.04751,-210.22585 291.23778,-205.02503 C 286.27155,-199.62872 279.42838,-196.93055 270.70825,-196.93052 C 264.02147,-196.93055 257.7062,-198.80754 251.76242,-202.56148 L 253.46344,-207.48857 C 256.74816,-205.10325 260.32616,-203.5 264.19745,-202.67879 C 266.77829,-202.13136 269.02676,-201.85763 270.94287,-201.85761 C 278.17706,-201.85763 283.78846,-204.1061 287.77709,-208.60303 C 291.60922,-212.90447 293.52531,-218.71139 293.52536,-226.0238 L 293.52536,-231.77207 C 289.26299,-226.06291 283.22145,-223.20833 275.40071,-223.20833 C 267.89275,-223.20833 262.10538,-225.67187 258.03859,-230.59896 C 254.24551,-235.13499 252.34898,-241.23519 252.34898,-248.89957 L 252.34898,-280.98429 L 257.15876,-280.98429 L 257.15876,-247.31586 C 257.15875,-241.56757 258.74245,-236.89467 261.90988,-233.29712 C 265.23369,-229.50404 269.73063,-227.60751 275.40071,-227.60751 C 280.99253,-227.60751 285.45037,-229.52359 288.77424,-233.35578 C 291.94161,-236.99243 293.52531,-241.64578 293.52536,-247.31586 L 293.52536,-280.98429 L 298.45244,-280.98429 L 298.45244,-226.0238 M 361.04174,-252.59488 C 361.04168,-244.03112 358.40217,-236.99243 353.1232,-231.47879 C 347.88324,-225.96515 341.00096,-223.20833 332.47636,-223.20833 C 323.9908,-223.20833 317.08897,-225.96515 311.77086,-231.47879 C 306.45273,-237.03153 303.79367,-244.07022 303.79367,-252.59488 C 303.79367,-261.11949 306.45273,-268.15818 311.77086,-273.71097 C 317.08897,-279.26367 323.9908,-282.04004 332.47636,-282.0401 C 341.00096,-282.04004 347.92234,-279.24412 353.24052,-273.65232 C 358.44127,-268.17773 361.04168,-261.15859 361.04174,-252.59488 M 355.88003,-252.71219 C 355.87997,-259.94638 353.80747,-265.87061 349.66251,-270.4849 C 345.40015,-275.21642 339.67143,-277.5822 332.47636,-277.58226 C 325.28122,-277.5822 319.51341,-275.21642 315.1729,-270.4849 C 311.02788,-265.90971 308.95538,-259.98548 308.95538,-252.71219 C 308.95538,-245.43885 311.02788,-239.51462 315.1729,-234.93949 C 319.47431,-230.20791 325.24212,-227.84213 332.47636,-227.84213 C 339.59323,-227.84213 345.30239,-230.22746 349.60386,-234.99814 C 353.78792,-239.65149 355.87997,-245.55617 355.88003,-252.71219 M 412.67454,-224.26413 L 407.86476,-224.26413 L 407.86476,-257.87391 C 407.86472,-263.54393 406.26146,-268.19728 403.05499,-271.83399 C 399.69202,-275.66611 395.21463,-277.5822 389.62281,-277.58226 C 384.07004,-277.5822 379.65131,-275.90074 376.3666,-272.53786 C 373.08186,-269.21398 371.4395,-264.7757 371.43951,-259.22299 L 371.43951,-224.38144 L 371.38085,-224.38144 L 371.38085,-224.26413 L 366.57108,-224.26413 L 366.57108,-224.38144 L 366.51242,-224.38144 L 366.51242,-281.1016 L 371.43951,-281.1016 L 371.43951,-273.30038 C 375.66272,-279.1268 381.72381,-282.04004 389.62281,-282.0401 C 397.05251,-282.04004 402.82033,-279.55695 406.92627,-274.59081 C 410.7584,-270.01561 412.67449,-263.93497 412.67454,-256.34885 L 412.67454,-224.26413" />
  <text
     xml:space="preserve"
     style="font-size:69.68812561px;font-style:normal;font-variant:normal;font-weight:normal;font-stretch:normal;text-align:start;line-height:125%;writing-mode:lr-tb;text-anchor:start;fill:#d4ff2a;fill-opacity:1;stroke:none;stroke-width:1px;stroke-linecap:butt;stroke-linejoin:miter;stroke-opacity:1;font-family:Cicle;-inkscape-font-specification:Cicle"
     x="330.987"
     y="94.527306"
     id="text10555"
     sodipodi:linespacing="125%"
     transform="scale(1.0377796,0.9635958)"><tspan
       sodipodi:role="line"
       id="tspan10557"
       x="330.987"
       y="94.527306">.2</tspan></text>
</svg>
