<?xml version="1.0" encoding="UTF-8" standalone="no"?>
<!-- Created with Inkscape (http://www.inkscape.org/) -->

<svg
   xmlns:dc="http://purl.org/dc/elements/1.1/"
   xmlns:cc="http://creativecommons.org/ns#"
   xmlns:rdf="http://www.w3.org/1999/02/22-rdf-syntax-ns#"
   xmlns:svg="http://www.w3.org/2000/svg"
   xmlns="http://www.w3.org/2000/svg"
   xmlns:xlink="http://www.w3.org/1999/xlink"
   xmlns:sodipodi="http://sodipodi.sourceforge.net/DTD/sodipodi-0.dtd"
   xmlns:inkscape="http://www.inkscape.org/namespaces/inkscape"
   version="1.0"
   width="500"
   height="400"
   id="svg2"
   sodipodi:version="0.32"
   inkscape:version="0.47pre1 r21720"
   sodipodi:docname="sabayon42logo_small.svg"
   inkscape:output_extension="org.inkscape.output.svg.inkscape"
   inkscape:export-filename="/home/v00d00/build/sabayon/artwork/logos/sabayon42logo_small.png"
   inkscape:export-xdpi="90"
   inkscape:export-ydpi="90">
  <metadata
     id="metadata10545">
    <rdf:RDF>
      <cc:Work
         rdf:about="">
        <dc:format>image/svg+xml</dc:format>
        <dc:type
           rdf:resource="http://purl.org/dc/dcmitype/StillImage" />
        <dc:title></dc:title>
      </cc:Work>
    </rdf:RDF>
  </metadata>
  <sodipodi:namedview
     inkscape:window-height="1154"
     inkscape:window-width="1920"
     inkscape:pageshadow="2"
     inkscape:pageopacity="0"
     guidetolerance="10.0"
     gridtolerance="10.0"
     objecttolerance="10.0"
     borderopacity="1.0"
     bordercolor="#666666"
     pagecolor="#000000"
     id="base"
     showgrid="false"
     inkscape:zoom="1.645791"
     inkscape:cx="64.012184"
     inkscape:cy="195.22486"
     inkscape:window-x="0"
     inkscape:window-y="24"
     inkscape:current-layer="svg2"
     inkscape:window-maximized="1" />
  <defs
     id="defs4">
    <linearGradient
       inkscape:collect="always"
       id="linearGradient11076">
      <stop
         style="stop-color:#d4ff2a;stop-opacity:1;"
         offset="0"
         id="stop11078" />
      <stop
         style="stop-color:#d4ff2a;stop-opacity:0;"
         offset="1"
         id="stop11080" />
    </linearGradient>
    <inkscape:perspective
       sodipodi:type="inkscape:persp3d"
       inkscape:vp_x="0 : 200 : 1"
       inkscape:vp_y="0 : 1000 : 0"
       inkscape:vp_z="450 : 200 : 1"
       inkscape:persp3d-origin="225 : 133.33333 : 1"
       id="perspective10547" />
    <linearGradient
       id="linearGradient3303">
      <stop
         id="stop3305"
         style="stop-color: rgb(0, 0, 0); stop-opacity: 1;"
         offset="0" />
      <stop
         id="stop3307"
         style="stop-color: rgb(0, 0, 0); stop-opacity: 0;"
         offset="1" />
    </linearGradient>
    <linearGradient
       id="linearGradient3287">
      <stop
         id="stop3289"
         style="stop-color:#ffffff;stop-opacity:0;"
         offset="0" />
      <stop
         offset="0.35380778"
         style="stop-color:#ffffff;stop-opacity:0;"
         id="stop3739" />
      <stop
         id="stop3741"
         style="stop-color:#ffffff;stop-opacity:0.13541667;"
         offset="0.35380778" />
      <stop
         id="stop3291"
         style="stop-color: rgb(255, 255, 255); stop-opacity: 0;"
         offset="1" />
    </linearGradient>
    <linearGradient
       id="linearGradient3279">
      <stop
         id="stop3281"
         style="stop-color: rgb(0, 176, 255); stop-opacity: 0.0816327;"
         offset="0" />
      <stop
         id="stop3283"
         style="stop-color: rgb(0, 176, 255); stop-opacity: 0;"
         offset="1" />
    </linearGradient>
    <linearGradient
       x1="409.78943"
       y1="-268.54987"
       x2="409.78943"
       y2="-340.90506"
       id="linearGradient3285"
       xlink:href="#linearGradient3279"
       gradientUnits="userSpaceOnUse" />
    <linearGradient
       x1="235.53168"
       y1="-192.30154"
       x2="235.53168"
       y2="-283.73892"
       id="linearGradient3293"
       xlink:href="#linearGradient3287"
       gradientUnits="userSpaceOnUse" />
    <linearGradient
       x1="15.012423"
       y1="-252.47757"
       x2="413.17453"
       y2="-252.47757"
       id="linearGradient3311"
       xlink:href="#linearGradient3303"
       gradientUnits="userSpaceOnUse" />
    <filter
       id="filter3321">
      <feGaussianBlur
         id="feGaussianBlur3323"
         stdDeviation="0.60875764"
         inkscape:collect="always" />
    </filter>
    <filter
       id="filter3325">
      <feGaussianBlur
         id="feGaussianBlur3327"
         stdDeviation="1.9059608"
         inkscape:collect="always" />
    </filter>
    <filter
       inkscape:collect="always"
       id="filter11072">
      <feGaussianBlur
         inkscape:collect="always"
         stdDeviation="0.81824256"
         id="feGaussianBlur11074" />
    </filter>
    <linearGradient
       inkscape:collect="always"
       xlink:href="#linearGradient11076"
       id="linearGradient11082"
       x1="440.69299"
       y1="-67.706116"
       x2="440.69299"
       y2="-355.94003"
       gradientUnits="userSpaceOnUse" />
  </defs>
  <path
     style="font-size:122px;font-style:normal;font-variant:normal;font-weight:normal;font-stretch:normal;text-align:start;line-height:125%;text-anchor:start;fill:#ffffff;fill-opacity:1;stroke:none;stroke-width:1px;stroke-linecap:butt;stroke-linejoin:miter;stroke-opacity:1;font-family:Cicle"
     id="text2481"
     d="M 58.917718,154.0248 C 58.917672,163.72257 51.5466,168.57144 36.80448,168.57144 L 31.056211,168.57144 C 23.978399,168.57144 18.797142,166.49894 15.512423,162.35393 L 19.911608,159.71442 C 22.609765,162.4908 26.324629,163.87898 31.056211,163.87898 L 40.382484,163.87898 C 49.454545,163.87898 53.990589,160.71157 53.990631,154.37674 C 53.990589,148.94132 49.669616,145.03094 41.027698,142.64558 L 30.059062,139.59547 C 20.635022,136.97555 15.92301,132.14622 15.923013,125.10749 C 15.92301,116.27007 21.886344,111.85134 33.813034,111.85128 L 39.326679,111.85128 L 39.326679,111.79262 L 42.552749,111.79262 C 49.70872,111.79268 54.870425,113.78698 58.037881,117.77551 L 53.638696,120.41503 C 51.057802,117.75601 47.186523,116.42648 42.024846,116.42643 L 31.994704,116.42643 C 24.564957,116.42648 20.850093,119.39837 20.850101,125.34211 C 20.850093,129.8391 24.682268,133.16292 32.346639,135.3136 L 43.784521,138.53967 C 53.873278,141.39428 58.917672,146.55599 58.917718,154.0248 M 121.46336,168.57144 L 116.53628,168.57144 L 116.53628,158.0134 C 113.44702,162.31483 109.1456,165.54089 103.632,167.6916 C 100.30813,168.98203 96.80834,169.62725 93.132611,169.62725 C 84.490633,169.62725 77.549703,166.90953 72.309801,161.47409 C 67.069877,155.99956 64.44992,148.92177 64.449923,140.24069 C 64.44992,131.40325 66.972117,124.32546 72.016522,119.00729 C 77.139113,113.5328 84.099595,110.79553 92.897988,110.79547 C 102.94764,110.79553 110.82706,114.97964 116.53628,123.34782 L 116.53628,111.79262 L 121.46336,111.79262 L 121.46336,168.57144 M 116.53628,150.79873 L 116.53628,143.11482 C 116.53622,135.17677 114.65924,128.70509 110.90532,123.69975 C 106.72116,118.06884 100.79693,115.25337 93.132611,115.25332 C 85.859267,115.25337 80.091452,117.5996 75.829149,122.29201 C 71.684129,126.8281 69.611626,132.77188 69.611634,140.12338 C 69.611626,147.59224 71.645025,153.55557 75.711837,158.0134 C 79.935037,162.66676 85.741956,164.99344 93.132611,164.99344 C 96.886547,164.99344 100.38634,164.19181 103.632,162.58855 C 109.26291,159.81218 113.56433,155.88225 116.53628,150.79873 M 183.95952,140.24069 C 183.95946,148.92177 181.3395,155.99956 176.09964,161.47409 C 170.89878,166.90953 163.95785,169.62725 155.27683,169.62725 C 151.60104,169.62725 148.10125,168.98203 144.77744,167.6916 C 139.22468,165.54089 134.92326,162.31483 131.87317,158.0134 L 131.87317,168.57144 L 126.94608,168.57144 L 126.88742,168.51279 L 126.88742,84.810953 L 131.81451,84.810953 L 131.81451,123.34782 C 137.56277,114.97964 145.46174,110.79553 155.51146,110.79547 C 164.30979,110.79553 171.27027,113.5328 176.39292,119.00729 C 181.43726,124.32546 183.95946,131.40325 183.95952,140.24069 M 178.79781,140.12338 C 178.79776,132.81099 176.72525,126.86721 172.58029,122.29201 C 168.31793,117.5996 162.55011,115.25337 155.27683,115.25332 C 147.53424,115.25337 141.59046,118.04929 137.44547,123.6411 C 133.73059,128.60733 131.87316,135.09856 131.87317,143.11482 L 131.87317,150.79873 C 134.84505,155.88225 139.14647,159.81218 144.77744,162.58855 C 148.02304,164.19181 151.52283,164.99344 155.27683,164.99344 C 162.58922,164.99344 168.37658,162.64721 172.63895,157.95474 C 176.7448,153.45781 178.79776,147.51403 178.79781,140.12338 M 246.33836,168.57144 L 241.41128,168.57144 L 241.41128,158.0134 C 238.32202,162.31483 234.0206,165.54089 228.507,167.6916 C 225.18313,168.98203 221.68334,169.62725 218.00761,169.62725 C 209.36563,169.62725 202.4247,166.90953 197.1848,161.47409 C 191.94488,155.99956 189.32492,148.92177 189.32492,140.24069 C 189.32492,131.40325 191.84712,124.32546 196.89152,119.00729 C 202.01411,113.5328 208.97459,110.79553 217.77299,110.79547 C 227.82264,110.79553 235.70206,114.97964 241.41128,123.34782 L 241.41128,111.79262 L 246.33836,111.79262 L 246.33836,168.57144 M 241.41128,150.79873 L 241.41128,143.11482 C 241.41122,135.17677 239.53424,128.70509 235.78032,123.69975 C 231.59616,118.06884 225.67193,115.25337 218.00761,115.25332 C 210.73427,115.25337 204.96645,117.5996 200.70415,122.29201 C 196.55913,126.8281 194.48663,132.77188 194.48663,140.12338 C 194.48663,147.59224 196.52002,153.55557 200.58684,158.0134 C 204.81004,162.66676 210.61696,164.99344 218.00761,164.99344 C 221.76155,164.99344 225.26134,164.19181 228.507,162.58855 C 234.13791,159.81218 238.43933,155.88225 241.41128,150.79873 M 298.45244,166.81177 C 298.45239,175.61013 296.04751,182.60972 291.23778,187.81055 C 286.27155,193.20685 279.42838,195.90502 270.70825,195.90505 C 264.02147,195.90502 257.7062,194.02804 251.76242,190.27409 L 253.46344,185.347 C 256.74816,187.73232 260.32616,189.33558 264.19745,190.15678 C 266.77829,190.70421 269.02676,190.97794 270.94287,190.97796 C 278.17706,190.97794 283.78846,188.72947 287.77709,184.23254 C 291.60922,179.9311 293.52531,174.12419 293.52536,166.81177 L 293.52536,161.0635 C 289.26299,166.77267 283.22145,169.62725 275.40071,169.62725 C 267.89275,169.62725 262.10538,167.1637 258.03859,162.23661 C 254.24551,157.70058 252.34898,151.60038 252.34898,143.936 L 252.34898,111.85128 L 257.15876,111.85128 L 257.15876,145.51971 C 257.15875,151.268 258.74245,155.9409 261.90988,159.53845 C 265.23369,163.33153 269.73063,165.22806 275.40071,165.22806 C 280.99253,165.22806 285.45037,163.31198 288.77424,159.47979 C 291.94161,155.84314 293.52531,151.18979 293.52536,145.51971 L 293.52536,111.85128 L 298.45244,111.85128 L 298.45244,166.81177 M 361.04174,140.24069 C 361.04168,148.80446 358.40217,155.84314 353.1232,161.35678 C 347.88324,166.87043 341.00096,169.62725 332.47636,169.62725 C 323.9908,169.62725 317.08897,166.87043 311.77086,161.35678 C 306.45273,155.80404 303.79367,148.76535 303.79367,140.24069 C 303.79367,131.71608 306.45273,124.67739 311.77086,119.1246 C 317.08897,113.5719 323.9908,110.79553 332.47636,110.79547 C 341.00096,110.79553 347.92234,113.59146 353.24052,119.18325 C 358.44127,124.65784 361.04168,131.67698 361.04174,140.24069 M 355.88003,140.12338 C 355.87997,132.8892 353.80747,126.96497 349.66251,122.35067 C 345.40015,117.61915 339.67143,115.25337 332.47636,115.25332 C 325.28122,115.25337 319.51341,117.61915 315.1729,122.35067 C 311.02788,126.92586 308.95538,132.85009 308.95538,140.12338 C 308.95538,147.39672 311.02788,153.32095 315.1729,157.89609 C 319.47431,162.62766 325.24212,164.99344 332.47636,164.99344 C 339.59323,164.99344 345.30239,162.60811 349.60386,157.83743 C 353.78792,153.18408 355.87997,147.27941 355.88003,140.12338 M 412.67454,168.57144 L 407.86476,168.57144 L 407.86476,134.96167 C 407.86472,129.29164 406.26146,124.63829 403.05499,121.00158 C 399.69202,117.16946 395.21463,115.25337 389.62281,115.25332 C 384.07004,115.25337 379.65131,116.93483 376.3666,120.29771 C 373.08186,123.62159 371.4395,128.05987 371.43951,133.61258 L 371.43951,168.45413 L 371.38085,168.45413 L 371.38085,168.57144 L 366.57108,168.57144 L 366.57108,168.45413 L 366.51242,168.45413 L 366.51242,111.73397 L 371.43951,111.73397 L 371.43951,119.53519 C 375.66272,113.70877 381.72381,110.79553 389.62281,110.79547 C 397.05251,110.79553 402.82033,113.27863 406.92627,118.24476 C 410.7584,122.81996 412.67449,128.90061 412.67454,136.48672 L 412.67454,168.57144"
     inkscape:export-xdpi="90"
     inkscape:export-ydpi="90" />
  <path
     style="font-size:14px;font-style:normal;font-variant:normal;font-weight:normal;font-stretch:normal;text-align:start;line-height:125%;text-anchor:start;fill:#00b0ff;fill-opacity:1;stroke:none;stroke-width:1px;stroke-linecap:butt;stroke-linejoin:miter;stroke-opacity:1;font-family:Asenine"
     id="text2485"
     d="M 434.48759,104.10975 L 424.30022,104.10975 L 424.30022,124.28571 L 419.82771,124.28571 L 419.82771,104.10975 L 391.80001,104.10975 C 387.3275,104.10977 385.09125,102.73489 385.09126,99.985102 C 385.09125,98.461163 385.67102,96.920635 386.83056,95.363514 L 419.23138,51.93052 L 424.30022,51.93052 L 424.30022,100.38266 L 434.48759,100.38266 L 434.48759,104.10975 M 419.82771,100.38266 L 419.82771,57.943554 L 390.70674,97.20221 C 390.30917,97.732311 390.11039,98.34521 390.1104,99.040907 C 390.11039,99.935432 391.08772,100.38268 393.04238,100.38266 L 419.82771,100.38266" />
  <path
     style="font-size:122px;font-style:normal;font-variant:normal;font-weight:normal;font-stretch:normal;text-align:start;line-height:125%;text-anchor:start;fill:url(#linearGradient3293);fill-opacity:1;stroke:none;filter:url(#filter3325);font-family:Cicle"
     id="text3267"
     transform="matrix(1,0,0,-1,0,-53.46973)"
     d="m 58.917718,-238.81077 c -4.6e-5,9.69777 -7.371118,14.54664 -22.113238,14.54664 l -5.748269,0 c -7.077812,0 -12.259069,-2.0725 -15.543788,-6.21751 l 4.399185,-2.63952 c 2.698157,2.77638 6.413021,4.16457 11.144603,4.16457 l 9.326273,0 c 9.072061,0 13.608105,-3.16741 13.608147,-9.50224 -4.2e-5,-5.43542 -4.321015,-9.34581 -12.962933,-11.73117 l -10.968636,-3.0501 c -9.42404,-2.61992 -14.136052,-7.44925 -14.136049,-14.48798 -3e-6,-8.83742 5.963331,-13.25616 17.890021,-13.25621 l 5.513645,0 0,-0.0587 3.22607,0 c 7.155971,6e-5 12.317676,1.99435 15.485132,5.98289 l -4.399185,2.63951 c -2.580894,-2.65901 -6.452173,-3.98854 -11.61385,-3.98859 l -10.030142,0 c -7.429747,5e-5 -11.144611,2.97194 -11.144603,8.91568 -8e-6,4.49699 3.832167,7.82081 11.496538,9.97149 l 11.437882,3.22607 c 10.088757,2.85461 15.133151,8.01631 15.133197,15.48513 m 62.545642,14.54664 -4.92708,0 0,-10.55804 c -3.08926,4.30143 -7.39068,7.52749 -12.90428,9.6782 -3.32387,1.29043 -6.82366,1.93564 -10.499389,1.93564 -8.641978,0 -15.582908,-2.71771 -20.82281,-8.15315 -5.239924,-5.47453 -7.859881,-12.55232 -7.859878,-21.2334 -3e-6,-8.83744 2.522194,-15.91523 7.566599,-21.2334 5.122591,-5.47449 12.083073,-8.21176 20.881466,-8.21182 10.049652,6e-5 17.929072,4.18417 23.638292,12.55235 l 0,-11.5552 4.92708,0 0,56.77882 m -4.92708,-17.77271 0,-7.68391 c -6e-5,-7.93805 -1.87704,-14.40973 -5.63096,-19.41507 -4.18416,-5.63091 -10.10839,-8.44638 -17.772709,-8.44644 -7.273344,6e-5 -13.041159,2.34629 -17.303462,7.0387 -4.14502,4.53609 -6.217523,10.47987 -6.217515,17.83137 -8e-6,7.46886 2.033391,13.43219 6.100203,17.89002 4.2232,4.65336 10.030119,6.98004 17.420774,6.98004 3.753936,0 7.253729,-0.80163 10.499389,-2.40489 5.63091,-2.77637 9.93233,-6.7063 12.90428,-11.78982 m 67.42324,-10.55804 c -6e-5,8.68108 -2.62002,15.75887 -7.85988,21.2334 -5.20086,5.43544 -12.14179,8.15315 -20.82281,8.15315 -3.67579,0 -7.17558,-0.64521 -10.49939,-1.93564 -5.55276,-2.15071 -9.85418,-5.37677 -12.90427,-9.6782 l 0,10.55804 -4.92709,0 -0.0587,-0.0587 0,-83.70183 4.92709,0 0,38.53687 c 5.74826,-8.36818 13.64723,-12.55229 23.69695,-12.55235 8.79833,6e-5 15.75881,2.73733 20.88146,8.21182 5.04434,5.31817 7.56654,12.39596 7.5666,21.2334 m -5.16171,-0.11731 c -5e-5,-7.31239 -2.07256,-13.25617 -6.21752,-17.83137 -4.26236,-4.69241 -10.03018,-7.03864 -17.30346,-7.0387 -7.74259,6e-5 -13.68637,2.79598 -17.83136,8.38778 -3.71488,4.96624 -5.57231,11.45747 -5.5723,19.47373 l 0,7.68391 c 2.97188,5.08352 7.2733,9.01345 12.90427,11.78982 3.2456,1.60326 6.74539,2.40489 10.49939,2.40489 7.31239,0 13.09975,-2.34623 17.36212,-7.0387 4.10585,-4.49693 6.15881,-10.44071 6.15886,-17.83136 m 67.54055,28.44806 -4.92708,0 0,-10.55804 c -3.08926,4.30143 -7.39068,7.52749 -12.90428,9.6782 -3.32387,1.29043 -6.82366,1.93564 -10.49939,1.93564 -8.64198,0 -15.58291,-2.71771 -20.82281,-8.15315 -5.23992,-5.47453 -7.85988,-12.55232 -7.85988,-21.2334 0,-8.83744 2.5222,-15.91523 7.5666,-21.2334 5.12259,-5.47449 12.08307,-8.21176 20.88147,-8.21182 10.04965,6e-5 17.92907,4.18417 23.63829,12.55235 l 0,-11.5552 4.92708,0 0,56.77882 m -4.92708,-17.77271 0,-7.68391 c -6e-5,-7.93805 -1.87704,-14.40973 -5.63096,-19.41507 -4.18416,-5.63091 -10.10839,-8.44638 -17.77271,-8.44644 -7.27334,6e-5 -13.04116,2.34629 -17.30346,7.0387 -4.14502,4.53609 -6.21752,10.47987 -6.21752,17.83137 0,7.46886 2.03339,13.43219 6.10021,17.89002 4.2232,4.65336 10.03012,6.98004 17.42077,6.98004 3.75394,0 7.25373,-0.80163 10.49939,-2.40489 5.63091,-2.77637 9.93233,-6.7063 12.90428,-11.78982 m 57.04116,16.01304 c -5e-5,8.79836 -2.40493,15.79795 -7.21466,20.99877 -4.96623,5.39631 -11.8094,8.09448 -20.52953,8.09451 -6.68678,-3e-5 -13.00205,-1.87702 -18.94583,-5.63096 l 1.70102,-4.92709 c 3.28472,2.38532 6.86272,3.98857 10.73401,4.80978 2.58084,0.54743 4.82931,0.82116 6.74542,0.82118 7.23419,-2e-5 12.84559,-2.24849 16.83422,-6.74542 3.83213,-4.30144 5.74822,-10.10836 5.74827,-17.42077 l 0,-5.74827 c -4.26237,5.70916 -10.30391,8.56374 -18.12465,8.56374 -7.50796,0 -13.29533,-2.46354 -17.36212,-7.39063 -3.79308,-4.53603 -5.68961,-10.63623 -5.68961,-18.30061 l 0,-32.08472 4.80978,0 0,33.66843 c -10e-6,5.74829 1.58369,10.42119 4.75112,14.01874 3.32381,3.79308 7.82075,5.68961 13.49083,5.68961 5.59182,0 10.04966,-1.91608 13.37353,-5.74827 3.16737,-3.63665 4.75107,-8.29 4.75112,-13.96008 l 0,-33.66843 4.92708,0 0,54.96049 m 62.5893,-26.57108 c -6e-5,8.56376 -2.63957,15.60245 -7.91854,21.11609 -5.23996,5.51364 -12.12224,8.27046 -20.64684,8.27046 -8.48556,0 -15.38739,-2.75682 -20.7055,-8.27046 -5.31813,-5.55274 -7.97719,-12.59143 -7.97719,-21.11609 0,-8.52461 2.65906,-15.5633 7.97719,-21.11609 5.31811,-5.5527 12.21994,-8.32907 20.7055,-8.32913 8.5246,6e-5 15.44598,2.79598 20.76416,8.38778 5.20075,5.47459 7.80116,12.49373 7.80122,21.05744 m -5.16171,-0.11731 c -6e-5,-7.23419 -2.07256,-13.15842 -6.21752,-17.77271 -4.26236,-4.73152 -9.99108,-7.0973 -17.18615,-7.09736 -7.19514,6e-5 -12.96295,2.36584 -17.30346,7.09736 -4.14502,4.57519 -6.21752,10.49942 -6.21752,17.77271 0,7.27334 2.0725,13.19757 6.21752,17.7727 4.30141,4.73158 10.06922,7.09736 17.30346,7.09736 7.11687,0 12.82603,-2.38533 17.1275,-7.15601 4.18406,-4.65335 6.27611,-10.55803 6.27617,-17.71405 m 56.79451,28.44806 -4.80978,0 0,-33.60978 c -4e-5,-5.67002 -1.6033,-10.32337 -4.80977,-13.96008 -3.36297,-3.83212 -7.84036,-5.74821 -13.43218,-5.74827 -5.55277,6e-5 -9.9715,1.68152 -13.25621,5.0444 -3.28474,3.32388 -4.9271,7.76216 -4.92709,13.31487 l 0,34.84155 -0.0587,0 0,0.11731 -4.80977,0 0,-0.11731 -0.0587,0 0,-56.72016 4.92709,0 0,7.80122 c 4.22321,-5.82642 10.2843,-8.73966 18.1833,-8.73972 7.4297,6e-5 13.19752,2.48315 17.30346,7.44929 3.83213,4.5752 5.74822,10.65584 5.74827,18.24196 l 0,32.08472" />
  <path
     style="font-size:14px;font-style:normal;font-variant:normal;font-weight:normal;font-stretch:normal;text-align:start;line-height:125%;text-anchor:start;fill:url(#linearGradient3285);fill-opacity:1;stroke:none;filter:url(#filter3321);font-family:Asenine"
     id="text3271"
     transform="matrix(1,0,0,-1,0,-53.46973)"
     d="m 434.48759,-288.72583 -10.18737,0 0,20.17596 -4.47251,0 0,-20.17596 -28.0277,0 c -4.47251,2e-5 -6.70876,-1.37486 -6.70875,-4.12465 -10e-6,-1.52394 0.57976,-3.06446 1.7393,-4.62159 l 32.40082,-43.43299 5.06884,0 0,48.45214 10.18737,0 0,3.72709 m -14.65988,-3.72709 0,-42.4391 -29.12097,39.25865 c -0.39757,0.5301 -0.59635,1.143 -0.59634,1.8387 -1e-5,0.89452 0.97732,1.34177 2.93198,1.34175 l 26.78533,0" />
  <text
     xml:space="preserve"
     style="font-size:108.53962708px;font-style:normal;font-variant:normal;font-weight:normal;font-stretch:normal;text-align:start;line-height:125%;writing-mode:lr-tb;text-anchor:start;fill:#d4ff2a;fill-opacity:1;stroke:none;stroke-width:1px;stroke-linecap:butt;stroke-linejoin:miter;stroke-opacity:1;font-family:Cicle;-inkscape-font-specification:Cicle"
     x="414.47116"
     y="129.67555"
     id="text10555"
     sodipodi:linespacing="125%"
     transform="scale(1.0377796,0.9635958)"><tspan
       sodipodi:role="line"
       id="tspan10557"
       x="414.47116"
       y="129.67555">.2</tspan></text>
  <text
     transform="matrix(1.0377796,0,0,-0.9635958,0,-53.46973)"
     sodipodi:linespacing="125%"
     id="text11068"
     y="-278.83899"
     x="414.47116"
     style="font-size:108.53962708px;font-style:normal;font-variant:normal;font-weight:normal;font-stretch:normal;text-align:start;line-height:125%;writing-mode:lr-tb;text-anchor:start;opacity:0.8;fill:url(#linearGradient11082);fill-opacity:1;stroke:none;filter:url(#filter11072);font-family:Cicle;-inkscape-font-specification:Cicle"
     xml:space="preserve"><tspan
       y="-278.83899"
       x="414.47116"
       id="tspan11070"
       sodipodi:role="line"
       style="fill:url(#linearGradient11082);fill-opacity:1">.2</tspan></text>
</svg>
