<?xml version="1.0" encoding="UTF-8" standalone="no"?>
<!-- Created with Inkscape (http://www.inkscape.org/) -->
<svg
   xmlns:dc="http://purl.org/dc/elements/1.1/"
   xmlns:cc="http://creativecommons.org/ns#"
   xmlns:rdf="http://www.w3.org/1999/02/22-rdf-syntax-ns#"
   xmlns:svg="http://www.w3.org/2000/svg"
   xmlns="http://www.w3.org/2000/svg"
   xmlns:xlink="http://www.w3.org/1999/xlink"
   xmlns:sodipodi="http://sodipodi.sourceforge.net/DTD/sodipodi-0.dtd"
   xmlns:inkscape="http://www.inkscape.org/namespaces/inkscape"
   version="1.0"
   width="500"
   height="400"
   id="svg2"
   sodipodi:version="0.32"
   inkscape:version="0.46"
   sodipodi:docname="sabayon42logo.svg"
   inkscape:output_extension="org.inkscape.output.svg.inkscape">
  <metadata
     id="metadata10545">
    <rdf:RDF>
      <cc:Work
         rdf:about="">
        <dc:format>image/svg+xml</dc:format>
        <dc:type
           rdf:resource="http://purl.org/dc/dcmitype/StillImage" />
      </cc:Work>
    </rdf:RDF>
  </metadata>
  <sodipodi:namedview
     inkscape:window-height="1150"
     inkscape:window-width="1920"
     inkscape:pageshadow="2"
     inkscape:pageopacity="0"
     guidetolerance="10.0"
     gridtolerance="10.0"
     objecttolerance="10.0"
     borderopacity="1.0"
     bordercolor="#666666"
     pagecolor="#000000"
     id="base"
     showgrid="false"
     inkscape:zoom="1.645791"
     inkscape:cx="161.53368"
     inkscape:cy="194.92105"
     inkscape:window-x="0"
     inkscape:window-y="24"
     inkscape:current-layer="svg2" />
  <defs
     id="defs4">
    <linearGradient
       inkscape:collect="always"
       id="linearGradient11076">
      <stop
         style="stop-color:#d4ff2a;stop-opacity:1;"
         offset="0"
         id="stop11078" />
      <stop
         style="stop-color:#d4ff2a;stop-opacity:0;"
         offset="1"
         id="stop11080" />
    </linearGradient>
    <inkscape:perspective
       sodipodi:type="inkscape:persp3d"
       inkscape:vp_x="0 : 200 : 1"
       inkscape:vp_y="0 : 1000 : 0"
       inkscape:vp_z="450 : 200 : 1"
       inkscape:persp3d-origin="225 : 133.33333 : 1"
       id="perspective10547" />
    <linearGradient
       id="linearGradient3303">
      <stop
         id="stop3305"
         style="stop-color: rgb(0, 0, 0); stop-opacity: 1;"
         offset="0" />
      <stop
         id="stop3307"
         style="stop-color: rgb(0, 0, 0); stop-opacity: 0;"
         offset="1" />
    </linearGradient>
    <linearGradient
       id="linearGradient3287">
      <stop
         id="stop3289"
         style="stop-color: rgb(255, 255, 255); stop-opacity: 0.196078;"
         offset="0" />
      <stop
         id="stop3291"
         style="stop-color: rgb(255, 255, 255); stop-opacity: 0;"
         offset="1" />
    </linearGradient>
    <linearGradient
       id="linearGradient3279">
      <stop
         id="stop3281"
         style="stop-color: rgb(0, 176, 255); stop-opacity: 0.0816327;"
         offset="0" />
      <stop
         id="stop3283"
         style="stop-color: rgb(0, 176, 255); stop-opacity: 0;"
         offset="1" />
    </linearGradient>
    <linearGradient
       x1="409.78943"
       y1="-268.54987"
       x2="409.78943"
       y2="-340.90506"
       id="linearGradient3285"
       xlink:href="#linearGradient3279"
       gradientUnits="userSpaceOnUse" />
    <linearGradient
       x1="234.79814"
       y1="-196.93053"
       x2="235.53168"
       y2="-283.73892"
       id="linearGradient3293"
       xlink:href="#linearGradient3287"
       gradientUnits="userSpaceOnUse" />
    <linearGradient
       x1="15.012423"
       y1="-252.47757"
       x2="413.17453"
       y2="-252.47757"
       id="linearGradient3311"
       xlink:href="#linearGradient3303"
       gradientUnits="userSpaceOnUse" />
    <filter
       id="filter3321">
      <feGaussianBlur
         id="feGaussianBlur3323"
         stdDeviation="0.60875764"
         inkscape:collect="always" />
    </filter>
    <filter
       id="filter3325">
      <feGaussianBlur
         id="feGaussianBlur3327"
         stdDeviation="1.9059608"
         inkscape:collect="always" />
    </filter>
    <filter
       inkscape:collect="always"
       id="filter11072">
      <feGaussianBlur
         inkscape:collect="always"
         stdDeviation="0.81824256"
         id="feGaussianBlur11074" />
    </filter>
    <linearGradient
       inkscape:collect="always"
       xlink:href="#linearGradient11076"
       id="linearGradient11082"
       x1="440.69299"
       y1="-67.706116"
       x2="440.69299"
       y2="-355.94003"
       gradientUnits="userSpaceOnUse" />
  </defs>
  <path
     style="font-size:122px;font-style:normal;font-variant:normal;font-weight:normal;font-stretch:normal;text-align:start;line-height:125%;text-anchor:start;fill:#ffffff;fill-opacity:1;stroke:none;stroke-width:1px;stroke-linecap:butt;stroke-linejoin:miter;stroke-opacity:1;font-family:Cicle"
     id="text2481"
     d="M 58.917718,154.0248 C 58.917672,163.72257 51.5466,168.57144 36.80448,168.57144 L 31.056211,168.57144 C 23.978399,168.57144 18.797142,166.49894 15.512423,162.35393 L 19.911608,159.71442 C 22.609765,162.4908 26.324629,163.87898 31.056211,163.87898 L 40.382484,163.87898 C 49.454545,163.87898 53.990589,160.71157 53.990631,154.37674 C 53.990589,148.94132 49.669616,145.03094 41.027698,142.64558 L 30.059062,139.59547 C 20.635022,136.97555 15.92301,132.14622 15.923013,125.10749 C 15.92301,116.27007 21.886344,111.85134 33.813034,111.85128 L 39.326679,111.85128 L 39.326679,111.79262 L 42.552749,111.79262 C 49.70872,111.79268 54.870425,113.78698 58.037881,117.77551 L 53.638696,120.41503 C 51.057802,117.75601 47.186523,116.42648 42.024846,116.42643 L 31.994704,116.42643 C 24.564957,116.42648 20.850093,119.39837 20.850101,125.34211 C 20.850093,129.8391 24.682268,133.16292 32.346639,135.3136 L 43.784521,138.53967 C 53.873278,141.39428 58.917672,146.55599 58.917718,154.0248 M 121.46336,168.57144 L 116.53628,168.57144 L 116.53628,158.0134 C 113.44702,162.31483 109.1456,165.54089 103.632,167.6916 C 100.30813,168.98203 96.80834,169.62725 93.132611,169.62725 C 84.490633,169.62725 77.549703,166.90953 72.309801,161.47409 C 67.069877,155.99956 64.44992,148.92177 64.449923,140.24069 C 64.44992,131.40325 66.972117,124.32546 72.016522,119.00729 C 77.139113,113.5328 84.099595,110.79553 92.897988,110.79547 C 102.94764,110.79553 110.82706,114.97964 116.53628,123.34782 L 116.53628,111.79262 L 121.46336,111.79262 L 121.46336,168.57144 M 116.53628,150.79873 L 116.53628,143.11482 C 116.53622,135.17677 114.65924,128.70509 110.90532,123.69975 C 106.72116,118.06884 100.79693,115.25337 93.132611,115.25332 C 85.859267,115.25337 80.091452,117.5996 75.829149,122.29201 C 71.684129,126.8281 69.611626,132.77188 69.611634,140.12338 C 69.611626,147.59224 71.645025,153.55557 75.711837,158.0134 C 79.935037,162.66676 85.741956,164.99344 93.132611,164.99344 C 96.886547,164.99344 100.38634,164.19181 103.632,162.58855 C 109.26291,159.81218 113.56433,155.88225 116.53628,150.79873 M 183.95952,140.24069 C 183.95946,148.92177 181.3395,155.99956 176.09964,161.47409 C 170.89878,166.90953 163.95785,169.62725 155.27683,169.62725 C 151.60104,169.62725 148.10125,168.98203 144.77744,167.6916 C 139.22468,165.54089 134.92326,162.31483 131.87317,158.0134 L 131.87317,168.57144 L 126.94608,168.57144 L 126.88742,168.51279 L 126.88742,84.810953 L 131.81451,84.810953 L 131.81451,123.34782 C 137.56277,114.97964 145.46174,110.79553 155.51146,110.79547 C 164.30979,110.79553 171.27027,113.5328 176.39292,119.00729 C 181.43726,124.32546 183.95946,131.40325 183.95952,140.24069 M 178.79781,140.12338 C 178.79776,132.81099 176.72525,126.86721 172.58029,122.29201 C 168.31793,117.5996 162.55011,115.25337 155.27683,115.25332 C 147.53424,115.25337 141.59046,118.04929 137.44547,123.6411 C 133.73059,128.60733 131.87316,135.09856 131.87317,143.11482 L 131.87317,150.79873 C 134.84505,155.88225 139.14647,159.81218 144.77744,162.58855 C 148.02304,164.19181 151.52283,164.99344 155.27683,164.99344 C 162.58922,164.99344 168.37658,162.64721 172.63895,157.95474 C 176.7448,153.45781 178.79776,147.51403 178.79781,140.12338 M 246.33836,168.57144 L 241.41128,168.57144 L 241.41128,158.0134 C 238.32202,162.31483 234.0206,165.54089 228.507,167.6916 C 225.18313,168.98203 221.68334,169.62725 218.00761,169.62725 C 209.36563,169.62725 202.4247,166.90953 197.1848,161.47409 C 191.94488,155.99956 189.32492,148.92177 189.32492,140.24069 C 189.32492,131.40325 191.84712,124.32546 196.89152,119.00729 C 202.01411,113.5328 208.97459,110.79553 217.77299,110.79547 C 227.82264,110.79553 235.70206,114.97964 241.41128,123.34782 L 241.41128,111.79262 L 246.33836,111.79262 L 246.33836,168.57144 M 241.41128,150.79873 L 241.41128,143.11482 C 241.41122,135.17677 239.53424,128.70509 235.78032,123.69975 C 231.59616,118.06884 225.67193,115.25337 218.00761,115.25332 C 210.73427,115.25337 204.96645,117.5996 200.70415,122.29201 C 196.55913,126.8281 194.48663,132.77188 194.48663,140.12338 C 194.48663,147.59224 196.52002,153.55557 200.58684,158.0134 C 204.81004,162.66676 210.61696,164.99344 218.00761,164.99344 C 221.76155,164.99344 225.26134,164.19181 228.507,162.58855 C 234.13791,159.81218 238.43933,155.88225 241.41128,150.79873 M 298.45244,166.81177 C 298.45239,175.61013 296.04751,182.60972 291.23778,187.81055 C 286.27155,193.20685 279.42838,195.90502 270.70825,195.90505 C 264.02147,195.90502 257.7062,194.02804 251.76242,190.27409 L 253.46344,185.347 C 256.74816,187.73232 260.32616,189.33558 264.19745,190.15678 C 266.77829,190.70421 269.02676,190.97794 270.94287,190.97796 C 278.17706,190.97794 283.78846,188.72947 287.77709,184.23254 C 291.60922,179.9311 293.52531,174.12419 293.52536,166.81177 L 293.52536,161.0635 C 289.26299,166.77267 283.22145,169.62725 275.40071,169.62725 C 267.89275,169.62725 262.10538,167.1637 258.03859,162.23661 C 254.24551,157.70058 252.34898,151.60038 252.34898,143.936 L 252.34898,111.85128 L 257.15876,111.85128 L 257.15876,145.51971 C 257.15875,151.268 258.74245,155.9409 261.90988,159.53845 C 265.23369,163.33153 269.73063,165.22806 275.40071,165.22806 C 280.99253,165.22806 285.45037,163.31198 288.77424,159.47979 C 291.94161,155.84314 293.52531,151.18979 293.52536,145.51971 L 293.52536,111.85128 L 298.45244,111.85128 L 298.45244,166.81177 M 361.04174,140.24069 C 361.04168,148.80446 358.40217,155.84314 353.1232,161.35678 C 347.88324,166.87043 341.00096,169.62725 332.47636,169.62725 C 323.9908,169.62725 317.08897,166.87043 311.77086,161.35678 C 306.45273,155.80404 303.79367,148.76535 303.79367,140.24069 C 303.79367,131.71608 306.45273,124.67739 311.77086,119.1246 C 317.08897,113.5719 323.9908,110.79553 332.47636,110.79547 C 341.00096,110.79553 347.92234,113.59146 353.24052,119.18325 C 358.44127,124.65784 361.04168,131.67698 361.04174,140.24069 M 355.88003,140.12338 C 355.87997,132.8892 353.80747,126.96497 349.66251,122.35067 C 345.40015,117.61915 339.67143,115.25337 332.47636,115.25332 C 325.28122,115.25337 319.51341,117.61915 315.1729,122.35067 C 311.02788,126.92586 308.95538,132.85009 308.95538,140.12338 C 308.95538,147.39672 311.02788,153.32095 315.1729,157.89609 C 319.47431,162.62766 325.24212,164.99344 332.47636,164.99344 C 339.59323,164.99344 345.30239,162.60811 349.60386,157.83743 C 353.78792,153.18408 355.87997,147.27941 355.88003,140.12338 M 412.67454,168.57144 L 407.86476,168.57144 L 407.86476,134.96167 C 407.86472,129.29164 406.26146,124.63829 403.05499,121.00158 C 399.69202,117.16946 395.21463,115.25337 389.62281,115.25332 C 384.07004,115.25337 379.65131,116.93483 376.3666,120.29771 C 373.08186,123.62159 371.4395,128.05987 371.43951,133.61258 L 371.43951,168.45413 L 371.38085,168.45413 L 371.38085,168.57144 L 366.57108,168.57144 L 366.57108,168.45413 L 366.51242,168.45413 L 366.51242,111.73397 L 371.43951,111.73397 L 371.43951,119.53519 C 375.66272,113.70877 381.72381,110.79553 389.62281,110.79547 C 397.05251,110.79553 402.82033,113.27863 406.92627,118.24476 C 410.7584,122.81996 412.67449,128.90061 412.67454,136.48672 L 412.67454,168.57144" />
  <path
     style="font-size:14px;font-style:normal;font-variant:normal;font-weight:normal;font-stretch:normal;text-align:start;line-height:125%;text-anchor:start;fill:#00b0ff;fill-opacity:1;stroke:none;stroke-width:1px;stroke-linecap:butt;stroke-linejoin:miter;stroke-opacity:1;font-family:Asenine"
     id="text2485"
     d="M 434.48759,104.10975 L 424.30022,104.10975 L 424.30022,124.28571 L 419.82771,124.28571 L 419.82771,104.10975 L 391.80001,104.10975 C 387.3275,104.10977 385.09125,102.73489 385.09126,99.985102 C 385.09125,98.461163 385.67102,96.920635 386.83056,95.363514 L 419.23138,51.93052 L 424.30022,51.93052 L 424.30022,100.38266 L 434.48759,100.38266 L 434.48759,104.10975 M 419.82771,100.38266 L 419.82771,57.943554 L 390.70674,97.20221 C 390.30917,97.732311 390.11039,98.34521 390.1104,99.040907 C 390.11039,99.935432 391.08772,100.38268 393.04238,100.38266 L 419.82771,100.38266" />
  <path
     style="font-size:122px;font-style:normal;font-variant:normal;font-weight:normal;font-stretch:normal;text-align:start;line-height:125%;text-anchor:start;fill:url(#linearGradient3293);fill-opacity:1;stroke:none;stroke-width:1px;stroke-linecap:butt;stroke-linejoin:miter;stroke-opacity:1;filter:url(#filter3325);font-family:Cicle"
     id="text3267"
     transform="scale(1,-1)"
     d="M 58.917718,-238.81077 C 58.917672,-229.113 51.5466,-224.26413 36.80448,-224.26413 L 31.056211,-224.26413 C 23.978399,-224.26413 18.797142,-226.33663 15.512423,-230.48164 L 19.911608,-233.12116 C 22.609765,-230.34478 26.324629,-228.95659 31.056211,-228.95659 L 40.382484,-228.95659 C 49.454545,-228.95659 53.990589,-232.124 53.990631,-238.45883 C 53.990589,-243.89425 49.669616,-247.80464 41.027698,-250.19 L 30.059062,-253.2401 C 20.635022,-255.86002 15.92301,-260.68935 15.923013,-267.72808 C 15.92301,-276.5655 21.886344,-280.98424 33.813034,-280.98429 L 39.326679,-280.98429 L 39.326679,-281.04295 L 42.552749,-281.04295 C 49.70872,-281.04289 54.870425,-279.0486 58.037881,-275.06006 L 53.638696,-272.42055 C 51.057802,-275.07956 47.186523,-276.40909 42.024846,-276.40914 L 31.994704,-276.40914 C 24.564957,-276.40909 20.850093,-273.4372 20.850101,-267.49346 C 20.850093,-262.99647 24.682268,-259.67265 32.346639,-257.52197 L 43.784521,-254.2959 C 53.873278,-251.44129 58.917672,-246.27959 58.917718,-238.81077 M 121.46336,-224.26413 L 116.53628,-224.26413 L 116.53628,-234.82217 C 113.44702,-230.52074 109.1456,-227.29468 103.632,-225.14397 C 100.30813,-223.85354 96.80834,-223.20833 93.132611,-223.20833 C 84.490633,-223.20833 77.549703,-225.92604 72.309801,-231.36148 C 67.069877,-236.83601 64.44992,-243.9138 64.449923,-252.59488 C 64.44992,-261.43232 66.972117,-268.51011 72.016522,-273.82828 C 77.139113,-279.30277 84.099595,-282.04004 92.897988,-282.0401 C 102.94764,-282.04004 110.82706,-277.85593 116.53628,-269.48775 L 116.53628,-281.04295 L 121.46336,-281.04295 L 121.46336,-224.26413 M 116.53628,-242.03684 L 116.53628,-249.72075 C 116.53622,-257.6588 114.65924,-264.13048 110.90532,-269.13582 C 106.72116,-274.76673 100.79693,-277.5822 93.132611,-277.58226 C 85.859267,-277.5822 80.091452,-275.23597 75.829149,-270.54356 C 71.684129,-266.00747 69.611626,-260.06369 69.611634,-252.71219 C 69.611626,-245.24333 71.645025,-239.28 75.711837,-234.82217 C 79.935037,-230.16881 85.741956,-227.84213 93.132611,-227.84213 C 96.886547,-227.84213 100.38634,-228.64376 103.632,-230.24702 C 109.26291,-233.02339 113.56433,-236.95332 116.53628,-242.03684 M 183.95952,-252.59488 C 183.95946,-243.9138 181.3395,-236.83601 176.09964,-231.36148 C 170.89878,-225.92604 163.95785,-223.20833 155.27683,-223.20833 C 151.60104,-223.20833 148.10125,-223.85354 144.77744,-225.14397 C 139.22468,-227.29468 134.92326,-230.52074 131.87317,-234.82217 L 131.87317,-224.26413 L 126.94608,-224.26413 L 126.88742,-224.32279 L 126.88742,-308.02462 L 131.81451,-308.02462 L 131.81451,-269.48775 C 137.56277,-277.85593 145.46174,-282.04004 155.51146,-282.0401 C 164.30979,-282.04004 171.27027,-279.30277 176.39292,-273.82828 C 181.43726,-268.51011 183.95946,-261.43232 183.95952,-252.59488 M 178.79781,-252.71219 C 178.79776,-260.02458 176.72525,-265.96836 172.58029,-270.54356 C 168.31793,-275.23597 162.55011,-277.5822 155.27683,-277.58226 C 147.53424,-277.5822 141.59046,-274.78628 137.44547,-269.19448 C 133.73059,-264.22824 131.87316,-257.73701 131.87317,-249.72075 L 131.87317,-242.03684 C 134.84505,-236.95332 139.14647,-233.02339 144.77744,-230.24702 C 148.02304,-228.64376 151.52283,-227.84213 155.27683,-227.84213 C 162.58922,-227.84213 168.37658,-230.18836 172.63895,-234.88083 C 176.7448,-239.37776 178.79776,-245.32154 178.79781,-252.71219 M 246.33836,-224.26413 L 241.41128,-224.26413 L 241.41128,-234.82217 C 238.32202,-230.52074 234.0206,-227.29468 228.507,-225.14397 C 225.18313,-223.85354 221.68334,-223.20833 218.00761,-223.20833 C 209.36563,-223.20833 202.4247,-225.92604 197.1848,-231.36148 C 191.94488,-236.83601 189.32492,-243.9138 189.32492,-252.59488 C 189.32492,-261.43232 191.84712,-268.51011 196.89152,-273.82828 C 202.01411,-279.30277 208.97459,-282.04004 217.77299,-282.0401 C 227.82264,-282.04004 235.70206,-277.85593 241.41128,-269.48775 L 241.41128,-281.04295 L 246.33836,-281.04295 L 246.33836,-224.26413 M 241.41128,-242.03684 L 241.41128,-249.72075 C 241.41122,-257.6588 239.53424,-264.13048 235.78032,-269.13582 C 231.59616,-274.76673 225.67193,-277.5822 218.00761,-277.58226 C 210.73427,-277.5822 204.96645,-275.23597 200.70415,-270.54356 C 196.55913,-266.00747 194.48663,-260.06369 194.48663,-252.71219 C 194.48663,-245.24333 196.52002,-239.28 200.58684,-234.82217 C 204.81004,-230.16881 210.61696,-227.84213 218.00761,-227.84213 C 221.76155,-227.84213 225.26134,-228.64376 228.507,-230.24702 C 234.13791,-233.02339 238.43933,-236.95332 241.41128,-242.03684 M 298.45244,-226.0238 C 298.45239,-217.22544 296.04751,-210.22585 291.23778,-205.02503 C 286.27155,-199.62872 279.42838,-196.93055 270.70825,-196.93052 C 264.02147,-196.93055 257.7062,-198.80754 251.76242,-202.56148 L 253.46344,-207.48857 C 256.74816,-205.10325 260.32616,-203.5 264.19745,-202.67879 C 266.77829,-202.13136 269.02676,-201.85763 270.94287,-201.85761 C 278.17706,-201.85763 283.78846,-204.1061 287.77709,-208.60303 C 291.60922,-212.90447 293.52531,-218.71139 293.52536,-226.0238 L 293.52536,-231.77207 C 289.26299,-226.06291 283.22145,-223.20833 275.40071,-223.20833 C 267.89275,-223.20833 262.10538,-225.67187 258.03859,-230.59896 C 254.24551,-235.13499 252.34898,-241.23519 252.34898,-248.89957 L 252.34898,-280.98429 L 257.15876,-280.98429 L 257.15876,-247.31586 C 257.15875,-241.56757 258.74245,-236.89467 261.90988,-233.29712 C 265.23369,-229.50404 269.73063,-227.60751 275.40071,-227.60751 C 280.99253,-227.60751 285.45037,-229.52359 288.77424,-233.35578 C 291.94161,-236.99243 293.52531,-241.64578 293.52536,-247.31586 L 293.52536,-280.98429 L 298.45244,-280.98429 L 298.45244,-226.0238 M 361.04174,-252.59488 C 361.04168,-244.03112 358.40217,-236.99243 353.1232,-231.47879 C 347.88324,-225.96515 341.00096,-223.20833 332.47636,-223.20833 C 323.9908,-223.20833 317.08897,-225.96515 311.77086,-231.47879 C 306.45273,-237.03153 303.79367,-244.07022 303.79367,-252.59488 C 303.79367,-261.11949 306.45273,-268.15818 311.77086,-273.71097 C 317.08897,-279.26367 323.9908,-282.04004 332.47636,-282.0401 C 341.00096,-282.04004 347.92234,-279.24412 353.24052,-273.65232 C 358.44127,-268.17773 361.04168,-261.15859 361.04174,-252.59488 M 355.88003,-252.71219 C 355.87997,-259.94638 353.80747,-265.87061 349.66251,-270.4849 C 345.40015,-275.21642 339.67143,-277.5822 332.47636,-277.58226 C 325.28122,-277.5822 319.51341,-275.21642 315.1729,-270.4849 C 311.02788,-265.90971 308.95538,-259.98548 308.95538,-252.71219 C 308.95538,-245.43885 311.02788,-239.51462 315.1729,-234.93949 C 319.47431,-230.20791 325.24212,-227.84213 332.47636,-227.84213 C 339.59323,-227.84213 345.30239,-230.22746 349.60386,-234.99814 C 353.78792,-239.65149 355.87997,-245.55617 355.88003,-252.71219 M 412.67454,-224.26413 L 407.86476,-224.26413 L 407.86476,-257.87391 C 407.86472,-263.54393 406.26146,-268.19728 403.05499,-271.83399 C 399.69202,-275.66611 395.21463,-277.5822 389.62281,-277.58226 C 384.07004,-277.5822 379.65131,-275.90074 376.3666,-272.53786 C 373.08186,-269.21398 371.4395,-264.7757 371.43951,-259.22299 L 371.43951,-224.38144 L 371.38085,-224.38144 L 371.38085,-224.26413 L 366.57108,-224.26413 L 366.57108,-224.38144 L 366.51242,-224.38144 L 366.51242,-281.1016 L 371.43951,-281.1016 L 371.43951,-273.30038 C 375.66272,-279.1268 381.72381,-282.04004 389.62281,-282.0401 C 397.05251,-282.04004 402.82033,-279.55695 406.92627,-274.59081 C 410.7584,-270.01561 412.67449,-263.93497 412.67454,-256.34885 L 412.67454,-224.26413" />
  <path
     style="font-size:14px;font-style:normal;font-variant:normal;font-weight:normal;font-stretch:normal;text-align:start;line-height:125%;text-anchor:start;fill:url(#linearGradient3285);fill-opacity:1;stroke:none;stroke-width:1px;stroke-linecap:butt;stroke-linejoin:miter;stroke-opacity:1;filter:url(#filter3321);font-family:Asenine"
     id="text3271"
     transform="scale(1,-1)"
     d="M 434.48759,-288.72583 L 424.30022,-288.72583 L 424.30022,-268.54987 L 419.82771,-268.54987 L 419.82771,-288.72583 L 391.80001,-288.72583 C 387.3275,-288.72581 385.09125,-290.10069 385.09126,-292.85048 C 385.09125,-294.37442 385.67102,-295.91494 386.83056,-297.47207 L 419.23138,-340.90506 L 424.30022,-340.90506 L 424.30022,-292.45292 L 434.48759,-292.45292 L 434.48759,-288.72583 M 419.82771,-292.45292 L 419.82771,-334.89202 L 390.70674,-295.63337 C 390.30917,-295.10327 390.11039,-294.49037 390.1104,-293.79467 C 390.11039,-292.90015 391.08772,-292.4529 393.04238,-292.45292 L 419.82771,-292.45292" />
  <text
     xml:space="preserve"
     style="font-size:108.53962708px;font-style:normal;font-variant:normal;font-weight:normal;font-stretch:normal;text-align:start;line-height:125%;writing-mode:lr-tb;text-anchor:start;fill:#d4ff2a;fill-opacity:1;stroke:none;stroke-width:1px;stroke-linecap:butt;stroke-linejoin:miter;stroke-opacity:1;font-family:Cicle;-inkscape-font-specification:Cicle"
     x="414.47116"
     y="129.67555"
     id="text10555"
     sodipodi:linespacing="125%"
     transform="scale(1.0377796,0.9635958)"><tspan
       sodipodi:role="line"
       id="tspan10557"
       x="414.47116"
       y="129.67555">.2</tspan></text>
  <text
     transform="scale(1.0377796,-0.9635958)"
     sodipodi:linespacing="125%"
     id="text11068"
     y="-278.83899"
     x="414.47116"
     style="font-size:108.53962708000000248px;font-style:normal;font-variant:normal;font-weight:normal;font-stretch:normal;text-align:start;line-height:125%;writing-mode:lr-tb;text-anchor:start;fill:url(#linearGradient11082);fill-opacity:1;stroke:none;stroke-width:1px;stroke-linecap:butt;stroke-linejoin:miter;stroke-opacity:1;font-family:Cicle;-inkscape-font-specification:Cicle;filter:url(#filter11072);opacity:0.8"
     xml:space="preserve"><tspan
       y="-278.83899"
       x="414.47116"
       id="tspan11070"
       sodipodi:role="line"
       style="fill-opacity:1;fill:url(#linearGradient11082)">.2</tspan></text>
</svg>
